<?xml version="1.0" encoding="UTF-8"?>
<!-- Copyrights - All Rights Reserved: Affluent.co -->
<svg enable-background="new 0 0 996.2 198.7" version="1.1" viewBox="0 0 996.2 198.7" xml:space="preserve" xmlns="http://www.w3.org/2000/svg">
	<path d="M361.9,9.4h37.5v180h-37.5V9.4z" fill="#000"/>
	<path d="m956.5 114.2c-15.1 0.2-26.9-12.3-27.2-26.4-0.4-16.3 12.4-28.5 27.7-28.4 14.8 0.1 27.3 12.1 27.2 27.8-0.2 14.7-12.3 27.3-27.7 27zm-11.2-27.3c0 6.5 4.9 11.4 11.5 11.4 6.7 0 11.4-5.3 11.4-11.3 0-6.8-5.3-11.5-11.5-11.6-6.1 0-11.5 4.8-11.4 11.5z" fill="#000"/>
	<path d="m984 122.2c0-1.6-0.2-1.8-1.8-1.8h-11.5c-2.5 0-2.5 0-2.5 2.6-0.1 4.6-0.1 9.2-0.3 13.8-0.2 3.5-2.2 6.1-5 8-3.5 2.3-7.4 2.8-11.3 0.8-4.1-2.1-6.3-5.4-6.4-10-0.1-4.5 0-9 0-13.5 0-1.1-0.4-1.6-1.6-1.6h-12.7c-1.5 0-1.7 0.2-1.7 1.8v7.6 4.3c0.1 2.1 0.2 4.2 0.6 6.2 1.1 6.8 4.6 12.3 10.1 16.6 3.6 2.8 7.6 4.7 12.1 5.3 9 1.3 16.9-0.8 23.6-7.3 5.5-5.3 8.2-11.8 8.5-19.3 0-4.5-0.1-9-0.1-13.5z" fill="#000"/>
	<path d="m982.3 181.1c0.1 5.8-4.9 10.6-10.9 10.4-5.3-0.1-10.4-4.7-10.2-10.8 0.1-5.7 4.7-10.7 11.2-10.4 5.2 0.3 10.3 5 9.9 10.8z" fill="#000"/>
	<path d="m945.3 86.9c0-6.7 5.3-11.5 11.4-11.5 6.2 0 11.5 4.8 11.5 11.6 0 6-4.7 11.4-11.4 11.3-6.6-0.1-11.5-4.9-11.5-11.4z" fill="none"/>
	<path d="m612.9 88.2c-15 0-25 8.8-28.8 25h57.5c-3.7-16.3-13.7-25-28.7-25z" fill="none"/>
	<polygon points="131.7 14.4 74.2 14.4 14.2 189.4 57.9 189.4 69.2 154.4 91.4 154.4 91.4 119.4 80.4 119.4 102.9 48.9 125.4 119.4 114.4 119.4 114.4 154.4 136.7 154.4 147.9 189.4 191.7 189.4" fill="#000"/>
	<path d="m282.9 44.4v17.5h-40v-12.5c0-6.2 2.5-8.8 8.8-8.8h13.8v-31.2h-23.8c-23.8 0-36.2 12.5-36.2 35v17.5h-20v35h20v92.5h37.5v-92.5h40v92.5h37.5v-92.5h27.5v-35h-27.5v-12.5c0-6.2 2.5-8.8 8.8-8.8h18.8v-31.2h-28.8c-23.9 0-36.4 12.5-36.4 35z" fill="#000"/>
	<path d="m497.9 131.9c0 13.8-10 23.8-23.8 23.8s-23.8-10-23.8-23.8v-70h-37.5v77.5c0 31.2 21.2 52.5 51.2 52.5 23.8 0 35-13.8 35-13.8h1.2l6.5 11.2h28.5v-127.4h-37.5v70z" fill="#000"/>
	<path d="m612.9 59.4c-38.8 0-66.2 27.5-66.2 66.2s27.5 66.2 66.2 66.2c47.5 0 61.2-41.2 61.2-41.2h-37.5s-7.5 11.2-23.8 11.2-27.5-11.2-28.8-26.2h92.5s1.2-3.8 1.2-12.5c0.2-36.2-27.3-63.7-64.8-63.7zm-28.7 53.8c3.8-16.2 13.8-25 28.8-25s25 8.8 28.8 25h-57.6z" fill="#000"/>
	<path d="m760.4 59.4c-23.8 0-35 13.8-35 13.8h-1.2l-7.6-11.2h-27.4v127.5h37.5v-70c0-13.8 10-23.8 23.8-23.8s23.8 10 23.8 23.8v70h37.5v-77.5c-0.2-31.3-21.4-52.6-51.4-52.6z" fill="#000"/>
	<path d="m907.6 96.9v-35h-28.8v-40h-37.5v40h-20v35h20v57.5c0 22.5 12.5 35 36.2 35h30v-35h-20c-6.2 0-8.8-2.5-8.8-8.8v-48.7h28.9z" fill="#000"/>
</svg>
