<?xml version="1.0" encoding="utf-8"?>
<!-- Generator: Adobe Illustrator 26.3.1, SVG Export Plug-In . SVG Version: 6.00 Build 0)  -->
<svg version="1.1" id="Layer_1" xmlns="http://www.w3.org/2000/svg" xmlns:xlink="http://www.w3.org/1999/xlink" x="0px" y="0px"
	 viewBox="0 0 16 16" style="enable-background:new 0 0 16 16;" xml:space="preserve">
<path style="fill:#FFFFFF;" d="M1,15.5c-0.128,0-0.256-0.049-0.354-0.146c-0.195-0.195-0.195-0.512,0-0.707L13.793,1.5H1
	C0.724,1.5,0.5,1.276,0.5,1S0.724,0.5,1,0.5h13.998c0.005-0.001,0.01,0,0.015,0l0,0c0.001,0,0.001,0,0.001,0
	c0.001,0,0.001,0,0.001,0l0,0c0.062,0.002,0.121,0.015,0.176,0.038s0.105,0.055,0.151,0.097l0,0c0,0,0,0,0.001,0.001v0l0,0
	c0.008,0.007,0.015,0.014,0.021,0.021l0,0c0.001,0,0.001,0,0.001,0.001l0.001,0l0,0c0.042,0.045,0.075,0.097,0.097,0.151
	c0.022,0.054,0.036,0.113,0.038,0.175l0,0c0,0,0,0.001,0,0.001c0,0,0,0.001,0,0.001v0c0,0.005,0,0.009,0,0.014V15
	c0,0.276-0.224,0.5-0.5,0.5s-0.5-0.224-0.5-0.5V2.207L1.354,15.354C1.256,15.451,1.128,15.5,1,15.5z"/>
</svg>
