<?xml version="1.0" encoding="UTF-8"?>
<!-- Copyrights - All Rights Reserved: Affluent.co -->
<svg enable-background="new 0 0 1313.384888 875.557617" version="1.1" viewBox="0 0 1313.4 875.56" xml:space="preserve" xmlns="http://www.w3.org/2000/svg">
	<g fill="none" opacity=".4" stroke-miterlimit="10" stroke-width=".75">
		<path d="m0.34525 721.84c0.76 0.22003 1.53 0.45001 2.29 0.67999h0.01c1.25 0.37 2.5 0.75 3.75 1.12 1.25 0.38 2.51 0.75 3.76 1.1201 1.26 0.38995 2.52 0.75995 3.77 1.14 1.26 0.38 2.52 0.76001 3.78 1.15 1.26 0.38 2.52 0.76001 3.78 1.14 1.27 0.38 2.53 0.76996 3.79 1.15s2.52 0.77002 3.77 1.15c1.27 0.39002 2.54 0.77002 3.8 1.16 1.27 0.39002 2.53 0.78003 3.79 1.16 1.27 0.39002 2.53 0.77997 3.79 1.17 296.96 91.53 507.73 189.41 594.45 114.78 107.39-92.42 122.27-324.31 142.05-513.45 0-0.030029 0.01001-0.060028 0.01001-0.090027 0.32001-3.15 0.65002-6.28 0.98004-9.4v-0.019989c0.33997-3.18 0.67999-6.33 1.02-9.48v-0.009979c0.35004-3.17 0.70001-6.33 1.05-9.47 0.35004-3.17 0.71002-6.32 1.07-9.46 0.36005-3.15 0.72003-6.3 1.09-9.42 0-0.01001 0.01001-0.02002 0.01001-0.029999 0.37-3.17 0.75-6.32 1.13-9.45v-0.01001c0.38995-3.2 0.78998-6.37 1.19-9.52v-0.01001c0.39996-3.21 0.81995-6.4 1.24-9.56 0.42999-3.24 0.85998-6.45 1.3-9.63 0-0.009995 0.01001-0.009995 0.01001-0.020004 0.45001-3.26 0.89996-6.48 1.37-9.68 0.47998-3.31 0.96997-6.59 1.48-9.83 0.51001-3.35 1.04-6.67 1.58-9.95 12.45-76.32 30.67-134.41 64.81-155.25 20.01-12.22 38.17-13.64 56.13-14.74h0.02002c3.77-0.23 7.54-0.45 11.32-0.75 0.030029 0 0.050049-0.009998 0.080017-0.009998 2.81-0.22 5.62-0.49 8.44-0.85 0.030029 0 0.070007 0 0.099976-0.009998 0.030029 0 0.050049 0 0.080017-0.010002 0.89002-0.11 1.77-0.23 2.66-0.37 14.72-2.19 29.77-7.1 46.06-20.36 9.85-8.02 18.05-17.38 24.89-27.61" stroke="#00B0FF"/>
		<path d="m1025.1 0.30986c-7.76 10.35-17.01 19.78-27.98 27.85-17 12.5-32.73 16.94-48.1 18.97-0.009949 0-0.019958 0.010002-0.029968 0-0.63 0.09-1.26 0.17-1.89 0.24-0.070007 0.009998-0.14002 0.02-0.21997 0.02-1.85 0.23-3.69 0.42-5.52 0.58-0.030029 0-0.059998 0-0.090027 0.010002-2.96 0.27-5.91 0.49-8.86 0.67-0.029968 0.010002-0.049988 0.010002-0.080017 0.010002-0.029968 0.009998-0.069946 0.009998-0.099976 0.009998-1.15 0.080002-2.3 0.16-3.45 0.23h-0.039978c-5.43 0.37-10.87 0.74-16.35 1.38h-0.02002c-13.33 1.55-26.94 4.69-41.41 13.12-8.22 4.79-15.45 11.6-22.2 19.95-23.87 29.51-38.23 74.38-50.03 129.61-0.66998 3.17-1.34 6.37-2 9.61l-0.01001 0.01001c-0.64002 3.15-1.28 6.33-1.91 9.54-0.60998 3.12-1.22 6.27-1.83 9.45-0.58997 3.09-1.17 6.21-1.75 9.36-0.57001 3.08-1.14 6.19-1.71 9.32v0.01001c-0.54999 3.08-1.11 6.18-1.67 9.31-0.53998 3.07-1.08 6.16-1.62 9.27-0.53998 3.06-1.07 6.14-1.61 9.25v0.019989c-0.5 2.88-1 5.79-1.5 8.71-0.040039 0.22-0.080017 0.45001-0.10998 0.67001 0 0.009979-0.01001 0.029999-0.01001 0.039978-0.53003 3.11-1.06 6.25-1.58 9.4 0 0.009979-0.01001 0.029999-0.01001 0.039978-0.51001 3.1-1.02 6.22-1.52 9.36-0.01001 0.040009-0.02002 0.070007-0.02002 0.10998-1 6.18-1.99 12.45-2.96 18.78 0 0.029999-0.01001 0.059998-0.01001 0.090027-27.68 179.58-48.39 414.73-153.57 502.77-76.29 63.86-219.33-7.05-420.6-65.17-50.1-14.44-103.85-29.16-160.69-42.31-1.21-0.27997-2.42-0.56-3.63-0.83997-1.2-0.28003-2.41-0.55005-3.62-0.83002-1.21-0.27002-2.42-0.54999-3.64-0.82001-1.2-0.28003-2.41-0.54999-3.62-0.81-1.2-0.28003-2.41-0.54999-3.62-0.82001-1.2-0.27002-2.41-0.53998-3.62-0.79999h-0.01c-1.2-0.27002-2.4-0.53003-3.6-0.79004h-0.01c-1.2-0.26996-2.4-0.52997-3.6-0.78998h-0.01c-1.21-0.27002-2.41-0.52997-3.62-0.77997-1.18-0.26001-2.36-0.51001-3.54-0.76001h-0.01c-1.24-0.27002-2.49-0.54004-3.74-0.79999-0.02 0-0.04 0-0.06-0.01001-0.59-0.13-1.18-0.25-1.77-0.37" stroke="#00B3F6"/>
		<path d="m1044.7 0.30986c-8.79 10.47-19.24 19.98-31.51 28.09-18.21 12.03-35.09 15.9-51.58 17.73-4.84 0.54-9.64 0.91-14.44 1.24-0.070007 0.009998-0.14002 0.02-0.21997 0.02-0.48004 0.029999-0.96002 0.07-1.44 0.099998-0.040039 0-0.070007 0.010002-0.11005 0.010002-3.42 0.24-6.83 0.48-10.26 0.78-2.09 0.18-4.19 0.38-6.29 0.62h-0.039978c-1.65 0.18-3.29 0.39-4.95 0.62-0.029968 0-0.049988 0.009998-0.080017 0.009998-12.33 1.74-24.87 4.97-38.02 12.25-8.44 4.68-15.81 11.32-22.85 19.27-27.11 30.6-42.82 72.95-56.82 125.48-0.81 3.03-1.61 6.11-2.41 9.21-0.78003 3.02-1.55 6.08-2.32 9.17-0.76001 2.99-1.5 6.01-2.25 9.06v0.009995c-0.72998 2.98-1.46 5.99-2.19 9.03-0.71997 2.98-1.44 5.98-2.16 9.02 0 0.009995-0.01001 0.009995-0.01001 0.020004-0.69 2.94-1.4 5.91-2.1 8.91v0.009979c-0.70996 2.95-1.41 5.94-2.11 8.94 0 0.01001-0.01001 0.02002-0.01001 0.029999-0.69995 2.97-1.4 5.96-2.11 8.98v0.01001c-0.70996 3.04-1.43 6.11-2.16 9.2v0.01001c-0.040039 0.13998-0.070007 0.26999-0.10004 0.41-0.69995 2.99-1.4 6-2.09 9.05 0 0.01001-0.01001 0.029999-0.01001 0.040009-1.39 6.11-2.75 12.35-4.1 18.69-0.01001 0.040009-0.02002 0.070007-0.02002 0.10998-0.66003 3.09-1.32 6.21-1.98 9.36v0.019989c-35.6 171.72-61.48 416.24-166.07 501.58-83.2 67.89-220.18-22.98-413.55-69.56-48.21-11.56-100.01-22.52-154.57-30.59-1.16-0.17004-2.32-0.34003-3.48-0.51001-1.15-0.16998-2.3-0.33002-3.46-0.48999-1.16-0.17004-2.32-0.34003-3.48-0.5-1.15-0.16003-2.31-0.32001-3.46-0.48004-1.15-0.15997-2.3-0.31995-3.46-0.46997-1.15-0.16003-2.3-0.31-3.46-0.46002-1.14-0.14996-2.29-0.29999-3.44-0.45001h-0.01c-1.15-0.14996-2.3-0.29999-3.45-0.44995h-0.01c-1.14-0.14002-2.28-0.28003-3.42-0.42004h-0.01c-1.12-0.14996-2.24-0.27997-3.36-0.41998h-0.02c-2.34-0.28998-4.68-0.56-7.03-0.83997-0.02 0-0.04 0-0.06-0.01001-0.59-0.059998-1.18-0.13-1.77-0.20001" stroke="#00B6ED"/>
		<path d="m0.34525 722.5c0.76 0 1.52 0.01001 2.29 0.019958h0.01c1.09 0.01001 2.18 0.02002 3.27 0.040039h0.01c1.09 0.01001 2.19 0.019958 3.28 0.039978h0.02c2.15 0.039978 4.29 0.080017 6.43 0.14002h0.030001c1.08 0.02002 2.15 0.049988 3.22 0.080017 1.11 0.029968 2.22 0.059998 3.32 0.089966h0.01c1.1 0.040039 2.19 0.080017 3.29 0.12h0.01c1.1 0.030029 2.2 0.070007 3.3 0.12h0.01c1.1 0.040039 2.19 0.080017 3.28 0.13 1.11 0.049988 2.21 0.10004 3.31 0.15002 1.11 0.049988 2.21 0.099976 3.32 0.15997 1.1 0.049988 2.21 0.11005 3.31 0.17004 1.11 0.049988 2.22 0.12 3.33 0.17999 52.28 2.96 102.12 10.16 148.43 18.83 185.49 35.04 316.34 145.82 406.51 73.96 103.85-82.77 135.58-336.55 178.6-500.41v-0.009979c0.83002-3.15 1.66-6.27 2.5-9.34 0-0.009979 0.01001-0.029999 0.01001-0.039978 0.84998-3.14 1.7-6.23 2.57-9.29 0-0.01001 0.01001-0.029999 0.01001-0.040009 1.66-5.92 3.35-11.7 5.06-17.32 0.14996-0.48999 0.29999-0.97998 0.44-1.46 0.019958-0.029999 0.029968-0.070007 0.039978-0.10001s0.02002-0.069977 0.030029-0.099976c0.88-2.9 1.75-5.77 2.61-8.62v-0.009979c0.85998-2.85 1.71-5.67 2.54-8.47 0.01001-0.01001 0.01001-0.02002 0.02002-0.029999 0.84998-2.86 1.7-5.69 2.54-8.49v-0.009995c0.85004-2.85 1.7-5.68 2.53-8.48 0.01001 0 0.01001-0.009995 0.01001-0.009995 0-0.009995 0.009949-0.009995 0.009949-0.020004 0.85004-2.89 1.71-5.75 2.5601-8.58l0.009949-0.009995c0.86005-2.89 1.73-5.76 2.58-8.59l0.01001-0.01001c0.89002-2.92 1.77-5.8 2.64-8.65 0.90997-2.94 1.81-5.85 2.71-8.72 0.92999-2.95 1.85-5.87 2.78-8.75 16.21-50.39 33.16-90.55 63.8-122.41 7.3-7.59 14.84-14.04 23.49-18.59 14.05-7.4 27.52-10.5 40.86-12.19 0.030029-0.010002 0.059998-0.010002 0.090027-0.010002 1.32-0.18 2.65-0.32 3.97-0.47 0.040039 0 0.070007-0.010002 0.11005-0.010002 1.19-0.13 2.37-0.24 3.55-0.36 0.01001 0.010002 0.02002 0 0.029968 0 4.1801-0.39 8.34-0.69 12.52-1 0.33002-0.029999 0.66998-0.049999 1-0.07 0.070007-0.009998 0.14002-0.009998 0.21002-0.02 4.52-0.35 9.07-0.69 13.64-1.18 0.059998 0 0.12-0.010002 0.17999-0.010002 16.83-1.78 34.06-5.31 52.54-16.22 13.81-8.14 25.66-17.7 35.63-28.32" stroke="#00B8E5"/>
		<path d="m0.34525 724.3c2.02-0.22998 4.04-0.45001 6.05-0.66003 1.02-0.10998 2.05-0.21997 3.07-0.31995 1.04-0.10004 2.08-0.20001 3.12-0.30005h0.01c1.02-0.099976 2.04-0.19995 3.06-0.27997h0.030001c2.05-0.19 4.1-0.37 6.15-0.53998h0.02c1.04-0.080017 2.09-0.17004 3.13-0.24005 1.05-0.079956 2.1-0.15997 3.15-0.22998 1.05-0.080017 2.11-0.15002 3.17-0.21997 1.04-0.070007 2.09-0.14002 3.13-0.20001 1.05-0.070007 2.1-0.13 3.14-0.19 1.06-0.059998 2.12-0.12 3.17-0.16998 1.05-0.060059 2.11-0.11005 3.16-0.15002 1.06-0.059998 2.11-0.10998 3.17-0.15002 49.98-2.15 97.87 1.27 142.29 7.05 177.6 23.5 302.27 154.13 399.45 78.35 103-80.31 141.27-343.13 191.17-499.21 1.01-3.15 2.01-6.25 3.04-9.31 0-0.009979 0.01001-0.029999 0.01001-0.039978 1.05-3.17 2.11-6.28 3.18-9.35v-0.01001c1.1-3.2 2.22-6.33 3.35-9.41 0.01001-0.029999 0.02002-0.069977 0.030029-0.099976 0.82001-2.24 1.64-4.44 2.46-6.61 1.27-3.35 2.52-6.66 3.74-9.93v-0.01001c1.02-2.7 2.01-5.38 2.9901-8.02 1.0099-2.71 2-5.4 2.96-8.05 0-0.009995 0.01001-0.009995 0.01001-0.020004 1.01-2.72 1.99-5.41 2.96-8.06 1-2.74 1.99-5.44 2.96-8.11 1.01-2.75 2-5.46 2.98-8.15l0.01001-0.01001c1.0099-2.76 2.0099-5.48 3-8.17 1.03-2.77 2.04-5.51 3.05-8.22 1.04-2.79 2.08-5.54 3.12-8.26 18.58-48.88 36.61-87.19 71.19-120.53 7.52-7.25 15.27-13.49 24.14-17.92 16.17-8.09 31.78-10.91 47.4-12.49 0.070007-0.009998 0.14002-0.009998 0.21002-0.02 4.54-0.46 9.08-0.83 13.64-1.18 0.059998 0 0.12-0.010002 0.17999-0.010002 1.05-0.079998 2.1-0.16 3.15-0.24 0.090027-0.010002 0.17004-0.02 0.26001-0.02 0.080017-0.010002 0.16003-0.02 0.23999-0.02 3.49-0.27 7-0.56 10.52-0.91 0.059998 0 0.10998-0.010002 0.16998-0.010002 0.030029-0.009998 0.070007-0.009998 0.10004-0.009998 17.38-1.71 35.16-4.86 54.09-14.77 15.61-8.17 29.1-17.76 40.39-28.56" stroke="#00BBDC"/>
		<path d="m0.34525 727.14c3.27-0.82996 6.55-1.62 9.81-2.3799 0.98-0.22003 1.95-0.44 2.93-0.66003h0.01c0.97-0.22998 1.95-0.44 2.92-0.65997h0.01c0.96-0.21002 1.92-0.42004 2.88-0.62 0.97-0.21002 1.96-0.42004 2.93-0.62h0.02c1.98-0.41003 3.96-0.81006 5.94-1.1801 0.01 0 0.02-0.009949 0.030001-0.009949 0.99-0.20001 1.99-0.39002 2.98-0.57001 1-0.19 2-0.38 2.99-0.55005 0.009998 0 0.009998-0.009949 0.02-0.009949 0.99-0.17999 1.97-0.36005 2.95-0.53003 1-0.17999 1.99-0.34998 2.99-0.52002 1-0.16998 2.01-0.33997 3.01-0.5 1-0.16998 2-0.32996 3-0.48999 1-0.15997 2.01-0.31 3.02-0.46997 47.68-7.27 93.61-7.63 136.12-4.75 169.7 11.97 288.13 162.38 392.4 82.76 102.05-77.93 147.53-349.52 203.75-498 1.19-3.15 2.39-6.23 3.59-9.27v-0.019989c1.24-3.12 2.48-6.17 3.73-9.16v-0.01001c1.27-3.04 2.55-6.02 3.83-8.92v-0.009979c0.94-2.12 1.88-4.2 2.82-6.24 0.26001-0.56 0.51001-1.11 0.76996-1.67v-0.01001c2.3701-5.13 4.65-10.16 6.84-15.06 0.01001-0.019989 0.030029-0.050003 0.039978-0.069992 1.14-2.56 2.27-5.08 3.37-7.58v-0.009995c1.14-2.55 2.25-5.08 3.35-7.57 0-0.009995 0.01001-0.009995 0.01001-0.020004 1.13-2.58 2.24-5.12 3.34-7.64l0.01001-0.009995c1.12-2.58 2.23-5.12 3.32-7.64 1.14-2.6 2.26-5.17 3.36-7.7l0.01001-0.01001c1.13-2.61 2.26-5.19 3.37-7.73 0 0 0.01001 0 0.01001-0.009995 1.14-2.61 2.28-5.19 3.41-7.74 21.13-47.67 40.01-84.18 78.88-119.1 7.71-6.93 15.69-12.94 24.77-17.25 16.83-7.97 33.29-10.7 49.86-12.32 0.090027-0.010002 0.17004-0.02 0.26001-0.02 3.58-0.35 7.16-0.65 10.76-0.93 0.059998 0 0.10998-0.010002 0.16998-0.010002 0.030029-0.009998 0.070007-0.009998 0.10004-0.009998 2.29-0.18 4.58-0.36 6.87-0.54 0.10998-0.009998 0.22998-0.02 0.33997-0.029999 2.34-0.19 4.68-0.39 7.03-0.6 0.049988-0.009998 0.10998-0.009998 0.15997-0.009998 17.94-1.66 36.31-4.44 55.68-13.35 17.75-8.16 33.18-17.76 45.97-28.8" stroke="#00BED3"/>
		<path d="m0.34525 731.22c4.53-1.87 9.06-3.64 13.58-5.32 0.92-0.33997 1.85-0.67999 2.77-1.01h0.01c0.93-0.34998 1.85-0.67999 2.77-1h0.01c0.91-0.33997 1.83-0.65997 2.74-0.97998h0.01c0.92-0.32001 1.83-0.64002 2.75-0.95001 0.93-0.32001 1.87-0.63995 2.81-0.94 0.01 0 0.02-0.009949 0.030001-0.009949 1.89-0.64002 3.79-1.25 5.68-1.85 0.010002 0 0.02-0.01001 0.030003-0.01001 0.91-0.29999 1.83-0.58997 2.74-0.85998 0-0.01001 0.010002-0.01001 0.010002-0.01001 0.009998 0 0.009998-0.01001 0.019997-0.01001 0.93-0.28998 1.86-0.56995 2.79-0.84998 0.95-0.28998 1.89-0.57001 2.83-0.84003 0.96-0.28998 1.91-0.56995 2.86-0.83997 0.95-0.28003 1.9-0.54999 2.85-0.82001 0.95-0.26001 1.9-0.53003 2.85-0.78003h0.010002c45.38-12.41 89.35-16.57 129.95-16.59 161.81 0.42999 273.94 170.55 385.35 87.15 100.99-75.61 154.35-355.54 216.35-496.74 0-0.01001 0.01001-0.02002 0.01001-0.029999 1.36-3.1 2.72-6.13 4.1-9.09 1.4-3.04 2.81-6.01 4.23-8.9 0-0.009979 0.01001-0.019989 0.01001-0.029999 1.41-2.88 2.82-5.67 4.25-8.39 0.01001-0.01001 0.01001-0.02002 0.02002-0.029999 1.07-2.05 2.15-4.05 3.23-6.01 0.26001-0.48 0.53003-0.95 0.79004-1.43 1.31-2.38 2.59-4.72 3.85-7.04 0.01001-0.019989 0.030029-0.050003 0.039978-0.069992 2.63-4.85 5.15-9.58 7.58-14.19 0.01001 0 0.01001-0.009995 0.01001-0.009995 0.01001-0.020004 0.02002-0.030014 0.029968-0.050003 1.26-2.4 2.51-4.77 3.72-7.11 0-0.01001 0.01001-0.01001 0.02002-0.020004 1.2599-2.43 2.5-4.81 3.72-7.17 1.24-2.42 2.47-4.8 3.67-7.15 1.25-2.43 2.47-4.83 3.67-7.19l0.009949-0.01001c1.25-2.45 2.48-4.86 3.69-7.23 1.26-2.46 2.4901-4.88 3.72-7.27 23.86-46.54 43.28-81.17 86.68-117.66 7.89-6.63 16.11-12.4 25.42-16.57 17.77-7.96 35.4-10.57 53.29-12.21 0.10998-0.009998 0.22998-0.02 0.33997-0.029999 2.34-0.22 4.68-0.41 7.03-0.6 0.049988-0.009998 0.10998-0.009998 0.15997-0.009998 3.35-0.28 6.71-0.53 10.09-0.81 0.23999-0.009998 0.46997-0.039997 0.70996-0.059998 1.82-0.16 3.65-0.31 5.48-0.46h0.01001c17.92-1.61 36.26-4.14 55.38-11.78 20.32-8.11 38.05-17.67 52.51-29.04" stroke="#00C1CA"/>
		<path d="m0.34525 736.8c5.79-3.45 11.58-6.7 17.36-9.75 0.87-0.47003 1.73-0.91998 2.6-1.37h0.01c0.87-0.45001 1.74-0.90002 2.61-1.34 0.86-0.44 1.73-0.88 2.6-1.31h0.01c0.87-0.44 1.73-0.87 2.6-1.3 0.89-0.44 1.78-0.87 2.67-1.29 0.9-0.44 1.8-0.87 2.7-1.28 0.010002 0 0.02-0.01001 0.030003-0.01001 1.76-0.84998 3.51-1.65 5.27-2.45 0.88-0.40002 1.75-0.79004 2.63-1.1801 0.9-0.39996 1.8-0.79999 2.69-1.18l0.010002-0.01001c0.9-0.38995 1.8-0.77997 2.69-1.16s1.79-0.75 2.68-1.12c0.9-0.38 1.81-0.75 2.71-1.12 43.07-17.57 85.07-25.52 123.76-28.45 153.92-11.11 259.71 178.64 378.3 91.55 99.93-73.38 161.7-361.26 229.01-495.55v-0.01001c1.52-3.05 3.05-6.01 4.59-8.9 1.57-2.96 3.15-5.82 4.73-8.6v-0.009979c1.5601-2.75 3.13-5.4 4.7-7.96v-0.009995c1.22-1.98 2.44-3.91 3.66-5.78 0.26001-0.39999 0.52997-0.81 0.77997-1.21 0-0.009995 0.01001-0.009995 0.01001-0.020004 1.47-2.23 2.89-4.44 4.29-6.62v-0.009995c1.44-2.23 2.85-4.44 4.22-6.61 0.01001-0.020004 0.02002-0.030014 0.029968-0.050003 2.86-4.54 5.61-8.95 8.2401-13.25 0.019958-0.029999 0.039978-0.050003 0.059998-0.080002 1.36-2.23 2.7-4.43 4-6.59 1.39-2.28 2.74-4.52 4.06-6.73 1.35-2.26 2.68-4.49 3.98-6.68l0.01001-0.009995c1.36-2.29 2.69-4.54 4-6.76 1.36-2.29 2.69-4.55 4-6.78 26.84-45.47 46.45-78.21 94.63-116.22 8.05-6.35 16.53-11.86 26.06-15.89 18.49-7.82 37.15-10.37 56.19-12.05 0.23999-0.009998 0.46997-0.039997 0.70996-0.059998 1.82-0.16 3.65-0.31 5.48-0.46h0.01001c3.7-0.29 7.42-0.57 11.15-0.87 0.87-0.07 1.74-0.14 2.61-0.21 18.72-1.55 37.86-3.71 57.62-10.46 23.38-7.98 43.85-17.43 60.12-29.28" stroke="#00C3C2"/>
		<path d="m0.34525 744.22c7.04-5.73 14.09-11.06 21.14-16.03 0.82-0.57001 1.63-1.15 2.45-1.71 0.82-0.57001 1.64-1.13 2.45-1.68 0.82-0.56 1.64-1.12 2.45-1.65h0.01c0.82-0.56 1.64-1.11 2.46-1.64 0.83-0.56 1.66-1.1 2.49-1.6201 0.009998 0 0.009998-0.009949 0.02-0.009949 0.82-0.54004 1.64-1.08 2.47-1.6 0.009998 0 0.009998-0.01001 0.019997-0.01001 0.83-0.52997 1.66-1.06 2.5-1.5699 1.65-1.04 3.3-2.05 4.95-3.03 0.010002-0.01001 0.030003-0.02002 0.040001-0.030029l0.009998-0.009949c0.83-0.5 1.66-1 2.49-1.48 0.85-0.51001 1.71-1.01 2.56-1.5 0.84-0.48999 1.69-0.97998 2.53-1.45 0.85-0.49005 1.7-0.97003 2.55-1.44h0.010002c40.77-22.74 80.79-34.51 117.57-40.35 146.03-22.65 245.4 186.64 371.25 95.94 98.81-71.22 169.45-366.59 241.71-494.4v-0.01001c1.69-2.99 3.3799-5.88 5.0699-8.68v-0.01001c1.72-2.84 3.4301-5.57 5.16-8.2 0-0.01001 0.01001-0.01001 0.01001-0.020004 1.7-2.61 3.41-5.13 5.13-7.53 0-0.009995 0.009949-0.009995 0.009949-0.020004 1.35-1.92 2.72-3.77 4.08-5.54 0.26001-0.34 0.52002-0.68001 0.78003-1.02 1.59-2.07 3.15-4.13 4.68-6.14 0-0.009995 0.01001-0.009995 0.01001-0.020004 1.57-2.09 3.11-4.15 4.61-6.18 0-0.01001 0.01001-0.01001 0.02002-0.020004 1.53-2.07 3.04-4.11 4.5-6.12 0.019958-0.029999 0.039978-0.050003 0.059998-0.080002 3.06-4.2 5.98-8.27 8.77-12.24 0.01001-0.009995 0.01001-0.009995 0.02002-0.019989 1.5-2.11 2.96-4.19 4.38-6.24 1.48-2.11 2.92-4.19 4.33-6.24 1.45-2.11 2.87-4.19 4.27-6.24 0-0.01001 0.01001-0.01001 0.01001-0.01001 1.45-2.14 2.88-4.24 4.29-6.31 0.009949-0.009995 0.009949-0.009995 0.009949-0.009995 30.08-44.42 49.48-75.28 102.68-114.75 8.2-6.09 16.95-11.34 26.71-15.22 19.06-7.58 38.68-10.11 58.81-11.82 0.87-0.07 1.74-0.14 2.61-0.21 3.9-0.32 7.8101-0.62 11.75-0.92 0.080078-0.009998 0.16003-0.009998 0.23999-0.019997 2.36-0.18 4.73-0.36 7.1-0.56 0.56006-0.049999 1.1201-0.09 1.6801-0.13 0.15002-0.02 0.30005-0.029999 0.45996-0.040001 17.12-1.44 34.6-3.47 52.38-8.55 27.04-7.73 50.78-16.95 68.95-29.52" stroke="#00C6B9"/>
		<path d="m0.34525 753.97c8.27-8.9 16.59-17.09 24.93-24.63 0.76-0.69 1.52-1.37 2.28-2.04 0.76-0.69 1.53-1.36 2.29-2.03 0.76-0.66998 1.52-1.33 2.28-1.99 0.77-0.65997 1.54-1.32 2.31-1.97 0.78-0.66003 1.56-1.31 2.33-1.96 0.78-0.64996 1.56-1.29 2.33-1.93 0.78-0.64002 1.56-1.27 2.34-1.9 0.77-0.62 1.54-1.24 2.32-1.85 0.010002-0.01001 0.030003-0.02002 0.040001-0.030029 1.56-1.24 3.12-2.46 4.68-3.65 0.009998-0.01001 0.009998-0.01001 0.02-0.02002 0.79-0.60998 1.59-1.21 2.39-1.81l0.009998-0.01001c0.79-0.59998 1.59-1.2 2.39-1.78 0-0.01001 0.009998-0.01001 0.009998-0.02002 0.8-0.58002 1.59-1.16 2.39-1.74 38.45-27.93 76.5-43.51 111.37-52.27 138.13-34.19 231.04 194.56 364.19 100.33 97.68-69.12 177.53-371.53 254.47-493.29 1.85-2.92 3.69-5.74 5.54-8.45 1.87-2.76 3.75-5.4 5.62-7.92 1.85-2.49 3.7-4.86 5.54-7.11l0.009949-0.009995c1.5-1.83 2.98-3.56 4.48-5.22 0.26001-0.28999 0.51996-0.56999 0.76996-0.86 1.7401-1.93 3.42-3.82 5.07-5.69l0.01001-0.009995c1.71-1.93 3.37-3.84 5-5.72 1.65-1.9 3.27-3.77 4.84-5.62 1.62-1.91 3.22-3.8 4.77-5.65 0.01001-0.009995 0.01001-0.009995 0.02002-0.019989 3.3-3.94 6.44-7.76 9.44-11.47 0.01001-0.01001 0.02002-0.020004 0.02002-0.029999 0.019958-0.020004 0.029968-0.030014 0.049988-0.050003 1.55-1.92 3.07-3.81 4.55-5.67l0.01001-0.01001c1.56-1.95 3.07-3.87 4.56-5.76 1.55-1.98 3.08-3.92 4.56-5.84 33.67-43.33 52.44-72.44 110.87-113.27 8.34-5.83 17.35-10.81 27.34-14.54 18.69-6.97 38.28-9.6 58.45-11.33 0.080078-0.009998 0.16003-0.009998 0.23999-0.019997 2.36-0.19 4.73-0.38 7.1-0.56 0.56006-0.049999 1.1201-0.09 1.6801-0.13 0.15002-0.02 0.30005-0.029999 0.45996-0.040001 1.53-0.12 3.0601-0.23 4.6001-0.34 0.1499-0.009998 0.29993-0.019997 0.44995-0.029999 0.13-0.009998 0.27002-0.02 0.40002-0.029999 4-0.3 8.02-0.59 12.06-0.9 0.099976-0.009998 0.21008-0.02 0.33008-0.029999 0.89002-0.07 1.7899-0.14 2.6899-0.22 0.20996-0.02 0.42004-0.029999 0.63-0.049999 0.070068 0 0.13 0 0.19995-0.009998 1.2201-0.1 2.4501-0.2 3.6801-0.31 0.079956-0.010002 0.15002-0.010002 0.22998-0.02 14.21-1.25 28.61-3 43.1-6.37 31.35-7.29 58.93-16.1 78.97-29.76" stroke="#00C9B0"/>
		<path d="m0.34525 766.7c9.48-13.25 19.06-25.28 28.7-36.21 0.71-0.79999 1.42-1.59 2.13-2.38 0.71-0.78998 1.42-1.58 2.13-2.36 0.71-0.78003 1.42-1.55 2.13-2.32 0.72-0.77002 1.43-1.54 2.14-2.31 0.73-0.77002 1.46-1.53 2.18-2.29 0.73-0.75995 1.45-1.5099 2.17-2.25 0.73-0.75995 1.46-1.5 2.2-2.24l0.010002-0.01001c0.72-0.73999 1.44-1.46 2.16-2.18 0.72-0.71997 1.46-1.45 2.18-2.16 0.009998-0.01001 0.009998-0.01001 0.02-0.02002 1.48-1.45 2.97-2.89 4.45-4.29 0.019997-0.02002 0.029999-0.040039 0.049999-0.059998 0.73-0.67999 1.47-1.38 2.2-2.05 0.009998-0.01001 0.009998-0.02002 0.019997-0.030029 0.75-0.69 1.48-1.37 2.23-2.05 0-0.01001 0-0.01001 0.009998-0.01001 36.12-33.13 72.19-52.53 105.13-64.21 130.25-45.73 216.62 202.38 357.15 104.73 96.56-67.1 185.79-376.12 267.28-492.25 0-0.009995 0.01001-0.009995 0.01001-0.020004 2-2.83 3.99-5.56 5.98-8.16 2.02-2.66 4.05-5.19 6.06-7.59v-0.009995c2-2.36 3.97-4.58 5.94-6.67l0.01001-0.01001c1.63-1.72 3.24-3.35 4.86-4.88 0.26001-0.25 0.52002-0.5 0.78003-0.75l0.01001-0.01001c1.85-1.75 3.65-3.47 5.41-5.18 1.83-1.77 3.61-3.51 5.35-5.23 1.79-1.75 3.53-3.49 5.23-5.2 1.75-1.75 3.45-3.48 5.11-5.18 1.73-1.77 3.42-3.51 5.06-5.23 0.01001-0.01001 0.02002-0.020004 0.02002-0.029999 3.47-3.6 6.74-7.09 9.87-10.48 1.64-1.78 3.22-3.51 4.78-5.24 0.01001-0.01001 0.030029-0.020004 0.040039-0.029999 1.65-1.82 3.27-3.62 4.85-5.39l0.01001-0.009995c37.55-42.12 55.3-69.68 119.13-111.74 8.49-5.59 17.77-10.29 27.99-13.87 18.23-6.36 37.69-9.05 57.8-10.8 0.1499-0.009998 0.29993-0.019997 0.44995-0.029999 0.13-0.009998 0.27002-0.02 0.40002-0.029999 4.71-0.41 9.46-0.76 14.24-1.09 0.069946-0.010002 0.13-0.010002 0.19995-0.02 0.42004-0.029999 0.84998-0.049999 1.27-0.09 0.070068 0 0.13 0 0.19995-0.009998 2.4601-0.17 4.9301-0.34 7.41-0.51 0.040039 0 0.080078-0.009998 0.12-0.009998 3.76-0.25 7.53-0.51 11.32-0.8h0.039917c1.0601-0.079998 2.11-0.16 3.17-0.24h0.050049c2.49-0.2 4.98-0.4 7.48-0.63 0.039917 0 0.079956 0 0.12-0.009998 1.5399-0.13 3.1-0.27 4.64-0.43 0.029907 0 0.069946 0 0.10998-0.010002 9.49-0.91 19.02-2.11 28.54-3.83 36.3-6.56 68.35-14.73 89.98-29.99" stroke="#00CCA7"/>
		<path d="m0.34525 783.43c10.63-19.24 21.5-36.42 32.5-51.78 0.66-0.91998 1.31-1.82 1.97-2.72 0.65-0.90002 1.31-1.8 1.97-2.68 0.65-0.90002 1.31-1.78 1.97-2.66 0.66-0.88995 1.33-1.77 1.99-2.64 0.67-0.88 1.35-1.75 2.02-2.6201 0.67-0.87 1.34-1.73 2.02-2.59 0.68-0.85998 1.36-1.72 2.04-2.57 0.67-0.84998 1.35-1.69 2.03-2.52 0.68-0.83997 1.35-1.66 2.03-2.49l0.009998-0.01001c0.68-0.82996 1.38-1.65 2.05-2.47 0.019997-0.02002 0.029999-0.040039 0.049999-0.059998 1.38-1.63 2.75-3.24 4.12-4.82 0-0.01001 0.009998-0.01001 0.02-0.02002 0.7-0.81 1.39-1.61 2.09-2.4 0 0 0-0.01001 0.009998-0.02002 33.8-38.32 67.87-61.55 98.89-76.16 122.36-57.28 202.14 210.11 350.1 109.12 95.45-65.15 194.11-380.4 280.17-491.27 2.16-2.78 4.3-5.42 6.44-7.93 2.16-2.54 4.32-4.95 6.48-7.21 2.11-2.24 4.23-4.33 6.34-6.27 1.74-1.6 3.47-3.11 5.2-4.5 0.27002-0.22 0.54004-0.44 0.81006-0.66 1.97-1.59 3.89-3.16 5.77-4.71l0.01001-0.01001c1.93-1.59 3.81-3.15 5.65-4.71l0.009949-0.01001c1.89-1.58 3.7401-3.15 5.53-4.68l0.01001-0.009995c1.86-1.6 3.68-3.18 5.45-4.73 1.83-1.6 3.61-3.18 5.35-4.74l0.01001-0.01001c1.8-1.61 3.55-3.19 5.26-4.75 3.59-3.28 7-6.47 10.24-9.58 0.02002-0.009995 0.039978-0.019989 0.059998-0.039993 1.73-1.65 3.41-3.27 5.05-4.88l0.01001-0.009995c41.8-40.73 58.14-67.04 127.53-110.19 8.63-5.37 18.18-9.79 28.63-13.19 17.44-5.67 36.35-8.41 55.99-10.15 0.099976-0.009998 0.21008-0.02 0.33008-0.029999 0.60998-0.049999 1.23-0.11 1.85-0.16 0.069946-0.010002 0.13-0.010002 0.19995-0.02 1.7101-0.14 3.4301-0.28 5.15-0.41 0.079956-0.010002 0.15002-0.010002 0.22998-0.02 2.4-0.18 4.8101-0.36 7.22-0.52 0.14002-0.009998 0.28003-0.02 0.41003-0.029999 2.8101-0.19 5.63-0.37 8.4501-0.55 0.029907-0.010002 0.069946-0.010002 0.099976-0.010002 0.65002-0.040001 1.3199-0.079998 1.97-0.12h0.050049c8.2-0.51 16.48-0.98 24.77-1.58 0.15002 0 0.31006-0.009998 0.46008-0.019997 0.02002 0 0.049927 0 0.079956-0.010002 3.1-0.22 6.2001-0.46 9.3-0.72 0.029907-0.009998 0.049927-0.009998 0.079956-0.009998 7.41-0.62 14.83-1.36 22.2-2.33 41.77-5.48 78.87-12.67 101.55-30.23" stroke="#00CE9F"/>
		<path d="m0.34525 805.68c11.68-27.55 23.86-51.7 36.29-72.87 0.6-1.03 1.2-2.04 1.8-3.05 0.61-1.01 1.21-2.02 1.81-3.02 0.61-1 1.22-1.99 1.82-2.98 0.62-1 1.23-1.98 1.84-2.96 0.62-0.98999 1.24-1.98 1.86-2.96 0.63-0.97998 1.25-1.95 1.87-2.92 0.62-0.96002 1.25-1.92 1.87-2.87 0.63-0.96002 1.25-1.91 1.88-2.85 0.63-0.95001 1.26-1.89 1.9-2.83 0-0.01001 0.009998-0.01001 0.009998-0.02002 0.63-0.92999 1.27-1.86 1.9-2.78 0.009998-0.01001 0.009998-0.02002 0.019997-0.030029 0.63-0.91998 1.27-1.83 1.9-2.74 0-0.01001 0.009998-0.01001 0.02-0.02002 1.28-1.84 2.57-3.67 3.87-5.46 0.010002-0.01001 0.010002-0.01001 0.010002-0.02002 31.46-43.55 63.55-70.63 92.65-88.17 114.46-68.82 187.59 217.73 343.04 113.52 94.4-63.28 202.45-384.55 293.17-490.43 2.3-2.69 4.59-5.24 6.87-7.64l0.01001-0.01001c2.31-2.43 4.6-4.71 6.88-6.83 2.26-2.1 4.5-4.04 6.73-5.82 1.83-1.46 3.65-2.81 5.46-4.05 0.29999-0.2 0.59003-0.41 0.89002-0.61 2.08-1.43 4.12-2.84 6.1-4.23 0 0 0.01001 0 0.01001-0.009995 2.04-1.41 4.03-2.82 5.97-4.21 2-1.42 3.95-2.83 5.85-4.22 1.96-1.43 3.86-2.84 5.72-4.21 0-0.01001 0.01001-0.01001 0.01001-0.01001 1.93-1.44 3.81-2.86 5.64-4.26 1.88-1.44 3.7-2.85 5.48-4.23 0.01001-0.01001 0.030029-0.020004 0.040039-0.029999 1.86-1.46 3.66-2.89 5.42-4.31 0.02002-0.009995 0.039978-0.019989 0.059998-0.039993 3.8-3.05 7.39-6.01 10.8-8.89 46.19-39.01 60.89-64.46 135.88-108.48 8.77-5.15 18.58-9.3 29.27-12.52 16.2-4.89 33.97-7.61 52.52-9.35 0.040039 0 0.080078-0.009998 0.12-0.009998 1.2001-0.11 2.4-0.22 3.6-0.33 0.14002-0.009998 0.28003-0.02 0.41003-0.029999 4.35-0.37 8.73-0.7 13.14-0.99 0.060059 0 0.12-0.009998 0.18005-0.009998 1.5699-0.11 3.1499-0.21 4.73-0.31 0.039917 0 0.079956 0 0.12-0.009998 5.6899-0.34 11.41-0.65 17.17-0.94 0.15002 0 0.31006-0.009998 0.46008-0.019997 0.02002 0 0.049927 0 0.079956-0.010002 9.03-0.45 18.11-0.88 27.15-1.41h0.030029c6.83-0.39 13.64-0.85 20.39-1.41 47.63-3.95 90.29-9.84 113.2-30.47" stroke="#00D196"/>
		<path d="m0.3682 836.12c44.539-140.11 101.2-208.16 148.83-244.07 106.57-80.35 172.98 225.24 335.99 117.92 102.52-67.495 233.82-455.11 333.59-512.37 103.58-59.44 95.487-84.384 198.98-141.77 78.568-43.563 247.44-3.1587 295.34-55.084" stroke="#00D48D"/>
	</g>
</svg>