<?xml version="1.0" encoding="UTF-8"?>
<svg enable-background="new 0 0 30 8.881" version="1.1" viewBox="0 0 30 8.881" xml:space="preserve" xmlns="http://www.w3.org/2000/svg">
	<path d="m17.035 1.775c0.159 1e-3 0.313-0.061 0.428-0.171 0.114-0.11 0.181-0.261 0.185-0.42-2e-3 -0.161-0.067-0.315-0.181-0.428-0.115-0.114-0.269-0.178-0.431-0.18-0.159 4e-3 -0.311 0.069-0.423 0.183-0.111 0.113-0.173 0.266-0.172 0.425 1e-3 0.156 0.064 0.306 0.175 0.416 0.112 0.111 0.262 0.173 0.419 0.175zm4.162 0.568h1.477v0.116c-0.082 0.014-0.161 0.041-0.234 0.08-0.135 0.063-0.405 0.367-0.612 0.876-0.351 0.885-0.72 1.931-1.107 3.13l-0.144 0.455c-0.063 0.205-0.117 0.34-0.144 0.42-0.027 0.081-0.063 0.205-0.126 0.357-0.036 0.114-0.082 0.225-0.137 0.331-0.072 0.134-0.207 0.409-0.315 0.492-0.171 0.143-0.423 0.304-0.738 0.277-0.612 0-1.071-0.455-1.081-0.992 0-0.367 0.234-0.608 0.585-0.608 0.252 0 0.477 0.136 0.477 0.42 0 0.206-0.207 0.42-0.207 0.528 0 0.277 0.162 0.409 0.477 0.409 0.252 0 0.458-0.161 0.612-0.483 0.207-0.367 0.225-0.769 0.054-1.216l-1.296-3.407c-0.297-0.787-0.523-1.045-0.801-1.073v-0.116h2.044v0.116c-0.243 0.027-0.369 0.17-0.369 0.429 0 0.188 0.072 0.474 0.207 0.841l0.243 0.661c0.279 0.715 0.503 1.341 0.622 1.735 0.261-0.814 0.503-1.529 0.738-2.155 0.171-0.465 0.252-0.796 0.252-0.993 0-0.349-0.189-0.51-0.477-0.51v-0.12zm-14.218 4.355c-0.261-0.046-0.486-0.277-0.486-0.769v-5.929l-1.486 0.322v0.125c0.252-0.027 0.503 0.196 0.503 0.67v4.811c0 0.465-0.252 0.733-0.503 0.769-0.023 5e-3 -0.047 8e-3 -0.071 9e-3 -0.129 9e-3 -0.258-0.013-0.376-0.065-0.2-0.086-0.366-0.24-0.507-0.47l-0.686-1.092c-0.145-0.23-0.36-0.407-0.614-0.505s-0.533-0.113-0.796-0.04l0.774-0.85c0.585-0.643 1.126-1.055 1.639-1.225v-0.116h-1.703v0.116c0.441 0.17 0.414 0.545-0.092 1.136l-1.089 1.26v-4.855l-1.486 0.322v0.125c0.252 0 0.503 0.25 0.503 0.688v4.793c0 0.528-0.243 0.734-0.503 0.77v0.116h1.974v-0.116c-0.324-0.046-0.486-0.295-0.486-0.769v-0.885l0.422-0.465 1.024 1.672c0.243 0.403 0.468 0.564 0.828 0.564h3.428v-0.092c1e-3 0-0.097-7e-3 -0.211-0.025zm4.09-0.566v-2c-0.02-1.308-0.572-1.903-1.836-1.903-0.404-3e-3 -0.797 0.129-1.116 0.376-0.333 0.25-0.495 0.537-0.495 0.868 0 0.322 0.18 0.563 0.477 0.563 0.315 0 0.541-0.179 0.541-0.429 0-0.188-0.126-0.447-0.126-0.626 0-0.322 0.244-0.6 0.666-0.6 0.541 0 0.927 0.403 0.927 1.297v0.536l-0.45 0.107c-0.235 0.046-0.433 0.091-0.586 0.137-0.153 0.045-0.351 0.107-0.585 0.196-0.468 0.179-0.72 0.349-0.936 0.671-0.107 0.156-0.163 0.34-0.163 0.528 0 0.742 0.522 1.082 1.252 1.082 0.576 0 1.19-0.304 1.467-0.876 4e-3 0.181 0.048 0.358 0.128 0.52 0.305 0.614 1.316 0.251 1.316 0.251v-0.117c-0.442 0.068-0.479-0.454-0.481-0.581zm-0.961-0.619c0 0.295-0.108 0.536-0.324 0.706-0.207 0.17-0.423 0.26-0.648 0.26-0.441 0-0.73-0.286-0.73-0.814 0-0.25 0.137-0.483 0.252-0.617 0.091-0.092 0.198-0.168 0.316-0.223 0.153-0.08 0.229-0.122 0.333-0.17l0.412-0.152c0.207-0.08 0.333-0.125 0.387-0.152l2e-3 1.162zm19.892-3.17h-3.502v-2.343h3.502l-0.735 1.171 0.735 1.172zm-7.118 3.902c-0.435-0.444-0.675-1.044-0.668-1.666-5e-3 -0.307 0.052-0.611 0.166-0.895 0.115-0.285 0.285-0.544 0.501-0.762 0.442-0.465 0.983-0.699 1.614-0.699 0.622 0 1.163 0.233 1.605 0.699 0.219 0.217 0.392 0.475 0.508 0.76s0.173 0.59 0.168 0.897c5e-3 0.309-0.053 0.615-0.169 0.901s-0.289 0.547-0.507 0.765c-0.442 0.455-0.983 0.69-1.605 0.69-0.63 0-1.171-0.233-1.613-0.69zm2.426-3.249c-0.178-0.346-0.412-0.549-0.687-0.603-0.557-0.111-1.049 0.457-1.233 1.361-0.078 0.406-0.097 0.82-0.056 1.231 0.04 0.411 0.155 0.812 0.34 1.182 0.179 0.346 0.412 0.549 0.687 0.603 0.557 0.111 1.064-0.481 1.249-1.395 0.153-0.763 0.076-1.693-0.301-2.38l1e-3 1e-3zm-7.327 2.795c0 0.501 0.216 0.733 0.476 0.769v0.116h-1.963v-0.116c0.252-0.036 0.495-0.269 0.495-0.769v-2.999c0-0.474-0.495-0.474-0.495-0.474-0.114-3e-3 -0.227 0.018-0.333 0.061-0.105 0.044-0.2 0.109-0.278 0.192-0.161 0.154-0.305 0.377-0.433 0.671-0.118 0.258-1 2.798-1.219 3.434h-0.682c-0.136-0.413-0.543-1.625-0.889-2.504l-0.315-0.814c-0.225-0.626-0.495-0.975-0.801-1.037v-0.116h2.053v0.116c-0.396 0.045-0.477 0.322-0.234 1.064 0.063 0.188 0.216 0.609 0.45 1.243 0.234 0.635 0.378 1.14 0.441 1.346 0.063-0.215 0-0.095 0.99-2.768 0.192-0.514-9e-3 -0.832-0.433-0.895v-0.106h3.17v3.586z"/>
</svg>