<svg xmlns="http://www.w3.org/2000/svg" xmlns:xlink="http://www.w3.org/1999/xlink" viewBox="0 0 147 60" width="147" height="60" preserveAspectRatio="xMidYMid meet" style="width: 100%; height: 100%; transform: translate3d(0px, 0px, 0px); content-visibility: visible;"><defs><clipPath id="__lottie_element_2"><rect width="147" height="60" x="0" y="0"></rect></clipPath><clipPath id="__lottie_element_4"><path d="M0,0 L1920,0 L1920,1080 L0,1080z"></path></clipPath><clipPath id="__lottie_element_8"><path d="M0,0 L1920,0 L1920,1080 L0,1080z"></path></clipPath><clipPath id="__lottie_element_12"><path d="M0,0 L1920,0 L1920,1080 L0,1080z"></path></clipPath><clipPath id="__lottie_element_16"><path d="M0,0 L1920,0 L1920,1080 L0,1080z"></path></clipPath><clipPath id="__lottie_element_20"><path d="M0,0 L1920,0 L1920,1080 L0,1080z"></path></clipPath><clipPath id="__lottie_element_24"><path d="M0,0 L1920,0 L1920,1080 L0,1080z"></path></clipPath><mask id="__lottie_element_40"><rect fill="#ffffff" width="1920" height="1080" transform="matrix(1,0,0,1,-960.261962890625,-540)"></rect><path fill="#000000" clip-rule="nonzero" d=" M-273.92999267578125,97.87100219726562 C-273.92999267578125,97.87100219726562 -395.7869873046875,97.87100219726562 -395.7869873046875,97.87100219726562 C-395.7869873046875,97.87100219726562 -395.7869873046875,-94.83300018310547 -395.7869873046875,-94.83300018310547 C-395.7869873046875,-94.83300018310547 -273.92999267578125,-94.83300018310547 -273.92999267578125,-94.83300018310547 C-273.92999267578125,-94.83300018310547 -273.92999267578125,97.87100219726562 -273.92999267578125,97.87100219726562" fill-opacity="1"></path></mask><mask id="__lottie_element_43"><rect fill="#ffffff" width="1920" height="1080" transform="matrix(1,0,0,1,-959.7119750976562,-540)"></rect><path fill="#000000" clip-rule="nonzero" d=" M-517.6439819335938,97.87100219726562 C-517.6439819335938,97.87100219726562 -395.7869873046875,97.87100219726562 -395.7869873046875,97.87100219726562 C-395.7869873046875,97.87100219726562 -395.7869873046875,-94.83300018310547 -395.7869873046875,-94.83300018310547 C-395.7869873046875,-94.83300018310547 -517.6439819335938,-94.83300018310547 -517.6439819335938,-94.83300018310547 C-517.6439819335938,-94.83300018310547 -517.6439819335938,97.87100219726562 -517.6439819335938,97.87100219726562" fill-opacity="1"></path></mask><clipPath id="__lottie_element_49"><path fill="#ffffff" clip-rule="nonzero" d=" M-255.78799438476562,-50.75 C-255.78799438476562,-57 -253.28799438476562,-59.5 -247.03799438476562,-59.5 C-247.03799438476562,-59.5 -233.28799438476562,-59.5 -233.28799438476562,-59.5 C-233.28799438476562,-59.5 -233.28799438476562,-90.75 -233.28799438476562,-90.75 C-233.28799438476562,-90.75 -257.0379943847656,-90.75 -257.0379943847656,-90.75 C-280.7879943847656,-90.75 -293.2879943847656,-78.25 -293.2879943847656,-55.75 C-293.2879943847656,-55.75 -293.2879943847656,584.8499755859375 -293.2879943847656,584.8499755859375 C-293.2879943847656,584.8499755859375 -255.78799438476562,584.8499755859375 -255.78799438476562,584.8499755859375 C-255.78799438476562,584.8499755859375 -255.78799438476562,-50.75 -255.78799438476562,-50.75" fill-opacity="1"></path></clipPath><clipPath id="__lottie_element_52"><path fill="#ffffff" clip-rule="nonzero" d=" M-215.78799438476562,-55.75 C-215.78799438476562,-55.75 -215.78799438476562,584.8499755859375 -215.78799438476562,584.8499755859375 C-215.78799438476562,584.8499755859375 -178.28799438476562,584.8499755859375 -178.28799438476562,584.8499755859375 C-178.28799438476562,584.8499755859375 -178.28799438476562,-50.75 -178.28799438476562,-50.75 C-178.28799438476562,-57 -175.78799438476562,-59.5 -169.53799438476562,-59.5 C-169.53799438476562,-59.5 -150.78799438476562,-59.5 -150.78799438476562,-59.5 C-150.78799438476562,-59.5 -150.78799438476562,-90.75 -150.78799438476562,-90.75 C-150.78799438476562,-90.75 -179.53799438476562,-90.75 -179.53799438476562,-90.75 C-203.28799438476562,-90.75 -215.78799438476562,-78.25 -215.78799438476562,-55.75" fill-opacity="1"></path></clipPath><clipPath id="__lottie_element_58"><path fill="#ffffff" clip-rule="nonzero" d=" M-136.77699279785156,-619.885009765625 C-136.77699279785156,-619.885009765625 -99.2770004272461,-619.885009765625 -99.2770004272461,-619.885009765625 C-99.2770004272461,-619.885009765625 -99.2770004272461,89.2969970703125 -99.2770004272461,89.2969970703125 C-99.2770004272461,89.2969970703125 -136.77699279785156,89.2969970703125 -136.77699279785156,89.2969970703125 C-136.77699279785156,89.2969970703125 -136.77699279785156,-619.885009765625 -136.77699279785156,-619.885009765625" fill-opacity="1"></path></clipPath><clipPath id="__lottie_element_61"><path fill="#ffffff" clip-rule="nonzero" d=" M-1.2929999828338623,31.25 C-1.2929999828338623,45 -11.293000221252441,55 -25.042999267578125,55 C-38.792999267578125,55 -48.792999267578125,45 -48.792999267578125,31.25 C-48.792999267578125,31.25 -48.792999267578125,-567.510986328125 -48.792999267578125,-567.510986328125 C-48.792999267578125,-567.510986328125 -86.29299926757812,-567.510986328125 -86.29299926757812,-567.510986328125 C-86.29299926757812,-567.510986328125 -86.29299926757812,38.75 -86.29299926757812,38.75 C-86.29299926757812,70 -65.04299926757812,91.25 -35.042999267578125,91.25 C-11.293000221252441,91.25 -0.0430000014603138,77.5 -0.0430000014603138,77.5 C5.171000003814697,72.8280029296875 12.612000465393066,65.21099853515625 19.058000564575195,54.263999938964844 C29.590999603271484,36.375999450683594 31.79199981689453,19.23200035095215 34.380001068115234,-2.63700008392334 C35.426998138427734,-11.48799991607666 36.441001892089844,-23.836999893188477 36.20600128173828,-38.75 C23.707000732421875,-38.75 11.206000328063965,-38.75 -1.2929999828338623,-38.75 C-1.2929999828338623,-38.75 -1.2929999828338623,31.25 -1.2929999828338623,31.25" fill-opacity="1"></path></clipPath><clipPath id="__lottie_element_64"><path fill="#ffffff" clip-rule="nonzero" d=" M380.20098876953125,-78.25 C380.20098876953125,-78.25 342.70098876953125,-78.25 342.70098876953125,-78.25 C342.70098876953125,-78.25 342.70098876953125,54.25 342.70098876953125,54.25 C342.70098876953125,76.75 355.20098876953125,89.25 378.95098876953125,89.25 C378.95098876953125,89.25 989.3369750976562,89.25 989.3369750976562,89.25 C989.3369750976562,89.25 989.3369750976562,54.25 989.3369750976562,54.25 C989.3369750976562,54.25 388.95098876953125,54.25 388.95098876953125,54.25 C382.70098876953125,54.25 380.20098876953125,51.75 380.20098876953125,45.5 C380.20098876953125,45.5 380.20098876953125,-78.25 380.20098876953125,-78.25" fill-opacity="1"></path></clipPath><clipPath id="__lottie_element_70"><path d="M0,0 L1920,0 L1920,1080 L0,1080z"></path></clipPath><clipPath id="__lottie_element_74"><path fill="#ffffff" clip-rule="nonzero" d=" M-1.2929999828338623,31.25 C-1.2929999828338623,45 -11.293000221252441,55 -25.042999267578125,55 C-38.792999267578125,55 -48.792999267578125,45 -48.792999267578125,31.25 C-48.792999267578125,31.25 -48.792999267578125,-567.510986328125 -48.792999267578125,-567.510986328125 C-48.792999267578125,-567.510986328125 -86.29299926757812,-567.510986328125 -86.29299926757812,-567.510986328125 C-86.29299926757812,-567.510986328125 -86.29299926757812,38.75 -86.29299926757812,38.75 C-86.29299926757812,70 -65.04299926757812,91.25 -35.042999267578125,91.25 C-11.293000221252441,91.25 -0.0430000014603138,77.5 -0.0430000014603138,77.5 C5.171000003814697,72.8280029296875 12.612000465393066,65.21099853515625 19.058000564575195,54.263999938964844 C29.590999603271484,36.375999450683594 31.79199981689453,19.23200035095215 34.380001068115234,-2.63700008392334 C35.426998138427734,-11.48799991607666 36.441001892089844,-23.836999893188477 36.20600128173828,-38.75 C23.707000732421875,-38.75 11.206000328063965,-38.75 -1.2929999828338623,-38.75 C-1.2929999828338623,-38.75 -1.2929999828338623,31.25 -1.2929999828338623,31.25" fill-opacity="1"></path></clipPath></defs><g clip-path="url(#__lottie_element_2)"><g clip-path="url(#__lottie_element_4)" transform="matrix(0.13500000536441803,0,0,0.13500000536441803,-63.100006103515625,-42.900001525878906)" opacity="1" style="display: block;"><g clip-path="url(#__lottie_element_8)" transform="matrix(1,0,0,1,0,0)" opacity="1" style="display: block;"><g mask="url(#__lottie_element_40)" transform="matrix(1,0,0,1,960.261962890625,540)" opacity="1" style="display: block;"><g opacity="1" transform="matrix(1,0,0,1,0,0)"><path fill="rgb(255,255,255)" fill-opacity="1" d=" M-396.2869873046875,-51.763999938964844 C-396.2869873046875,-51.763999938964844 -396.2869873046875,-86.25 -396.2869873046875,-86.25 C-396.2869873046875,-86.25 -425.0369873046875,-86.25 -425.0369873046875,-86.25 C-425.0369873046875,-86.25 -485.0369873046875,88.75 -485.0369873046875,88.75 C-485.0369873046875,88.75 -441.2869873046875,88.75 -441.2869873046875,88.75 C-441.2869873046875,88.75 -430.0369873046875,53.75 -430.0369873046875,53.75 C-430.0369873046875,53.75 -407.7879943847656,53.75 -407.7879943847656,53.75 C-407.7879943847656,53.75 -407.7879943847656,18.75 -407.7879943847656,18.75 C-407.7879943847656,18.75 -418.7869873046875,18.75 -418.7869873046875,18.75 C-418.7869873046875,18.75 -396.2869873046875,-51.763999938964844 -396.2869873046875,-51.763999938964844z"></path></g></g><g mask="url(#__lottie_element_43)" transform="matrix(1,0,0,1,959.7119750976562,540)" opacity="1" style="display: block;"><g opacity="1" transform="matrix(1,0,0,1,0,0)"><path fill="rgb(255,255,255)" fill-opacity="1" d=" M-396.2869873046875,-51.763999938964844 C-396.2869873046875,-51.763999938964844 -396.2869873046875,-86.25 -396.2869873046875,-86.25 C-396.2869873046875,-86.25 -367.5369873046875,-86.25 -367.5369873046875,-86.25 C-367.5369873046875,-86.25 -307.5369873046875,88.75 -307.5369873046875,88.75 C-307.5369873046875,88.75 -351.2869873046875,88.75 -351.2869873046875,88.75 C-351.2869873046875,88.75 -362.5369873046875,53.75 -362.5369873046875,53.75 C-362.5369873046875,53.75 -384.7860107421875,53.75 -384.7860107421875,53.75 C-384.7860107421875,53.75 -384.7860107421875,18.75 -384.7860107421875,18.75 C-384.7860107421875,18.75 -373.7869873046875,18.75 -373.7869873046875,18.75 C-373.7869873046875,18.75 -396.2869873046875,-51.763999938964844 -396.2869873046875,-51.763999938964844z"></path></g></g><g transform="matrix(1,0,0,1,959.9990234375,539.9990234375)" opacity="1" style="display: block;"><g opacity="1" transform="matrix(1,0,0,1,0,0)"><path fill="rgb(255,255,255)" fill-opacity="1" d=" M-372.3210144042969,-86.25 C-372.3210144042969,-86.25 -419.8590087890625,-86.25 -419.8590087890625,-86.25 C-419.8590087890625,-86.25 -419.8590087890625,-51.763999938964844 -419.8590087890625,-51.763999938964844 C-419.8590087890625,-51.763999938964844 -372.3210144042969,-51.763999938964844 -372.3210144042969,-51.763999938964844 C-372.3210144042969,-51.763999938964844 -372.3210144042969,-86.25 -372.3210144042969,-86.25z"></path></g></g></g><g clip-path="url(#__lottie_element_12)" transform="matrix(1,0,0,1,0,0)" opacity="1" style="display: block;"><g clip-path="url(#__lottie_element_49)" transform="matrix(1,0,0,1,959.9990234375,540)" opacity="1" style="display: block;"><g opacity="1" transform="matrix(1,0,0,1,0,0)"><path stroke-linecap="butt" stroke-linejoin="miter" fill-opacity="0" stroke-miterlimit="10" stroke="rgb(255,255,255)" stroke-opacity="1" stroke-width="56" d=" M-226.93800354003906,-75.30699920654297 C-275.0369873046875,-75.30699920654297 -275.0379943847656,-80.73100280761719 -275.0379943847656,-27.207000732421875 C-275.0379943847656,-27.207000732421875 -275.0379943847656,20.679000854492188 -275.0379943847656,88.98600006103516"></path></g></g><g clip-path="url(#__lottie_element_52)" transform="matrix(1,0,0,1,959.9989624023438,540)" opacity="1" style="display: block;"><g opacity="1" transform="matrix(1,0,0,1,0,0)"><path stroke-linecap="butt" stroke-linejoin="miter" fill-opacity="0" stroke-miterlimit="10" stroke="rgb(255,255,255)" stroke-opacity="1" stroke-width="56" d=" M-149.9010009765625,-75.30699920654297 C-198,-75.30699920654297 -198.00100708007812,-80.73100280761719 -198.00100708007812,-27.207000732421875 C-198.00100708007812,-27.207000732421875 -198.00100708007812,20.679000854492188 -198.00100708007812,88.98600006103516"></path></g></g><g transform="matrix(1,0,0,1,959.9990234375,540)" opacity="1" style="display: block;"><g opacity="1" transform="matrix(1,0,0,1,0,0)"><path fill="rgb(255,255,255)" fill-opacity="1" d=" M-151.28799438476562,-3.75 C-151.28799438476562,-3.75 -313.7879943847656,-3.75 -313.7879943847656,-3.75 C-313.7879943847656,-3.75 -313.7879943847656,-38.75 -313.7879943847656,-38.75 C-313.7879943847656,-38.75 -151.28799438476562,-38.75 -151.28799438476562,-38.75 C-151.28799438476562,-38.75 -151.28799438476562,-3.75 -151.28799438476562,-3.75z"></path></g></g></g><g clip-path="url(#__lottie_element_16)" transform="matrix(1,0,0,1,0,0)" opacity="1" style="display: block;"><g clip-path="url(#__lottie_element_58)" transform="matrix(1,0,0,1,959.9989624023438,539.9990234375)" opacity="1" style="display: block;"><g opacity="1" transform="matrix(1,0,0,1,0,0)"><path stroke-linecap="butt" stroke-linejoin="miter" fill-opacity="0" stroke-miterlimit="10" stroke="rgb(255,255,255)" stroke-opacity="1" stroke-width="56" d=" M-119.0270004272461,-91.23799896240234 C-119.0270004272461,21.413999557495117 -119.0270004272461,106.92900085449219 -119.0270004272461,106.92900085449219"></path></g></g></g><g clip-path="url(#__lottie_element_20)" transform="matrix(1,0,0,1,0,-2)" opacity="1" style="display: block;"><g clip-path="url(#__lottie_element_61)" transform="matrix(1,0,0,1,959.9990234375,539.9990234375)" opacity="1" style="display: block;"><g opacity="1" transform="matrix(1,0,0,1,0,0)"><path stroke-linecap="butt" stroke-linejoin="miter" fill-opacity="0" stroke-miterlimit="10" stroke="rgb(255,255,255)" stroke-opacity="1" stroke-width="50" d=" M16.95599937438965,-42.93299865722656 C16.95599937438965,-42.93299865722656 16.95599937438965,43.56399917602539 16.95599937438965,43.56399917602539 C16.95599937438965,58.13399887084961 5.144000053405762,69.9469985961914 -9.425999641418457,69.9469985961914 C-9.425999641418457,69.9469985961914 -41.65999984741211,69.9469985961914 -41.65999984741211,69.9469985961914 C-56.22999954223633,69.9469985961914 -68.04299926757812,58.13399887084961 -68.04299926757812,43.56399917602539 C-68.04299926757812,43.56399917602539 -68.04299926757812,11.460000038146973 -68.04299926757812,-38.13399887084961"></path></g></g><g transform="matrix(1,0,0,1,960,540)" opacity="1" style="display: block;"><g opacity="1" transform="matrix(1,0,0,1,0,0)"><path fill="rgb(255,255,255)" fill-opacity="1" d=" M-1.2929999828338623,31.25 C-1.2929999828338623,45 -0.0430000014603138,77.5 -0.0430000014603138,77.5 C-0.0430000014603138,77.5 1.2059999704360962,77.5 1.2059999704360962,77.5 C1.2059999704360962,77.5 1.2139999866485596,77.53500366210938 1.2139999866485596,77.53500366210938 C1.2139999866485596,77.53500366210938 7.730000019073486,88.75 7.730000019073486,88.75 C7.730000019073486,88.75 36.20600128173828,88.75 36.20600128173828,88.75 C36.20600128173828,88.75 36.20600128173828,-38.75 36.20600128173828,-38.75 C36.20600128173828,-38.75 -1.2929999828338623,-38.75 -1.2929999828338623,-38.75 C-1.2929999828338623,-38.75 -1.2929999828338623,31.25 -1.2929999828338623,31.25z"></path></g></g></g><g clip-path="url(#__lottie_element_70)" transform="matrix(-1,0,0,-1,2147,1130)" opacity="1" style="display: block;"><g clip-path="url(#__lottie_element_74)" transform="matrix(1,0,0,1,959.9990234375,539.9990234375)" opacity="1" style="display: block;"><g opacity="1" transform="matrix(1,0,0,1,0,0)"><path stroke-linecap="butt" stroke-linejoin="miter" fill-opacity="0" stroke-miterlimit="10" stroke="rgb(255,255,255)" stroke-opacity="1" stroke-width="50" d=" M16.95599937438965,-42.93299865722656 C16.95599937438965,-42.93299865722656 16.95599937438965,43.56399917602539 16.95599937438965,43.56399917602539 C16.95599937438965,58.13399887084961 5.144000053405762,69.9469985961914 -9.425999641418457,69.9469985961914 C-9.425999641418457,69.9469985961914 -41.65999984741211,69.9469985961914 -41.65999984741211,69.9469985961914 C-56.22999954223633,69.9469985961914 -68.04299926757812,58.13399887084961 -68.04299926757812,43.56399917602539 C-68.04299926757812,43.56399917602539 -68.04299926757812,11.460000038146973 -68.04299926757812,-38.13399887084961"></path></g></g><g transform="matrix(1,0,0,1,960,540)" opacity="1" style="display: block;"><g opacity="1" transform="matrix(1,0,0,1,0,0)"><path fill="rgb(255,255,255)" fill-opacity="1" d=" M-1.2929999828338623,31.25 C-1.2929999828338623,45 -0.0430000014603138,77.5 -0.0430000014603138,77.5 C-0.0430000014603138,77.5 1.2059999704360962,77.5 1.2059999704360962,77.5 C1.2059999704360962,77.5 1.2139999866485596,77.53500366210938 1.2139999866485596,77.53500366210938 C1.2139999866485596,77.53500366210938 7.730000019073486,88.75 7.730000019073486,88.75 C7.730000019073486,88.75 36.20600128173828,88.75 36.20600128173828,88.75 C36.20600128173828,88.75 36.20600128173828,-38.75 36.20600128173828,-38.75 C36.20600128173828,-38.75 -1.2929999828338623,-38.75 -1.2929999828338623,-38.75 C-1.2929999828338623,-38.75 -1.2929999828338623,31.25 -1.2929999828338623,31.25z"></path></g></g></g><g clip-path="url(#__lottie_element_24)" transform="matrix(1,0,0,1,0,0)" opacity="1" style="display: block;"><g clip-path="url(#__lottie_element_64)" transform="matrix(1,0,0,1,960,539.9990234375)" opacity="1" style="display: block;"><g opacity="1" transform="matrix(1,0,0,1,0,0)"><path stroke-linecap="butt" stroke-linejoin="miter" fill-opacity="0" stroke-miterlimit="10" stroke="rgb(255,255,255)" stroke-opacity="1" stroke-width="56" d=" M408.10699462890625,71.25 C388.49200439453125,71.25 377.1470031738281,71.25 377.1470031738281,71.25 C368.2030029296875,71.25 360.95098876953125,63.99800109863281 360.95098876953125,55.05400085449219 C360.95098876953125,55.05400085449219 360.95098876953125,-81.95700073242188 360.95098876953125,-81.95700073242188"></path></g></g><g transform="matrix(1,0,0,1,960.0000610351562,540)" opacity="1" style="display: block;"><g opacity="1" transform="matrix(1,0,0,1,0,0)"><path fill="rgb(255,255,255)" fill-opacity="1" d=" M408.45098876953125,-3.75 C408.45098876953125,-3.75 322.20098876953125,-3.75 322.20098876953125,-3.75 C322.20098876953125,-3.75 322.20098876953125,-38.75 322.20098876953125,-38.75 C322.20098876953125,-38.75 408.45098876953125,-38.75 408.45098876953125,-38.75 C408.45098876953125,-38.75 408.45098876953125,-3.75 408.45098876953125,-3.75z"></path></g></g></g><g transform="matrix(1,0,0,1,960,538)" opacity="1" style="display: block;"><g opacity="1" transform="matrix(1,0,0,1,0,0)"><path fill="rgb(255,255,255)" fill-opacity="1" d=" M113.7030029296875,-41.25 C74.9530029296875,-41.25 47.452999114990234,-13.75 47.452999114990234,25 C47.452999114990234,63.75 74.9530029296875,91.25 113.7030029296875,91.25 C161.20199584960938,91.25 174.9530029296875,50 174.9530029296875,50 C174.9530029296875,50 137.4530029296875,50 137.4530029296875,50 C137.4530029296875,50 129.95199584960938,61.25 113.7030029296875,61.25 C97.4530029296875,61.25 86.2030029296875,50 84.9530029296875,35 C84.9530029296875,35 177.4530029296875,35 177.4530029296875,35 C177.4530029296875,35 178.7030029296875,31.25 178.7030029296875,22.5 C178.7030029296875,-13.75 151.20199584960938,-41.25 113.7030029296875,-41.25z M84.9530029296875,12.5 C88.7030029296875,-3.75 98.7030029296875,-12.5 113.7030029296875,-12.5 C128.7030029296875,-12.5 138.7030029296875,-3.75 142.4530029296875,12.5 C142.4530029296875,12.5 84.9530029296875,12.5 84.9530029296875,12.5z"></path></g></g><g transform="matrix(1,0,0,1,960,539.9989624023438)" opacity="1" style="display: block;"><g opacity="1" transform="matrix(1,0,0,1,0,0)"><path fill="rgb(255,255,255)" fill-opacity="1" d=" M457.29400634765625,13.550000190734863 C442.17498779296875,13.708999633789062 430.4330139160156,1.2599999904632568 430.0690002441406,-12.854999542236328 C429.64898681640625,-29.121999740600586 442.4419860839844,-41.37200164794922 457.760986328125,-41.249000549316406 C472.572998046875,-41.130001068115234 485.0360107421875,-29.118999481201172 484.9150085449219,-13.472000122070312 C484.8009948730469,1.2480000257492065 472.74200439453125,13.852999687194824 457.29400634765625,13.550000190734863z M446.0660095214844,-13.824000358581543 C446.0530090332031,-7.302000045776367 450.96600341796875,-2.441999912261963 457.56201171875,-2.4059998989105225 C464.2929992675781,-2.36899995803833 468.989990234375,-7.724999904632568 468.97900390625,-13.732000350952148 C468.96600341796875,-20.499000549316406 463.6809997558594,-25.27199935913086 457.4549865722656,-25.284000396728516 C451.3949890136719,-25.29599952697754 446.0409851074219,-20.513999938964844 446.0660095214844,-13.824000358581543z"></path></g></g><g transform="matrix(1,0,0,1,960,540)" opacity="1" style="display: block;"><g opacity="1" transform="matrix(1,0,0,1,0,0)"><path fill="rgb(255,255,255)" fill-opacity="1" d=" M484.77801513671875,21.54800033569336 C484.7770080566406,19.91200065612793 484.5679931640625,19.708999633789062 482.9620056152344,19.708999633789062 C479.1390075683594,19.708999633789062 475.3139953613281,19.711999893188477 471.4909973144531,19.711000442504883 C468.9630126953125,19.709999084472656 468.9949951171875,19.70800018310547 468.9580078125,22.30699920654297 C468.8919982910156,26.895999908447266 468.8949890136719,31.492000579833984 468.6510009765625,36.071998596191406 C468.4649963378906,39.555999755859375 466.47900390625,42.2130012512207 463.67498779296875,44.05400085449219 C460.13299560546875,46.37900161743164 456.2869873046875,46.82099914550781 452.3739929199219,44.8120002746582 C448.31201171875,42.72700119018555 446.0480041503906,39.42100143432617 445.95001220703125,34.832000732421875 C445.85400390625,30.31999969482422 445.9150085449219,25.802000045776367 445.9429931640625,21.288000106811523 C445.9490051269531,20.156999588012695 445.52801513671875,19.680999755859375 444.35699462890625,19.691999435424805 C440.12799072265625,19.732999801635742 435.89599609375,19.704999923706055 431.6659851074219,19.71299934387207 C430.1300048828125,19.715999603271484 429.92999267578125,19.929000854492188 429.927001953125,21.503999710083008 C429.9219970703125,24.024999618530273 429.92498779296875,26.548999786376953 429.92498779296875,29.06999969482422 C429.92498779296875,29.06999969482422 429.92498779296875,33.393001556396484 429.92498779296875,33.393001556396484 C430.0329895019531,35.48099899291992 430.1669921875,37.56700134277344 430.4989929199219,39.61899948120117 C431.60699462890625,46.46099853515625 435.1090087890625,51.94499969482422 440.60198974609375,56.215999603271484 C444.2030029296875,59.01499938964844 448.21099853515625,60.90599822998047 452.6709899902344,61.542999267578125 C461.6319885253906,62.823001861572266 469.6189880371094,60.70399856567383 476.302001953125,54.28799819946289 C481.8169860839844,48.99300003051758 484.5469970703125,42.52199935913086 484.7560119628906,34.970001220703125 C484.8800048828125,30.5 484.7820129394531,26.02199935913086 484.77801513671875,21.54800033569336z"></path></g></g><g transform="matrix(1,0,0,1,960,540)" opacity="1" style="display: block;"><g opacity="1" transform="matrix(1,0,0,1,0,0)"><path fill="rgb(255,255,255)" fill-opacity="1" d=" M483.1310119628906,80.43800354003906 C483.23699951171875,86.22100067138672 478.2099914550781,91.04299926757812 472.18701171875,90.87999725341797 C466.8399963378906,90.73600006103516 461.8169860839844,86.2239990234375 461.9460144042969,80.05500030517578 C462.06500244140625,74.3550033569336 466.6679992675781,69.40399932861328 473.1759948730469,69.68900299072266 C478.4259948730469,69.91899871826172 483.4519958496094,74.60399627685547 483.1310119628906,80.43800354003906z"></path></g></g></g></g></svg>