<?xml version="1.0" encoding="utf-8"?>
<!-- Generator: Adobe Illustrator 26.3.1, SVG Export Plug-In . SVG Version: 6.00 Build 0)  -->
<svg version="1.1" id="Layer_1" xmlns="http://www.w3.org/2000/svg" xmlns:xlink="http://www.w3.org/1999/xlink" x="0px" y="0px"
	 viewBox="0 0 1406 703" style="enable-background:new 0 0 1406 703;" xml:space="preserve">
<g style="opacity:0.4;">
	<path style="fill:none;stroke:#F5F5F5;stroke-width:0.75;stroke-miterlimit:10;" d="M3,703C3,318.991,318.991,3,703,3
		s700,315.991,700,700"/>
	<path style="fill:none;stroke:#E7F1F5;stroke-width:0.75;stroke-miterlimit:10;" d="M4.25,702.5
		C26.11,337.57,332.98,44.18,703,44.18s676.89,293.39,698.75,658.32"/>
	<path style="fill:none;stroke:#D9EDF6;stroke-width:0.75;stroke-miterlimit:10;" d="M7.95,702.5C49.46,356.92,347,85.35,703,85.35
		s653.54,271.57,695.05,617.15"/>
	<path style="fill:none;stroke:#CBE9F6;stroke-width:0.75;stroke-miterlimit:10;" d="M14.16,702.5
		C73.4,376.77,361.27,126.53,703,126.53s629.6,250.24,688.84,575.97"/>
	<path style="fill:none;stroke:#BDE5F7;stroke-width:0.75;stroke-miterlimit:10;" d="M22.96,702.5
		C98.01,397.1,375.82,167.71,703,167.71s604.99,229.39,680.04,534.79"/>
	<path style="fill:none;stroke:#B0E0F7;stroke-width:0.75;stroke-miterlimit:10;" d="M34.44,702.5
		C123.38,417.88,390.69,208.88,703,208.88s579.62,209,668.56,493.62"/>
	<path style="fill:none;stroke:#A2DCF7;stroke-width:0.75;stroke-miterlimit:10;" d="M48.74,702.5
		C149.62,439.13,405.96,250.06,703,250.06s553.38,189.07,654.26,452.44"/>
	<path style="fill:none;stroke:#94D8F8;stroke-width:0.75;stroke-miterlimit:10;" d="M66.05,702.5
		C176.87,460.82,421.68,291.24,703,291.24s526.13,169.58,636.95,411.26"/>
	<path style="fill:none;stroke:#86D4F8;stroke-width:0.75;stroke-miterlimit:10;" d="M86.6,702.5
		C205.3,482.95,437.94,332.41,703,332.41s497.7,150.54,616.4,370.09"/>
	<path style="fill:none;stroke:#78D0F9;stroke-width:0.75;stroke-miterlimit:10;" d="M110.71,702.5
		C235.13,505.53,454.87,373.59,703,373.59s467.87,131.94,592.29,328.91"/>
	<path style="fill:none;stroke:#6ACCF9;stroke-width:0.75;stroke-miterlimit:10;" d="M138.79,702.5
		C266.65,528.53,472.58,414.76,703,414.76s436.35,113.77,564.21,287.74"/>
	<path style="fill:none;stroke:#5CC8FA;stroke-width:0.75;stroke-miterlimit:10;" d="M171.47,702.5
		C300.28,551.97,491.3,455.94,703,455.94s402.72,96.03,531.53,246.56"/>
	<path style="fill:none;stroke:#4EC4FA;stroke-width:0.75;stroke-miterlimit:10;" d="M209.62,702.5
		C336.56,575.86,511.31,497.12,703,497.12s366.44,78.74,493.38,205.38"/>
	<path style="fill:none;stroke:#41BFFA;stroke-width:0.75;stroke-miterlimit:10;" d="M254.59,702.5
		C376.4,600.19,533.04,538.29,703,538.29s326.6,61.9,448.41,164.21"/>
	<path style="fill:none;stroke:#33BBFB;stroke-width:0.75;stroke-miterlimit:10;" d="M308.67,702.5
		C421.27,625,557.23,579.47,703,579.47S984.73,625,1097.33,702.5"/>
	<path style="fill:none;stroke:#25B7FB;stroke-width:0.75;stroke-miterlimit:10;" d="M376.34,702.5
		c97.75-52.19,209.01-81.85,326.66-81.85s228.91,29.66,326.66,81.85"/>
	<path style="fill:none;stroke:#17B3FC;stroke-width:0.75;stroke-miterlimit:10;" d="M469.09,702.5
		c73.28-26.32,152.05-40.68,233.91-40.68s160.63,14.36,233.91,40.68"/>
</g>
</svg>
