<?xml version="1.0" encoding="utf-8"?>
<!-- Generator: Adobe Illustrator 26.3.1, SVG Export Plug-In . SVG Version: 6.00 Build 0)  -->
<svg version="1.1" id="Layer_1" xmlns="http://www.w3.org/2000/svg" xmlns:xlink="http://www.w3.org/1999/xlink" x="0px" y="0px"
	 viewBox="0 0 238 82" style="enable-background:new 0 0 238 82;" xml:space="preserve">
<g id="Graph_Graphic">
	<path style="opacity:0.9;fill:#32363D;stroke:#FFFFFF;stroke-miterlimit:10;stroke-opacity:0.2;" d="M195.2,81.25h-182
		c-6.627,0-12-5.373-12-12v-36c0-6.627,5.373-12,12-12h182c6.627,0,12,5.373,12,12v36C207.2,75.877,201.827,81.25,195.2,81.25z"/>
	<g id="green-graph-group">
		<g>
			<polygon style="opacity:0.4;fill:#1A1A1A;" points="18.777,70.678 3.558,70.678 3.558,71.01 18.02,71.01 			"/>
			<polygon style="opacity:0.4;fill:#1A1A1A;" points="64.19,50.789 3.558,50.789 3.558,51.12 63.433,51.12 			"/>
			<polygon style="opacity:0.4;fill:#1A1A1A;" points="33.915,64.048 3.558,64.048 3.558,64.38 33.158,64.38 			"/>
			<polygon style="opacity:0.4;fill:#1A1A1A;" points="49.052,57.419 3.558,57.419 3.558,57.75 48.295,57.75 			"/>
			<polygon style="opacity:0.4;fill:#1A1A1A;" points="153.314,30.899 3.558,30.899 3.558,31.231 151.157,31.231 			"/>
			<polygon style="opacity:0.4;fill:#1A1A1A;" points="110.174,37.529 3.558,37.529 3.558,37.86 108.018,37.86 			"/>
			<polygon style="opacity:0.4;fill:#1A1A1A;" points="79.327,44.159 3.558,44.159 3.558,44.49 78.57,44.49 			"/>
			<polygon style="opacity:0.4;fill:#1A1A1A;" points="66.399,51.12 205.105,51.12 205.105,50.789 67.156,50.789 			"/>
			<polygon style="opacity:0.4;fill:#1A1A1A;" points="81.536,44.49 205.105,44.49 205.105,44.159 82.293,44.159 			"/>
			<polygon style="opacity:0.4;fill:#1A1A1A;" points="116.25,37.86 205.105,37.86 205.105,37.529 118.407,37.529 			"/>
			<path style="opacity:0.4;fill:#1A1A1A;" d="M158.915,30.928c0,0.104-0.014,0.204-0.031,0.303h46.221v-0.331h-46.193
				C158.912,30.909,158.915,30.918,158.915,30.928z"/>
			<polygon style="opacity:0.4;fill:#1A1A1A;" points="51.261,57.75 205.105,57.75 205.105,57.419 52.018,57.419 			"/>
			<polygon style="opacity:0.4;fill:#1A1A1A;" points="36.124,64.38 205.105,64.38 205.105,64.048 36.881,64.048 			"/>
			<polygon style="opacity:0.4;fill:#1A1A1A;" points="20.986,71.01 205.105,71.01 205.105,70.678 21.743,70.678 			"/>
		</g>
		<linearGradient id="SVGID_1_" gradientUnits="userSpaceOnUse" x1="11.2465" y1="72.1965" x2="227.672" y2="1.8756">
			<stop  offset="0" style="stop-color:#00D785;stop-opacity:0"/>
			<stop  offset="1" style="stop-color:#00D785"/>
		</linearGradient>
		<path style="fill:url(#SVGID_1_);" d="M229.233,6.98c0,1.037-0.84,1.877-1.877,1.877c-0.723,0-1.342-0.413-1.656-1.011
			l-66.812,22.813c0.013,0.089,0.027,0.177,0.027,0.269c0,1.037-0.84,1.877-1.877,1.877c-0.703,0-1.308-0.391-1.63-0.962
			L86.427,42.444c-0.088,0.954-0.882,1.704-1.86,1.704c-0.465,0-0.884-0.175-1.212-0.455L15.376,73.467
			c-0.15,0.886-0.916,1.562-1.845,1.562c-1.037,0-1.877-0.84-1.877-1.877s0.84-1.877,1.877-1.877c0.711,0,1.322,0.4,1.641,0.983
			l67.562-29.59c-0.027-0.128-0.043-0.26-0.043-0.395c0-1.037,0.84-1.877,1.877-1.877c0.649,0,1.221,0.33,1.558,0.831l69.068-10.615
			c0.151-0.885,0.917-1.56,1.845-1.56c0.499,0,0.95,0.198,1.287,0.516l67.191-22.943c0.166-0.866,0.926-1.522,1.841-1.522
			C228.393,5.103,229.233,5.943,229.233,6.98z"/>
		<path style="fill:#00D785;" d="M224.718,24.753h-43.2c-6.6,0-12-5.4-12-12v0c0-6.6,5.4-12,12-12l43.2,0c6.6,0,12,5.4,12,12v0
			C236.718,19.353,231.318,24.753,224.718,24.753z"/>
	</g>
	<path style="fill:#FFFFFF;" d="M183.367,14.594c0.246,0.823,0.922,1.383,2.279,1.383c1.143,0,1.678-0.477,1.678-1.106
		c0-0.608-0.293-1.018-2.318-1.437c-2.518-0.524-3.367-1.506-3.367-2.833c0-1.399,1.061-2.793,3.695-2.793
		c2.787,0,3.775,1.486,3.848,2.662h-1.992c-0.15-0.521-0.473-1.177-1.982-1.177c-1.258,0-1.545,0.564-1.545,0.994
		c0,0.601,0.402,0.952,2.121,1.289c3.055,0.604,3.652,1.737,3.652,3.039c0,1.562-1.234,2.862-3.973,2.872
		c-2.514,0.01-3.945-1.341-4.094-2.892H183.367z M184.501,8.621v-1.8h1.713v1.8H184.501z M184.656,18.685v-2.055h1.717v2.055
		H184.656z M190.732,17.333v-0.085c0-1.729,0.854-3.072,3.213-4.538c1.607-0.993,2.041-1.285,2.041-2.114
		c0-0.69-0.398-1.328-1.566-1.328c-1.072,0-1.555,0.631-1.713,1.613h-1.918c0.141-1.856,1.502-3.161,3.695-3.161
		c2.186,0,3.482,1.238,3.482,2.862c0,1.467-0.682,2.109-2.561,3.21c-1.205,0.711-2.018,1.333-2.285,1.959h5.24l-0.252,1.581H190.732
		z M199.952,17.333v-2.729h2.268v2.729H199.952z M204.077,10.413c0.168-1.145,1.082-2.693,3.658-2.693
		c2.383,0,3.49,1.217,3.49,2.623c0,1.25-0.887,1.732-1.348,1.881v0.028c0.668,0.208,1.732,0.795,1.732,2.318
		c0,1.705-1.334,2.96-3.887,2.96c-2.527,0-3.646-1.36-3.879-2.879h1.986c0.195,0.785,0.812,1.326,1.994,1.326
		c1.033,0,1.758-0.468,1.758-1.47c0-0.915-0.607-1.398-1.854-1.398h-0.773v-1.561h0.588c1.244,0,1.654-0.368,1.654-1.093
		c0-0.657-0.432-1.207-1.525-1.207c-1.1,0-1.506,0.576-1.643,1.165H204.077z M213.421,11.999c0-0.622,0-1.234-0.014-1.856h1.9
		c0.037,0.284,0.051,0.625,0.057,0.921c0.371-0.55,1.057-1.118,2.232-1.118c1.244,0,1.887,0.561,2.18,1.241
		c0.379-0.561,1.047-1.241,2.438-1.241c1.479,0,2.654,0.875,2.654,3.012v4.375h-1.953V13.01c0-0.693-0.236-1.536-1.285-1.536
		c-0.92,0-1.494,0.596-1.494,1.897v3.961h-1.963v-4.348c0-0.758-0.27-1.511-1.289-1.511c-1.059,0-1.5,0.789-1.5,1.933v3.925h-1.963
		V11.999z"/>
	<g>
		<path style="fill:#2B2F36;" d="M126.95,80.5h-113c-6.627,0-12-5.373-12-12v-10h113c6.627,0,12,5.373,12,12V80.5z"/>
		<path style="fill:#666666;" d="M12.972,72.982v-7h3c0.681,0,1.23,0.185,1.65,0.555s0.63,0.855,0.63,1.455
			c0,0.46-0.135,0.857-0.405,1.19c-0.27,0.333-0.631,0.563-1.085,0.689l1.57,3.11h-0.85l-1.5-3.01h-2.24v3.01H12.972z
			 M15.923,66.673h-2.18v2.649h2.18c0.467,0,0.844-0.121,1.13-0.365c0.287-0.243,0.431-0.564,0.431-0.965
			c0-0.399-0.144-0.72-0.431-0.96C16.766,66.792,16.389,66.673,15.923,66.673z M23.702,72.452c-0.279,0.207-0.571,0.362-0.875,0.465
			c-0.303,0.104-0.635,0.155-0.994,0.155c-0.36,0-0.699-0.066-1.016-0.2c-0.316-0.133-0.59-0.316-0.82-0.55
			c-0.229-0.233-0.411-0.508-0.545-0.825c-0.133-0.316-0.199-0.658-0.199-1.024c0-0.36,0.064-0.697,0.194-1.01
			c0.13-0.313,0.306-0.587,0.525-0.82s0.481-0.417,0.785-0.55c0.303-0.134,0.625-0.2,0.965-0.2c0.333,0,0.645,0.066,0.935,0.2
			c0.29,0.133,0.54,0.316,0.75,0.55s0.377,0.507,0.5,0.82c0.124,0.312,0.186,0.649,0.186,1.01v0.229h-4.11
			c0.054,0.494,0.257,0.903,0.61,1.23c0.354,0.326,0.776,0.49,1.27,0.49c0.26,0,0.514-0.04,0.76-0.12
			c0.247-0.08,0.454-0.193,0.62-0.34L23.702,72.452z M21.702,68.542c-0.433,0-0.808,0.147-1.125,0.44
			c-0.316,0.293-0.508,0.67-0.574,1.13h3.35c-0.066-0.439-0.255-0.812-0.565-1.115C22.477,68.694,22.116,68.542,21.702,68.542z
			 M26.043,71.862v-3.26h-1.08v-0.63h1.08v-1.271l0.73-0.189v1.46h1.51v0.63h-1.51v3.07c0,0.267,0.06,0.458,0.18,0.574
			c0.12,0.117,0.316,0.176,0.59,0.176c0.14,0,0.265-0.011,0.375-0.03c0.11-0.021,0.229-0.054,0.355-0.101v0.65
			c-0.127,0.047-0.269,0.08-0.426,0.1c-0.156,0.021-0.309,0.03-0.455,0.03c-0.433,0-0.767-0.104-1-0.31
			C26.159,72.555,26.043,72.256,26.043,71.862z M30.283,67.972v3.02c0,0.44,0.127,0.79,0.38,1.05
			c0.254,0.261,0.594,0.391,1.021,0.391c0.3,0,0.568-0.068,0.805-0.205s0.429-0.328,0.575-0.575v-3.68h0.74v5.01h-0.74v-0.58
			c-0.193,0.227-0.422,0.396-0.686,0.51c-0.263,0.113-0.558,0.17-0.885,0.17c-0.573,0-1.04-0.18-1.399-0.54
			c-0.36-0.359-0.54-0.826-0.54-1.399v-3.17H30.283z M35.562,72.982v-5.01h0.74v0.71c0.146-0.26,0.34-0.462,0.58-0.605
			c0.24-0.143,0.513-0.215,0.819-0.215c0.094,0,0.177,0.005,0.25,0.015c0.074,0.011,0.147,0.029,0.221,0.056v0.68
			c-0.087-0.026-0.174-0.048-0.26-0.064c-0.087-0.017-0.174-0.025-0.261-0.025c-0.307,0-0.576,0.089-0.81,0.265
			c-0.233,0.177-0.414,0.432-0.54,0.766v3.43H35.562z M39.522,72.982v-5.01h0.74v0.59c0.193-0.227,0.423-0.398,0.689-0.515
			c0.267-0.117,0.563-0.176,0.891-0.176c0.566,0,1.03,0.181,1.39,0.54c0.36,0.36,0.54,0.827,0.54,1.4v3.17h-0.729v-3.02
			c0-0.44-0.127-0.79-0.381-1.051c-0.253-0.26-0.593-0.39-1.02-0.39c-0.3,0-0.568,0.066-0.805,0.2
			c-0.237,0.133-0.429,0.323-0.575,0.569v3.69H39.522z M47.933,70.472c0-0.36,0.066-0.7,0.199-1.021
			c0.134-0.319,0.315-0.597,0.545-0.83c0.23-0.233,0.502-0.416,0.815-0.55c0.313-0.133,0.646-0.2,1-0.2s0.685,0.067,0.995,0.2
			c0.31,0.134,0.58,0.316,0.81,0.55c0.23,0.233,0.412,0.511,0.545,0.83c0.134,0.32,0.2,0.66,0.2,1.021c0,0.366-0.066,0.71-0.2,1.029
			c-0.133,0.32-0.314,0.598-0.545,0.83c-0.229,0.233-0.5,0.417-0.81,0.551c-0.311,0.133-0.642,0.199-0.995,0.199
			s-0.687-0.066-1-0.199c-0.313-0.134-0.585-0.317-0.815-0.551c-0.229-0.232-0.411-0.51-0.545-0.83
			C48,71.182,47.933,70.839,47.933,70.472z M50.493,72.423c0.253,0,0.491-0.051,0.715-0.15s0.417-0.238,0.58-0.415
			s0.292-0.383,0.385-0.62c0.094-0.236,0.141-0.491,0.141-0.765s-0.047-0.528-0.141-0.766c-0.093-0.236-0.222-0.441-0.385-0.614
			c-0.163-0.174-0.356-0.311-0.58-0.41c-0.224-0.101-0.462-0.15-0.715-0.15s-0.491,0.05-0.715,0.15
			c-0.224,0.1-0.417,0.236-0.58,0.41c-0.163,0.173-0.294,0.378-0.39,0.614c-0.097,0.237-0.146,0.492-0.146,0.766
			s0.047,0.528,0.14,0.765c0.094,0.237,0.222,0.443,0.386,0.62c0.163,0.177,0.358,0.315,0.585,0.415S50.24,72.423,50.493,72.423z
			 M54.572,72.982v-5.01h0.74v0.59c0.193-0.227,0.423-0.398,0.689-0.515c0.267-0.117,0.563-0.176,0.891-0.176
			c0.566,0,1.03,0.181,1.39,0.54c0.36,0.36,0.54,0.827,0.54,1.4v3.17h-0.729v-3.02c0-0.44-0.127-0.79-0.381-1.051
			c-0.253-0.26-0.593-0.39-1.02-0.39c-0.3,0-0.568,0.066-0.805,0.2c-0.237,0.133-0.429,0.323-0.575,0.569v3.69H54.572z
			 M63.352,72.982v-7h0.771v7H63.352z M66.022,72.982v-5.01h0.74v0.59c0.193-0.227,0.423-0.398,0.689-0.515
			c0.267-0.117,0.563-0.176,0.891-0.176c0.566,0,1.03,0.181,1.39,0.54c0.36,0.36,0.54,0.827,0.54,1.4v3.17h-0.729v-3.02
			c0-0.44-0.127-0.79-0.381-1.051c-0.253-0.26-0.593-0.39-1.02-0.39c-0.3,0-0.568,0.066-0.805,0.2
			c-0.237,0.133-0.429,0.323-0.575,0.569v3.69H66.022z M73.343,72.982l-2.17-5.01h0.82l1.71,4.05l1.71-4.05h0.79l-2.16,5.01H73.343z
			 M81.402,72.452c-0.279,0.207-0.571,0.362-0.875,0.465c-0.303,0.104-0.635,0.155-0.994,0.155c-0.36,0-0.699-0.066-1.016-0.2
			c-0.316-0.133-0.59-0.316-0.82-0.55c-0.229-0.233-0.411-0.508-0.545-0.825c-0.133-0.316-0.199-0.658-0.199-1.024
			c0-0.36,0.064-0.697,0.194-1.01c0.13-0.313,0.306-0.587,0.525-0.82s0.481-0.417,0.785-0.55c0.303-0.134,0.625-0.2,0.965-0.2
			c0.333,0,0.645,0.066,0.935,0.2c0.29,0.133,0.54,0.316,0.75,0.55s0.377,0.507,0.5,0.82c0.124,0.312,0.186,0.649,0.186,1.01v0.229
			h-4.11c0.054,0.494,0.257,0.903,0.61,1.23c0.354,0.326,0.776,0.49,1.27,0.49c0.26,0,0.514-0.04,0.76-0.12
			c0.247-0.08,0.454-0.193,0.62-0.34L81.402,72.452z M79.402,68.542c-0.433,0-0.808,0.147-1.125,0.44
			c-0.316,0.293-0.508,0.67-0.574,1.13h3.35c-0.066-0.439-0.255-0.812-0.565-1.115C80.178,68.694,79.816,68.542,79.402,68.542z
			 M82.862,72.292l0.45-0.479c0.227,0.213,0.481,0.378,0.765,0.495c0.283,0.116,0.571,0.175,0.865,0.175
			c0.399,0,0.727-0.083,0.979-0.25c0.254-0.167,0.38-0.383,0.38-0.65c0-0.213-0.074-0.381-0.225-0.505
			c-0.15-0.123-0.385-0.208-0.705-0.255l-0.87-0.12c-0.5-0.073-0.871-0.222-1.115-0.444c-0.243-0.224-0.364-0.525-0.364-0.905
			c0-0.42,0.177-0.769,0.529-1.045c0.354-0.276,0.804-0.415,1.351-0.415c0.359,0,0.701,0.054,1.024,0.16s0.639,0.273,0.945,0.5
			l-0.39,0.5c-0.28-0.187-0.552-0.327-0.815-0.42c-0.264-0.094-0.531-0.141-0.805-0.141c-0.34,0-0.618,0.077-0.835,0.23
			s-0.325,0.354-0.325,0.6c0,0.214,0.073,0.379,0.22,0.495c0.146,0.117,0.384,0.198,0.71,0.245l0.87,0.12
			c0.5,0.066,0.875,0.215,1.125,0.444c0.25,0.23,0.375,0.535,0.375,0.915c0,0.214-0.052,0.415-0.154,0.605
			c-0.104,0.19-0.247,0.354-0.431,0.49s-0.398,0.243-0.645,0.319c-0.247,0.077-0.514,0.115-0.8,0.115
			c-0.414,0-0.802-0.068-1.165-0.205C83.443,72.73,83.129,72.539,82.862,72.292z M88.852,71.862v-3.26h-1.08v-0.63h1.08v-1.271
			l0.73-0.189v1.46h1.51v0.63h-1.51v3.07c0,0.267,0.06,0.458,0.18,0.574c0.12,0.117,0.316,0.176,0.59,0.176
			c0.14,0,0.265-0.011,0.375-0.03c0.11-0.021,0.229-0.054,0.355-0.101v0.65c-0.127,0.047-0.269,0.08-0.426,0.1
			c-0.156,0.021-0.309,0.03-0.455,0.03c-0.433,0-0.767-0.104-1-0.31C88.969,72.555,88.852,72.256,88.852,71.862z M92.382,72.982
			v-5.01h0.74v0.55c0.187-0.213,0.403-0.375,0.649-0.485c0.247-0.109,0.521-0.165,0.82-0.165c0.347,0,0.658,0.082,0.936,0.245
			c0.276,0.164,0.491,0.385,0.645,0.665c0.207-0.307,0.455-0.535,0.745-0.685c0.29-0.15,0.615-0.226,0.975-0.226
			c0.54,0,0.981,0.181,1.325,0.54c0.344,0.36,0.516,0.827,0.516,1.4v3.17h-0.73v-3.02c0-0.44-0.117-0.79-0.35-1.051
			c-0.233-0.26-0.551-0.39-0.95-0.39c-0.273,0-0.523,0.07-0.75,0.21s-0.42,0.344-0.58,0.61c0.013,0.073,0.024,0.148,0.035,0.225
			c0.01,0.077,0.015,0.158,0.015,0.245v3.17h-0.729v-3.02c0-0.44-0.117-0.79-0.351-1.051c-0.233-0.26-0.547-0.39-0.939-0.39
			c-0.268,0-0.509,0.062-0.726,0.185c-0.217,0.124-0.401,0.306-0.555,0.545v3.73H92.382z M105.692,72.452
			c-0.279,0.207-0.571,0.362-0.875,0.465c-0.303,0.104-0.635,0.155-0.994,0.155c-0.36,0-0.699-0.066-1.016-0.2
			c-0.316-0.133-0.59-0.316-0.82-0.55c-0.229-0.233-0.411-0.508-0.545-0.825c-0.133-0.316-0.199-0.658-0.199-1.024
			c0-0.36,0.064-0.697,0.194-1.01c0.13-0.313,0.306-0.587,0.525-0.82s0.481-0.417,0.785-0.55c0.303-0.134,0.625-0.2,0.965-0.2
			c0.333,0,0.645,0.066,0.935,0.2c0.29,0.133,0.54,0.316,0.75,0.55s0.377,0.507,0.5,0.82c0.124,0.312,0.186,0.649,0.186,1.01v0.229
			h-4.11c0.054,0.494,0.257,0.903,0.61,1.23c0.354,0.326,0.776,0.49,1.27,0.49c0.26,0,0.514-0.04,0.76-0.12
			c0.247-0.08,0.454-0.193,0.62-0.34L105.692,72.452z M103.692,68.542c-0.433,0-0.808,0.147-1.125,0.44
			c-0.316,0.293-0.508,0.67-0.574,1.13h3.35c-0.066-0.439-0.255-0.812-0.565-1.115C104.468,68.694,104.106,68.542,103.692,68.542z
			 M107.612,72.982v-5.01h0.74v0.59c0.193-0.227,0.423-0.398,0.689-0.515c0.267-0.117,0.563-0.176,0.891-0.176
			c0.566,0,1.03,0.181,1.39,0.54c0.36,0.36,0.54,0.827,0.54,1.4v3.17h-0.729v-3.02c0-0.44-0.127-0.79-0.381-1.051
			c-0.253-0.26-0.593-0.39-1.02-0.39c-0.3,0-0.568,0.066-0.805,0.2c-0.237,0.133-0.429,0.323-0.575,0.569v3.69H107.612z
			 M114.022,71.862v-3.26h-1.08v-0.63h1.08v-1.271l0.73-0.189v1.46h1.51v0.63h-1.51v3.07c0,0.267,0.06,0.458,0.18,0.574
			c0.12,0.117,0.316,0.176,0.59,0.176c0.14,0,0.265-0.011,0.375-0.03c0.11-0.021,0.229-0.054,0.355-0.101v0.65
			c-0.127,0.047-0.269,0.08-0.426,0.1c-0.156,0.021-0.309,0.03-0.455,0.03c-0.433,0-0.767-0.104-1-0.31
			C114.138,72.555,114.022,72.256,114.022,71.862z"/>
	</g>
</g>
</svg>
