<?xml version="1.0" encoding="UTF-8"?>
<!-- Copyrights - All Rights Reserved: Affluent.co -->
<svg enable-background="new 0 0 2740.807373 634.362122" version="1.1" viewBox="0 0 2740.8 634.36" xml:space="preserve" xmlns="http://www.w3.org/2000/svg">
	<g fill="none" opacity=".4" stroke-miterlimit="10" stroke-width=".75">
		<path d="m0.27762 362.28c81.852-90.143 208.98-199.6 383-234 271.83-53.729 399.12 126.9 804 228 133.34 33.296 493.45 107.07 893.93 0 315.21-84.274 536.5-248.78 659.07-356" stroke="#00B2FF"/>
		<path d="m2740.6 16.63c-42.5 31.08-95.19 67.5-157.28 106.03-0.01001 0.010002-0.019775 0.010002-0.029785 0.020004-1.5801 0.98-3.1702 1.97-4.76 2.95-0.030029 0.010002-0.050049 0.029999-0.080078 0.040001-0.01001 0.010002-0.02002 0.019997-0.040039 0.029999-0.78003 0.48-1.5601 0.96-2.3401 1.44l-0.01001 0.010002c-0.009766 0-0.019775 0.009995-0.029785 0.019997-0.76001 0.47-1.52 0.92999-2.28 1.4-0.030029 0.01001-0.050049 0.020004-0.060059 0.029999-0.73999 0.46001-1.48 0.91-2.22 1.37h-0.01001c-0.78003 0.48-1.5601 0.95999-2.3501 1.44-0.01001 0.009995-0.01001 0.009995-0.02002 0.009995-0.75 0.46001-1.49 0.92999-2.25 1.39h-0.01001s-0.01001 0-0.01001 0.009995c-0.76001 0.46001-1.5298 0.93001-2.2998 1.39l-0.01001 0.01001h-0.01001c-0.75 0.47-1.52 0.92999-2.27 1.39-0.73999 0.45999-1.49 0.89999-2.24 1.37h-0.01001l-0.01001 0.01001c-0.76001 0.45999-1.53 0.92-2.3 1.39h-0.01001l-0.01001 0.009995c-0.76001 0.45-1.51 0.91-2.27 1.36-0.73999 0.45999-1.5 0.89999-2.24 1.36h-0.01001l-0.01001 0.009995c-0.76001 0.45-1.5 0.90001-2.26 1.36h-0.01001c-0.75 0.45-1.5 0.91-2.26 1.36h-0.01001c-0.7898 0.47-1.5898 0.95-2.3799 1.42-0.70996 0.43001-1.4099 0.85001-2.1201 1.27h-0.01001c-67.4 40.17-144.46 81.84-230.32 121.57-45.05 20.85-89.33 40.81-136.57 59.21-0.02002 0.01001-0.040039 0.019989-0.060059 0.019989-5.1899 2.03-10.41 4.03-15.68 6.02-0.02002 0-0.030029 0.009979-0.040039 0.019989-2.5701 0.95999-5.1599 1.92-7.75 2.87-0.01001 0.01001-0.02002 0.02002-0.040039 0.02002-2.6199 0.97998-5.23 1.94-7.8699 2.89h-0.01001c-0.01001 0-0.02002 0.01001-0.030029 0.01001-2.6301 0.95999-5.28 1.91-7.9399 2.86-2.6301 0.94-5.28 1.87-7.9502 2.81 0 0-0.009766 0.01001-0.019775 0.01001-2.6301 0.91-5.29 1.83-7.9502 2.74-2.6499 0.91-5.3298 1.82-8.01 2.71 0 0.009979-0.01001 0.009979-0.01001 0.009979h-0.01001c-2.6599 0.89002-5.3198 1.78-8 2.65-2.6799 0.87997-5.3699 1.76-8.0798 2.62h-0.01001c-2.6799 0.87-5.3801 1.73-8.0801 2.57h-0.01001-0.01001c-2.7 0.86002-5.4199 1.7-8.1499 2.53-2.71 0.84003-5.4399 1.66-8.1799 2.48-0.16016 0.050018-0.33008 0.10001-0.48999 0.14999-2.5901 0.77002-5.1802 1.54-7.76 2.3h-0.01001c-2.75 0.79999-5.49 1.6-8.24 2.38-2.76 0.78998-5.52 1.57-8.27 2.34-2.8101 0.78998-5.6301 1.56-8.4301 2.33h-0.01001c-380.05 103.74-731.72 31.29-871.94-9.35-157.54-45.66-265.22-97.42-366.68-145.35-79.31-37.48-148.51-69.67-219.74-87.76-0.069946-0.020004-0.12994-0.029999-0.19995-0.050003-4.91-1.26-9.84-2.43-14.78-3.54-0.039978-0.010002-0.089966-0.020004-0.13-0.029999-0.059998-0.020004-0.10998-0.029999-0.16998-0.040001-2.39-0.54-4.77-1.05-7.17-1.55-0.01001 0-0.02002-0.009995-0.040039-0.009995-2.48-0.53001-4.96-1.03-7.45-1.5-0.009949-0.010002-0.009949-0.010002-0.019958-0.010002h-0.01001c-2.43-0.48-4.87-0.93-7.32-1.37h-0.01001-0.019958c-2.33-0.42-4.6801-0.83-7.02-1.21h-0.01001-0.01001c-2.34-0.39-4.71-0.76-7.07-1.11h-0.01001-0.009949c-2.36-0.36-4.73-0.69-7.1-1.01h-0.019958-0.01001c-2.33-0.32-4.67-0.60999-7.02-0.89h-0.01001-0.01001c-2.32-0.28-4.65-0.54-6.99-0.78-2.33-0.25-4.67-0.47-7.02-0.68-2.34-0.21-4.7-0.4-7.06-0.57-2.34-0.18-4.69-0.33-7.05-0.47h-0.01001c-2.36-0.14-4.72-0.26-7.1-0.35-2.39-0.11-4.78-0.2-7.19-0.26h-0.01001c-2.51-0.07-5.03-0.12-7.56-0.14999-2.32-0.030006-4.64-0.040001-6.98-0.020004h-0.01001c-29.85 0.099998-61 3.04-94.18 9.32-157.69 29.92-279.17 119.73-364.34 201.81" stroke="#02B3F9"/>
		<path d="m2740.6 31.69c-44.12 26.84-97.75 58.32-159.65 92.6-0.78003 0.43-1.5701 0.87-2.3601 1.3-0.049805 0.029999-0.089844 0.050003-0.13989 0.080002-0.01001 0.010002-0.02002 0.019997-0.040039 0.029999-1.6499 0.91-3.3101 1.83-4.97 2.74l-0.01001 0.009995c-0.02002 0.009995-0.050049 0.020004-0.070068 0.040009-0.75 0.40999-1.51 0.81999-2.26 1.24-0.01001 0-0.02002 0-0.02002 0.01001-0.77002 0.42999-1.5398 0.84999-2.3098 1.27 0 0-0.01001 0.01001-0.02002 0.01001-0.79004 0.45-1.5901 0.87999-2.3801 1.32h-0.01001c-0.78003 0.42-1.55 0.85001-2.3298 1.29h-0.02002s0 0.009995-0.01001 0.009995c-0.78003 0.42999-1.5701 0.86-2.3501 1.29-0.01001 0-0.01001 0-0.02002 0.01001-0.78003 0.42-1.5701 0.84999-2.3499 1.28-0.78003 0.42999-1.5601 0.86-2.3401 1.29h-0.01001c-0.80005 0.43001-1.5901 0.87001-2.3899 1.3-0.78003 0.43001-1.55 0.85001-2.3301 1.27l-0.01001 0.009995h-0.01001c-0.76001 0.43001-1.54 0.84-2.3 1.26-0.78003 0.42001-1.5601 0.85001-2.3398 1.27-0.78003 0.42-1.55 0.85001-2.3301 1.26h-0.01001c-0.82007 0.45-1.6401 0.89999-2.46 1.34h-0.01001c-0.70996 0.39999-1.4399 0.78999-2.1501 1.18h-0.01001c-69.73 37.77-148.55 78.27-234.92 119.27-47.08 22.35-90.09 44.01-136.48 64.32-0.02002 0.01001-0.030029 0.01001-0.050049 0.02002-2.55 1.11-5.1199 2.23-7.6899 3.34-0.02002 0-0.030029 0.009979-0.040039 0.019989-5.01 2.15-10.06 4.29-15.16 6.41-0.030029 0.01001-0.060059 0.029999-0.090088 0.040009-0.02002 0-0.040039 0.009979-0.060059 0.019989-2.6099 1.08-5.23 2.17-7.8699 3.24-0.01001 0.02002-0.030029 0.029999-0.040039 0.02002-2.54 1.04-5.0901 2.07-7.6599 3.09-2.5801 1.04-5.1802 2.07-7.8 3.1-0.01001 0-0.02002 0-0.030029 0.009979h-0.01001c-2.5901 1.01-5.1799 2.02-7.8 3.02-2.5999 1-5.22 1.99-7.8599 2.98-2.5901 0.97-5.2002 1.94-7.8301 2.91-0.01001 0-0.02002 0-0.02002 0.01001-2.6101 0.94-5.25 1.9-7.8999 2.85-2.6201 0.94-5.27 1.88-7.9302 2.8l-0.01001 0.01001h-0.01001c-2.6399 0.92999-5.2998 1.85-7.98 2.76h-0.01001l-0.01001 0.01001c-2.6399 0.89999-5.3098 1.8-7.99 2.69h-0.01001c-0.97998 0.32999-1.96 0.66-2.95 0.98001-1.71 0.56-3.4099 1.12-5.1199 1.67-2.71 0.89002-5.4202 1.76-8.1301 2.62-2.71 0.86002-5.4099 1.71-8.12 2.55h-0.009888c-2.76 0.85001-5.51 1.7-8.28 2.54-373.99 113.38-734.53 39.92-885.72-9.38-158.19-51.59-258.26-104.46-363.06-155.57-75.54-36.85-142.87-67.88-211.77-86.22h-0.009949c-2.47-0.66-4.94-1.31-7.41-1.93-0.039978-0.010002-0.089966-0.020004-0.13-0.029999-0.059998-0.020004-0.10998-0.029999-0.16998-0.040001-5.04-1.27-10.1-2.48-15.16-3.61-0.039978-0.010002-0.089966-0.019997-0.12994-0.029999-2.41-0.53-4.82-1.05-7.23-1.55h-0.01001c-0.009949 0-0.029968-0.010002-0.039978-0.010002-2.43-0.51-4.87-1-7.31-1.47-0.030029-0.010002-0.059998-0.010002-0.090027-0.020004-2.44-0.47-4.89-0.93-7.34-1.37-2.37-0.42001-4.75-0.83-7.13-1.22-2.4-0.4-4.81-0.78-7.22-1.14-0.009949-0.010002-0.019958 0-0.019958 0-0.01001 0-0.01001 0-0.02002-0.010002-2.34-0.34-4.69-0.68-7.05-1h-0.01001-0.01001c-2.32-0.32-4.65-0.62-6.98-0.88-0.01001-0.010002-0.01001-0.010002-0.02002-0.010002h-0.029999c-2.37-0.3-4.74-0.57-7.13-0.82-2.36-0.25-4.72-0.48-7.09-0.7h-0.009979c-2.36-0.21999-4.71-0.41-7.08-0.59h-0.009979c-2.37-0.19-4.76-0.35-7.14-0.49h-0.01001c-2.4-0.16-4.81-0.29-7.22-0.41h-0.009979c-2.52-0.11-5.05-0.21-7.58-0.28h-0.009979c-2.31-0.080002-4.62-0.14-6.95-0.17-32.89-0.57-67.21 2.17-103.81 8.8-143.95 26.14-259.62 100.78-345.99 174.38" stroke="#04B5F3"/>
		<path d="m2740.6 45.46c-45.6 22.91-100.12 49.97-161.94 80.41h-0.01001c-0.85986 0.43-1.71 0.85001-2.5801 1.27l-0.01001 0.010002c-0.009766 0-0.019775 0.009995-0.029785 0.019997-0.86011 0.42-1.7202 0.84-2.5901 1.27l-0.01001 0.009995c-0.02002 0.009995-0.050049 0.020004-0.070068 0.040009-1.6099 0.76999-3.22 1.57-4.8398 2.37-0.75 0.37-1.51 0.73999-2.27 1.13-0.02002 0-0.030029 0.009995-0.050049 0.019989-0.83008 0.39-1.6499 0.81-2.49 1.22-0.01001 0-0.02002 0.01001-0.030029 0.01001 0 0 0 0.009995-0.01001 0.009995-0.83008 0.39999-1.6499 0.81-2.48 1.21 0 0-0.01001 0-0.02002 0.01001-0.79004 0.39999-1.6001 0.78-2.3899 1.18-0.82007 0.40001-1.6301 0.8-2.4502 1.2h-0.01001c-0.7898 0.40001-1.5698 0.78001-2.3699 1.18h-0.02002l-0.01001 0.009995c-0.81006 0.40001-1.6299 0.8-2.45 1.2-0.80005 0.39999-1.6001 0.78999-2.4001 1.18-0.7998 0.39-1.5898 0.78999-2.3899 1.17h-0.01001c-0.80005 0.40001-1.5901 0.79001-2.3899 1.18-0.80005 0.39999-1.6001 0.78999-2.4001 1.18-0.83984 0.42-1.6899 0.83-2.54 1.25-0.72998 0.36-1.46 0.72-2.2 1.08-72.06 35.38-152.65 74.72-239.57 116.97-49.12 23.87-90.88 47.21-136.44 69.38h-0.01001c-2.48 1.21-4.96 2.42-7.47 3.61-0.01001 0.01001-0.02002 0.02002-0.040039 0.02002-2.4399 1.18-4.8999 2.34-7.3699 3.52-0.030029 0.01001-0.060059 0.029999-0.090088 0.040009-0.02002 0-0.040039 0.009979-0.060059 0.019989-5 2.35-10.05 4.7-15.19 7.03-0.02002 0-0.030029 0.01001-0.050049 0.019989-0.01001 0.01001-0.030029 0.01001-0.049805 0.02002-2.52 1.15-5.0601 2.29-7.6201 3.43-0.01001 0-0.01001 0.01001-0.02002 0.01001-2.5 1.11-5.02 2.21-7.5601 3.32-0.01001 0-0.02002 0.01001-0.030029 0.01001s-0.01001 0.01001-0.019775 0.01001c-2.51 1.08-5.05 2.18-7.6001 3.26-2.53 1.08-5.0901 2.15-7.6599 3.21-0.01001 0.009979-0.01001 0.019989-0.02002 0.009979-2.54 1.06-5.1001 2.11-7.6802 3.16-2.5598 1.04-5.1299 2.07-7.73 3.08l-0.01001 0.009979c-2.5698 1.03-5.1699 2.04-7.79 3.05-2.5798 0.98999-5.1799 1.98-7.8098 2.98l-0.01001 0.009979c-2.5901 0.95999-5.2 1.93-7.8401 2.89-1.8 0.66-3.6199 1.32-5.45 1.98-0.83008 0.30002-1.6401 0.59-2.47 0.87003v0.009979h-0.01001c-2.6602 0.95999-5.3 1.89-7.9601 2.8v0.009979h-0.01001c-2.6599 0.94-5.3099 1.86-7.97 2.76h-0.01001c-2.72 0.92999-5.4299 1.85-8.1499 2.75-367.91 122.6-737.33 49.08-899.53-9.2-158.9-57.09-251.31-111.45-359.44-165.78-71.74-36.04-136.97-65.96-203.41-84.47h-0.01001c-2.57-0.71999-5.14-1.42-7.71-2.1-0.01001 0-0.02002-0.009995-0.040039-0.009995-2.65-0.7-5.3-1.38-7.95-2.05-0.039978-0.010002-0.089966-0.019997-0.12994-0.029999-5.1-1.28-10.2-2.48-15.32-3.61-2.44-0.55-4.87-1.07-7.32-1.57-0.02002 0-0.030029-0.010002-0.049988-0.010002-0.030029-0.010002-0.070007-0.019997-0.11005-0.019997-2.44-0.51-4.88-1-7.32-1.47h-0.009949c-0.01001 0-0.01001 0-0.02002-0.010002-2.36-0.45-4.72-0.9-7.09-1.32h-0.019958-0.01001c-2.45-0.45-4.91-0.87-7.37-1.27-0.029999-0.020004-0.050018-0.020004-0.070007-0.020004-2.36-0.39-4.71-0.76-7.08-1.1-0.009979-0.010002-0.009979-0.010002-0.019989-0.010002s-0.01001 0-0.019989 0c-2.36-0.36-4.74-0.71-7.12-1.03h-0.019989c-2.36-0.33-4.74-0.63-7.11-0.92h-0.01001c-2.38-0.3-4.77-0.57-7.16-0.83h-0.01001c-2.38-0.26-4.76-0.5-7.16-0.72h-0.01001c-2.37-0.23-4.76-0.44-7.14-0.62h-0.009979c-2.41-0.2-4.83-0.38-7.26-0.53001h-0.01001c-2.54-0.17-5.08-0.32-7.64-0.44h-0.01001c-2.3-0.12-4.63-0.22-6.95-0.3h-0.009979c-35.96-1.3-73.44 1.16-113.46 8.09-131.84 22.89-241.56 85.25-327.63 150.54" stroke="#05B6ED"/>
		<path d="m2740.6 58.16c-47 19.25-102.37 42.31-164.22 69.27-0.01001 0-0.01001 0.009995-0.02002 0.009995-0.85986 0.37-1.74 0.75001-2.6099 1.13-0.030029 0.01001-0.050049 0.020004-0.060059 0.029999-0.86011 0.37001-1.73 0.75-2.5901 1.13-0.01001 0-0.02002 0-0.02002 0.01001-0.84985 0.37-1.71 0.73999-2.5598 1.12-1.6201 0.7-3.25 1.42-4.8801 2.13-0.01001 0.009995-0.02002 0.009995-0.02002 0.009995-0.01001 0-0.02002 0.009995-0.030029 0.009995-0.88989 0.39-1.78 0.78-2.6699 1.17 0 0-0.01001 0-0.02002 0.01001h-0.01001c-0.83984 0.37-1.6699 0.73-2.5 1.1-0.01001 0-0.01001 0-0.02002 0.01001h-0.01001c-0.80005 0.36-1.5999 0.7-2.3999 1.06-0.84009 0.37-1.6699 0.73-2.51 1.1-0.01001 0.01001-0.01001 0.01001-0.02002 0.01001l-0.01001 0.009995c-0.83008 0.36-1.6599 0.73-2.49 1.09-0.83008 0.37001-1.6599 0.73001-2.49 1.1h-0.01001c-0.83008 0.37-1.6399 0.73-2.47 1.09h-0.01001c-0.81006 0.37001-1.6001 0.72-2.4099 1.08h-0.02002l-0.01001 0.009995c-0.82007 0.36-1.6301 0.72-2.4502 1.09h-0.009766c-0.81006 0.34999-1.6201 0.70999-2.4302 1.08h-0.01001c-0.87988 0.37999-1.75 0.76999-2.6299 1.17h-0.01001c-0.73999 0.31999-1.49 0.65999-2.24 0.98999-74.39 33.01-156.77 71.19-244.25 114.64-51.15 25.41-91.66 50.36-136.39 74.4h-0.01001c-2.4299 1.31-4.8799 2.62-7.3398 3.93h-0.01001c-0.01001 0-0.02002 0.01001-0.030029 0.01001-2.48 1.32-4.97 2.63-7.48 3.92-0.01001 0.02002-0.030029 0.029999-0.040039 0.02002-2.3999 1.26-4.8401 2.51-7.28 3.77-0.02002 0-0.030029 0.01001-0.050049 0.019989-0.01001 0.01001-0.030029 0.01001-0.049805 0.02002-4.8201 2.47-9.7202 4.92-14.71 7.36-0.01001 0-0.02002 0.01001-0.030029 0.02002-2.4399 1.2-4.8999 2.39-7.3899 3.56-0.030029 0.019989-0.060059 0.039978-0.090088 0.049988-2.48 1.19-4.98 2.38-7.51 3.56-0.01001 0-0.01001 0-0.019775 0.01001-2.4802 1.16-5 2.32-7.54 3.48l-0.01001 0.009979c-2.47 1.11-4.95 2.24-7.47 3.35-2.51 1.12-5.04 2.24-7.6101 3.35h-0.01001l-0.01001 0.009979c-2.5 1.09-5.04 2.16-7.5999 3.25-2.51 1.06-5.0601 2.12-7.6301 3.17-2.53 1.05-5.1001 2.08-7.6899 3.11l-0.01001 0.009979h-0.01001c-2.5601 1.03-5.1599 2.06-7.78 3.08h-0.01001l-0.01001 0.009979c-0.039917 0.01001-0.099976 0.029999-0.14002 0.050018-2.5499 0.98999-5.11 1.97-7.6599 2.95h-0.01001l-0.01001 0.01001c-2.6 0.98001-5.2101 1.96-7.8101 2.92-2.6699 1-5.34 1.98-8.01 2.95h-0.01001v0.01001c-361.79 131.4-740.08 58.71-913.32-8.84-159.69-62.26-244.38-118.41-355.82-176-68.05-35.16-131.06-64.02-195.04-82.6-0.01001 0-0.030029-0.010002-0.040039-0.010002-2.65-0.78-5.31-1.53-7.96-2.26-0.02002-0.009995-0.050049-0.009995-0.070007-0.019997h-0.01001c-2.61-0.73-5.22-1.43-7.83-2.12h-0.01001c-0.009949 0-0.029968-0.010002-0.039978-0.010002-2.68-0.71-5.35-1.39-8.04-2.05-5.03-1.26-10.08-2.44-15.14-3.56-0.049988-0.010002-0.10998-0.020004-0.16998-0.040001-2.35-0.51-4.71-1.02-7.07-1.5-0.030029 0-0.049988-0.010002-0.070007-0.010002-0.030029-0.010002-0.059998-0.019997-0.090027-0.019997-2.48-0.52-4.95-1.02-7.43-1.49h-0.009979c-0.01001 0-0.01001 0-0.02002-0.009995-2.46-0.47-4.93-0.93-7.4-1.38-0.01001-0.010002-0.029999-0.010002-0.040009-0.010002-2.39-0.42-4.79-0.84-7.19-1.23-2.41-0.4-4.82-0.79-7.24-1.15-2.41-0.37-4.81-0.72-7.22-1.05h-0.019989s-0.01001 0-0.02002 0c-2.36-0.32999-4.74-0.64-7.12-0.92999h-0.019989c-2.4-0.31-4.81-0.59-7.22-0.85001-2.42-0.27-4.84-0.52-7.27-0.76h-0.01001c-2.39-0.23-4.77-0.44-7.17-0.63h-0.009979c-0.01001-0.009995-0.02002 0-0.02002 0-2.58-0.23-5.18-0.42-7.78-0.59-2.29-0.16-4.59-0.3-6.9-0.43-39.1-2.14-79.82 0-123.3 7.17-120.94 20.03-224.62 72.25-309.28 129.64" stroke="#07B8E7"/>
		<path d="m2740.6 69.97c-48.31 15.83-104.49 35.24-166.44 58.98-0.01001 0-0.01001 0-0.02002 0.009995-0.87988 0.33-1.78 0.67001-2.6699 1.01h-0.01001c-0.89014 0.34999-1.79 0.69-2.6899 1.04 0 0-0.01001 0.01001-0.02002 0.01001-0.83008 0.31999-1.6602 0.64-2.5 0.97-0.02002 0-0.030029 0.009995-0.050049 0.019989-0.8501 0.32001-1.71 0.65001-2.5601 0.98001-0.01001 0.009995-0.02002 0.009995-0.02002 0.009995-0.02002 0.009995-0.040039 0.020004-0.060059 0.020004-1.75 0.67999-3.5098 1.36-5.2598 2.05-0.070068 0.020004-0.14014 0.050003-0.2102 0.070007-0.84985 0.34-1.6899 0.66-2.53 0.99l-0.009766 0.009995c-0.02002 0.009995-0.040039 0.009995-0.060059 0.020004-0.78003 0.29999-1.5601 0.59999-2.3401 0.92-0.01001 0-0.02002 0-0.030029 0.009995-0.86987 0.33-1.74 0.67-2.6099 1.01-0.01001 0.01001-0.02002 0.01001-0.030029 0.01001-0.84009 0.34-1.6799 0.66-2.52 1h-0.01001c-0.84009 0.33-1.6799 0.66-2.52 0.98999l-0.01001 0.01001h-0.02002c-0.83008 0.33-1.6699 0.66-2.51 1h-0.01001c-0.01001 0-0.02002 0.009995-0.02002 0.009995-0.83984 0.33-1.6799 0.66-2.52 0.99-0.82983 0.33-1.6599 0.66-2.5 0.98999-0.01001 0-0.01001 0.01001-0.01001 0.01001h-0.02002c-0.82983 0.33-1.6599 0.66-2.5 1-0.8999 0.34999-1.7898 0.70999-2.7 1.08h-0.01001c-0.75 0.3-1.5 0.59999-2.26 0.90999h-0.01001c-76.71 30.64-160.88 67.66-248.95 112.3-53.16 26.94-92.44 53.47-136.32 79.35h-0.009766c-2.4202 1.43-4.8401 2.85-7.29 4.27-2.3901 1.39-4.8101 2.78-7.24 4.17-2.4202 1.39-4.8701 2.77-7.3401 4.15-0.01001 0-0.01001 0.01001-0.02002 0.01001-2.3301 1.31-4.6899 2.61-7.0701 3.92-0.01001 0-0.02002 0.01001-0.030029 0.02002-4.74 2.59-9.5698 5.19-14.52 7.78-0.02002 0.009979-0.040039 0.019989-0.060059 0.029999-2.4399 1.27-4.9001 2.55-7.4001 3.81l-0.01001 0.009979c-2.4299 1.25-4.8699 2.48-7.3599 3.71 0 0.009979 0 0.009979-0.01001 0.009979-2.3901 1.19-4.8201 2.38-7.27 3.56-0.01001 0-0.01001 0.009979-0.02002 0.009979-2.4399 1.19-4.9199 2.38-7.4299 3.56-2.46 1.16-4.95 2.32-7.47 3.48 0 0-0.01001 0.01001-0.02002 0.01001-2.46 1.13-4.95 2.25-7.47 3.37-2.48 1.11-4.99 2.22-7.54 3.32h-0.01001l-0.01001 0.009979c-2.5 1.08-5.03 2.17-7.59 3.23l-0.01001 0.01001c-0.92004 0.39999-1.8401 0.78-2.76 1.17-1.63 0.67999-3.26 1.35-4.89 2.02l-0.01001 0.01001h-0.01001c-2.5601 1.06-5.13 2.11-7.6901 3.13-2.62 1.06-5.24 2.11-7.87 3.13-355.65 139.84-742.82 68.8-927.08-8.29-160.57-67.18-237.48-125.33-352.21-186.21-64.47-34.21-125.15-62.06-186.65-80.64h-0.01001c-2.75-0.83-5.49-1.64-8.25-2.43h-0.01001-0.019958c-2.61-0.77-5.23-1.5-7.84-2.23-0.030029-0.010002-0.059998-0.010002-0.090027-0.020004-2.65-0.73-5.31-1.44-7.96-2.13-0.02002 0-0.030029-0.010002-0.049988-0.010002-0.030029-0.010002-0.070007-0.019997-0.11005-0.019997-2.55-0.67001-5.1-1.32-7.66-1.96-0.049988-0.010002-0.10998-0.020004-0.16998-0.040001-4.9901-1.23-9.99-2.39-15-3.49-0.049988-0.009995-0.10001-0.019997-0.14999-0.039993-2.43-0.53001-4.87-1.05-7.31-1.56-0.019989-0.010002-0.049988-0.010002-0.070007-0.010002-0.029999-0.009995-0.049988-0.009995-0.079987-0.019997-2.4-0.49-4.79-0.97-7.2-1.43-0.019989 0-0.029999-0.010002-0.049988-0.010002h-0.02002c-2.49-0.49-4.98-0.96-7.48-1.4-2.42-0.44-4.84-0.85001-7.27-1.26-0.009979 0-0.029999-0.010002-0.039978-0.010002-0.01001 0-0.02002-0.010002-0.029999 0-2.41-0.4-4.82-0.78-7.23-1.15 0 0-0.01001-0.009995-0.019989 0-0.01001 0-0.01001 0-0.02002-0.009995-2.39-0.36-4.78-0.71001-7.17-1.04h-0.01001-0.01001c-2.42-0.35-4.85-0.67001-7.28-0.97h-0.009979-0.01001c-2.41-0.31-4.84-0.6-7.27-0.87-2.42-0.28-4.84-0.53-7.28-0.77-0.01001 0-0.01001-0.010002-0.02002 0h-0.009979c-2.61-0.26-5.23-0.51-7.86-0.73h-0.01001c-2.27-0.19-4.54-0.37-6.82-0.53h-0.01001c-42.31-3.05-86.29-1.3-133.25 6.06-110.98 17.5-208.56 61.23-290.93 111.22" stroke="#09B9E0"/>
		<path d="m2740.6 81.02c-49.56 12.64-106.56 28.69-168.69 49.45-0.01001 0.009995-0.01001 0.009995-0.02002 0.009995-0.92993 0.31-1.8499 0.62-2.78 0.93001-0.01001 0.009995-0.01001 0.009995-0.02002 0.009995-0.90991 0.3-1.8098 0.61-2.72 0.92h-0.01001c-0.87988 0.3-1.76 0.59-2.6499 0.89-0.01001 0-0.02002 0.01001-0.030029 0.01001 0 0 0 0.009995-0.01001 0.009995-0.90991 0.31-1.8301 0.62-2.75 0.92999 0 0-0.01001 0-0.02002 0.01001-0.01001 0-0.030029 0.009995-0.040039 0.009995-0.83984 0.28-1.6899 0.57001-2.54 0.86-0.079834 0.029999-0.1499 0.050003-0.22998 0.080002-1.6799 0.58-3.3599 1.15-5.0498 1.74-0.02002 0.009995-0.050049 0.009995-0.070068 0.019989-0.01001 0-0.030029 0.01001-0.050049 0.020004-0.84009 0.28999-1.6899 0.58-2.53 0.87h-0.01001c-0.8999 0.31-1.79 0.62001-2.6899 0.93001-0.01001 0-0.02002 0.009995-0.030029 0.009995-0.86987 0.31-1.75 0.61-2.6299 0.91 0 0-0.01001 0-0.02002 0.009995h-0.02002c-0.8501 0.31-1.71 0.60001-2.5601 0.91h-0.01001c-0.86011 0.3-1.72 0.60001-2.5801 0.91h-0.01001c-0.85986 0.3-1.72 0.59999-2.5898 0.91h-0.01001c-0.84009 0.29999-1.6799 0.59-2.53 0.89999h-0.01001c-0.01001 0-0.01001 0-0.02002 0.009995-0.86987 0.3-1.72 0.61-2.5901 0.92h-0.01001c-0.92993 0.33-1.8599 0.66-2.7998 0.99-0.76001 0.27-1.53 0.55-2.29 0.82001h-0.01001c-79.05 28.29-165 64.14-253.68 109.95-55.18 28.51-93.25 56.57-136.31 84.29-0.01001 0-0.01001 0.009979-0.02002 0.009979-2.3601 1.51-4.75 3.04-7.1501 4.56 0 0-0.009766 0.01001-0.019775 0.01001-2.3401 1.48-4.6902 2.96-7.0701 4.45-0.01001 0-0.02002 0-0.030029 0.009979h-0.01001c-2.3401 1.46-4.6899 2.91-7.0801 4.37-0.01001 0-0.02002 0.01001-0.030029 0.01001s-0.01001 0.01001-0.019775 0.01001c-2.27 1.4-4.5701 2.77-6.8801 4.16-0.030029 0.019989-0.060059 0.039978-0.090088 0.049988-2.3198 1.39-4.6699 2.78-7.0398 4.17-0.02002 0.009979-0.040039 0.019989-0.060059 0.029999-4.6799 2.72-9.46 5.44-14.37 8.16h-0.01001c-0.030029 0.019989-0.059814 0.039978-0.089844 0.049988-2.3401 1.3-4.6902 2.59-7.1001 3.89-0.01001 0.009979-0.030029 0.019989-0.050049 0.029999-2.3198 1.24-4.6799 2.5-7.0598 3.74-0.01001 0.01001-0.02002 0.019989-0.030029 0.019989-2.3801 1.26-4.8 2.51-7.25 3.76l-0.01001 0.01001c-2.3901 1.21-4.8101 2.43-7.27 3.65h-0.01001c-0.01001 0.009979-0.01001 0.009979-0.02002 0.009979-2.4099 1.2-4.8601 2.4-7.3501 3.6-2.4199 1.17-4.8699 2.33-7.36 3.5l-0.009888 0.01001h-0.01001c-2.4501 1.15-4.9501 2.3-7.4701 3.45l-0.01001 0.009979h-0.009888c-1.76 0.80002-3.53 1.6-5.3201 2.4-0.72998 0.32001-1.45 0.65002-2.1799 0.96002-2.51 1.12-5.03 2.23-7.55 3.31-2.58 1.13-5.16 2.23-7.75 3.33h-0.01001l-0.01001 0.01001c-349.47 147.93-745.48 79.3-940.77-7.61-161.52-71.89-230.59-132.21-348.59-196.43-60.95-33.18-119.2-60.04-178.18-78.54-0.01001 0-0.01001 0-0.02002-0.010002-2.74-0.86-5.49-1.7-8.23-2.53h-0.01001-0.01001c-2.74-0.83-5.48-1.63-8.23-2.41-2.7-0.78001-5.4-1.53-8.1-2.26h-0.009949c-0.02002-0.010002-0.050049-0.010002-0.070007-0.020004-2.5-0.69-5-1.36-7.5-2.01-0.030029 0-0.049988-0.010002-0.070007-0.010002-0.030029-0.010002-0.059998-0.019997-0.090027-0.019997-2.59-0.68-5.18-1.33-7.77-1.96-0.089996-0.019997-0.16998-0.039993-0.25998-0.059998-4.93-1.22-9.88-2.37-14.84-3.46-0.049988-0.010002-0.099976-0.019997-0.13998-0.029999h-0.01001c-2.49-0.55-5-1.08-7.51-1.59h-0.01001c-0.040009-0.019997-0.070007-0.019997-0.10001-0.019997-2.48-0.52-4.95-1.01-7.44-1.49-0.01001 0-0.019989-0.010002-0.029999-0.010002h-0.01001c-2.41-0.47-4.83-0.92-7.25-1.34-0.009979-0.009995-0.019989-0.009995-0.029999-0.009995-2.43-0.44-4.86-0.86-7.29-1.26h-0.01001-0.01001c-2.45-0.42-4.9-0.81-7.36-1.19h-0.02002c-2.41-0.38-4.84-0.73-7.26-1.07h-0.02002c-2.42-0.35-4.87-0.68-7.31-0.98h-0.019989c-2.45-0.32-4.9-0.62-7.36-0.9h-0.02002-0.01001c-2.62-0.3-5.25-0.58-7.88-0.85-2.28-0.23-4.56-0.44-6.84-0.64-45.57-4.04-92.88-2.71-143.31 4.78-101.74 15.22-193.18 51.77-272.57 94.95" stroke="#0BBBDA"/>
		<path d="m2740.6 91.43c-50.76 9.63-108.54 22.56-170.92 40.56h-0.01001c-0.93994 0.26999-1.8799 0.54999-2.8201 0.81-0.01001 0.009995-0.01001 0.009995-0.02002 0.009995 0 0-0.01001 0-0.01001 0.009995-0.91992 0.27-1.8398 0.53-2.7698 0.8-0.01001 0-0.030029 0.01001-0.040039 0.01001 0 0 0 0.009995-0.01001 0.009995-0.93018 0.27-1.8701 0.53999-2.8101 0.81999 0 0-0.01001 0-0.02002 0.01001-0.91992 0.27-1.8501 0.53999-2.78 0.81999-0.01001 0-0.01001 0-0.02002 0.01001-0.01001 0-0.02002 0.009995-0.030029 0.009995-0.92993 0.27-1.8499 0.53999-2.78 0.82001l-0.009766 0.009995c-0.02002 0.009995-0.040039 0.009995-0.060059 0.020004-0.81006 0.22-1.6101 0.47-2.4202 0.70999-0.029785 0.01001-0.069824 0.020004-0.099854 0.029999-0.01001 0-0.030029 0.01001-0.050049 0.020004-1.74 0.52-3.5 1.04-5.24 1.58-0.02002 0-0.030029 0-0.050049 0.009995-0.90991 0.27-1.8298 0.55-2.74 0.83-0.01001 0-0.02002 0.009995-0.030029 0.009995h-0.01001c-0.88989 0.27-1.77 0.54001-2.6699 0.82001h-0.01001c-0.87988 0.27-1.78 0.53999-2.6699 0.83h-0.02002s-0.01001 0-0.02002 0.009995c-0.88013 0.27-1.76 0.53-2.6501 0.82001h-0.019775s-0.02002 0.009995-0.02002 0.009995c-0.88013 0.27-1.76 0.54001-2.6501 0.82001h-0.01001c-0.85986 0.26999-1.73 0.53999-2.5999 0.81-0.89014 0.28-1.79 0.56-2.6802 0.84-0.01001 0-0.01001 0-0.02002 0.009995h-0.009766c-0.9502 0.31001-1.9102 0.60001-2.8601 0.91-0.78003 0.25-1.55 0.49-2.3301 0.74-81.37 25.94-169.12 60.62-258.41 107.57-57.23 30.1-94.13 59.68-136.41 89.21 0 0-0.01001 0-0.01001 0.01001-2.3 1.61-4.6101 3.21-6.9402 4.82-2.2998 1.58-4.6199 3.16-6.96 4.74-2.28 1.54-4.5898 3.09-6.9299 4.63-2.27 1.5-4.5601 3-6.8801 4.51-0.01001 0-0.01001 0-0.019775 0.01001-2.3 1.48-4.6201 2.96-6.9702 4.44l-0.01001 0.009979c-2.2898 1.45-4.6099 2.89-6.96 4.34h-0.01001c-0.030029 0.019989-0.059814 0.039978-0.089844 0.049988-4.5 2.78-9.1301 5.55-13.9 8.32-0.02002 0.019989-0.040039 0.029999-0.059814 0.039978-2.25 1.31-4.53 2.62-6.8401 3.93h-0.01001c-0.01001 0.009979-0.030029 0.019989-0.040039 0.029999-2.3201 1.31-4.6799 2.62-7.0701 3.94-0.01001 0.009979-0.02002 0.009979-0.030029 0.019989h-0.009766c-2.3501 1.29-4.7302 2.59-7.1501 3.88-2.3499 1.25-4.74 2.51-7.1599 3.77-0.01001 0-0.01001 0-0.02002 0.01001h-0.01001c-2.38 1.24-4.8 2.48-7.26 3.71-2.41 1.22-4.86 2.44-7.35 3.66h-0.01001l-0.01001 0.01001c-2.41 1.17-4.86 2.36-7.35 3.53 0 0 0 0.009979-0.01001 0.009979-0.15002 0.080017-0.31006 0.16-0.47009 0.23001-2.3099 1.1-4.62 2.18-6.9399 3.26-2.53 1.18-5.0699 2.34-7.61 3.49-343.3 155.78-748.18 90.25-954.45-6.75-162.54-76.42-223.71-139.03-344.97-206.64-57.52-32.07-113.23-57.98-169.64-76.33h-0.01001c-2.78-0.91-5.56-1.79-8.34-2.66h-0.01001-0.009949c-2.76-0.86-5.51-1.7-8.27-2.52-2.69-0.81-5.39-1.6-8.09-2.37h-0.019958-0.01001c-2.67-0.76-5.34-1.5-8.02-2.22h-0.009979c-0.029999-0.009995-0.050018-0.009995-0.080017-0.019997-2.56-0.7-5.14-1.39-7.71-2.05-0.019989-0.010002-0.049988-0.010002-0.070007-0.010002-0.029999-0.009995-0.049988-0.009995-0.079987-0.019997-2.49-0.65-5-1.28-7.49-1.89-0.049988-0.010002-0.099976-0.019997-0.13998-0.029999h-0.01001c-5.19-1.28-10.38-2.47-15.6-3.61-0.029999-0.010002-0.049988-0.010002-0.079987-0.020004-0.040009-0.009995-0.070007-0.019997-0.10001-0.019997-2.34-0.51-4.67-1.01-7.02-1.48-0.029999-0.009995-0.050018-0.009995-0.080017-0.019997h-0.019989c-2.41-0.5-4.83-0.99-7.24-1.44-0.01001 0-0.029999-0.009995-0.040009-0.009995-0.029999 0-0.049988-0.010002-0.070007-0.010002-2.5-0.49-5-0.96-7.51-1.4-0.01001-0.010002-0.01001-0.010002-0.02002-0.010002h-0.009979c-2.43-0.44-4.86-0.86-7.3-1.27h-0.029999s-0.029999-0.010002-0.040009-0.010002c-2.41-0.41-4.84-0.8-7.26-1.16-0.01001-0.010002-0.01001-0.010002-0.02002-0.010002h-0.019989c-2.43-0.39-4.88-0.75-7.32-1.08-0.009979-0.010002-0.009979-0.010002-0.019989-0.010002s-0.02002-0.009995-0.029999 0c-2.44-0.35999-4.89-0.69-7.34-1-2.69-0.35-5.38-0.67999-8.07-0.99h-0.019989-0.01001c-2.23-0.26-4.46-0.5-6.7-0.73-48.89-5.08-99.57-4.23-153.48 3.35-93.1 13.18-178.37 43.61-254.22 80.57" stroke="#0CBDD4"/>
		<path d="m2740.6 101.27c-51.92 6.79-110.48 16.82-173.15 32.22-0.96997 0.23999-1.95 0.48-2.9299 0.71999l-0.01001 0.01001h-0.02002c-0.93994 0.23-1.9001 0.47-2.8401 0.70999-0.01001 0-0.01001 0-0.02002 0.01001-0.94995 0.23-1.8999 0.47-2.8499 0.70999-0.94019 0.23001-1.8801 0.47-2.8201 0.71001-0.92993 0.23999-1.8701 0.48-2.8101 0.72-0.01001 0-0.02002 0-0.030029 0.009995-0.90991 0.23-1.8198 0.46001-2.73 0.7h-0.01001c-0.8999 0.24-1.8 0.47-2.7 0.71001-0.02002 0-0.030029 0-0.050049 0.009995-1.8499 0.48001-3.7 0.97-5.5601 1.46-0.019775 0.009995-0.039795 0.009995-0.059814 0.020004-0.030029 0.009995-0.060059 0.009995-0.090088 0.019989-0.87988 0.23001-1.75 0.47-2.6299 0.71001h-0.02002c-0.02002 0-0.040039 0-0.070068 0.020004-0.90991 0.23999-1.8101 0.46999-2.72 0.73-0.01001 0-0.030029 0-0.040039 0.009995-0.8999 0.23-1.79 0.47-2.6799 0.72h-0.01001c-0.91016 0.24-1.8101 0.49-2.72 0.74 0 0-0.01001 0-0.02002 0.009995h-0.02002c-0.87012 0.24-1.74 0.48-2.6101 0.73h-0.02002c-0.91992 0.25-1.8298 0.5-2.75 0.75h-0.02002c-0.98999 0.28-1.98 0.56001-2.97 0.84001h-0.01001c-0.77002 0.22-1.55 0.42999-2.3198 0.64999h-0.01001c-83.7 23.6-173.25 57.11-263.17 105.2-59.25 31.69-94.99 62.72-136.49 94.07l-0.01001 0.01001c-2.24 1.7-4.49 3.38-6.77 5.09-0.01001 0-0.01001 0-0.02002 0.009979h-0.01001c-2.24 1.67-4.5 3.33-6.7898 5-2.22 1.62-4.4602 3.24-6.73 4.86-0.01001 0.009979-0.01001 0.019989-0.02002 0.009979-2.23 1.6-4.48 3.19-6.76 4.78l-0.01001 0.009979c-2.23 1.55-4.49 3.11-6.79 4.67 0 0.009979 0 0.009979-0.01001 0.009979-2.23 1.52-4.49 3.04-6.79 4.56-0.01001 0.009979-0.030029 0.019989-0.050049 0.029999-2.21 1.47-4.46 2.93-6.75 4.4-0.02002 0.019989-0.040039 0.029999-0.059814 0.039978-4.3401 2.8-8.8201 5.61-13.44 8.42-0.01001 0.01001-0.030029 0.019989-0.050049 0.029999-2.2898 1.39-4.6199 2.78-6.98 4.18-0.01001 0-0.01001 0.01001-0.02002 0.01001 0 0-0.009766 0-0.009766 0.01001-2.3 1.35-4.6301 2.71-7.0001 4.07-0.01001 0-0.01001 0.01001-0.02002 0.01001l-0.01001 0.01001c-2.3199 1.32-4.6699 2.66-7.0699 3.99h-0.01001c-0.01001 0.01001-0.01001 0.01001-0.02002 0.019989-2.3199 1.28-4.6799 2.58-7.0699 3.87-2.36 1.27-4.75 2.55-7.1901 3.81 0 0.009979 0 0.009979-0.01001 0.009979-2.38 1.25-4.7899 2.5-7.25 3.75-1.02 0.52002-2.0499 1.04-3.08 1.56-1.38 0.70001-2.77 1.39-4.16 2.06-0.01001 0-0.01001 0-0.01001 0.009979-2.49 1.25-4.98 2.47-7.48 3.66l-0.01001 0.01001c-337.11 163.37-750.83 101.57-968.06-5.74-163.63-80.83-216.86-145.84-341.35-216.85-54.18-30.91-107.29-55.87-161.11-74.01h-0.01001c-2.82-0.96-5.64-1.89-8.46-2.8h-0.019958-0.01001c-2.79-0.91-5.57-1.79-8.36-2.65-0.009949-0.010002-0.019958 0-0.019958 0-0.01001 0-0.030029-0.010002-0.040039-0.010002-2.74-0.86-5.47-1.68-8.21-2.49-0.029999-0.020004-0.050018-0.020004-0.070007-0.020004-2.67-0.8-5.34-1.57-8.01-2.32-0.01001-0.010002-0.029999-0.010002-0.040009-0.010002-2.56-0.73-5.12-1.43-7.68-2.13-0.019989 0-0.029999-0.010002-0.049988-0.010002h-0.02002c-2.63-0.71-5.25-1.4-7.88-2.07h-0.01001c-0.040009-0.019997-0.070007-0.019997-0.10001-0.019997-2.66-0.69-5.31-1.36-7.97-2-0.029999-0.010002-0.059998-0.010002-0.089996-0.020004-0.040009-0.009995-0.070007-0.019997-0.10001-0.019997-4.87-1.19-9.74-2.31-14.63-3.37-0.009979 0-0.019989-0.009995-0.029999-0.009995-2.52-0.55-5.04-1.08-7.57-1.6h-0.02002c-0.029999-0.009995-0.049988-0.009995-0.079987-0.019997-2.48-0.51-4.95-1.01-7.43-1.48-0.02002-0.009995-0.040009-0.019997-0.060028-0.009995-2.4-0.47-4.8-0.92001-7.2-1.33-0.01001-0.010002-0.029999-0.010002-0.040009-0.010002-2.49-0.46-4.99-0.9-7.49-1.31-2.47-0.42-4.95-0.82-7.43-1.21-0.01001 0-0.02002-0.010002-0.029999 0-0.01001 0-0.02002-0.010002-0.030029-0.010002-2.46-0.38-4.92-0.74-7.38-1.1-2.69-0.39-5.4-0.76-8.1-1.1h-0.02002c-2.22-0.3-4.45-0.57-6.68-0.83h-0.009979s0-0.010002-0.01001 0c-52.27-6.21-106.38-5.87-163.78 1.74-84.94 11.34-164.03 36.53-235.87 67.85" stroke="#0EBECE"/>
		<path d="m2740.6 110.62c-53.04 4.09-112.37 11.4-175.38 24.37-1 0.2-1.99 0.40999-2.99 0.62-0.97998 0.2-1.96 0.39999-2.95 0.61-0.97998 0.20999-1.9602 0.42-2.9502 0.62999h-0.01001c-0.94995 0.20001-1.9099 0.41-2.8699 0.61-0.01001 0.01001-0.01001 0.01001-0.02002 0.01001l-0.01001 0.009995c-0.96997 0.2-1.9399 0.41-2.9099 0.62-0.01001 0.01001-0.02002 0.01001-0.030029 0.01001-0.92993 0.2-1.8601 0.41-2.79 0.61-0.01001 0-0.02002 0.009995-0.030029 0.009995-0.91992 0.2-1.8501 0.41-2.77 0.61-0.01001 0-0.02002 0.009995-0.030029 0.009995s-0.030029 0.01001-0.040039 0.01001c-0.91992 0.2-1.8298 0.39999-2.75 0.61-0.019775 0.009995-0.039795 0.009995-0.059814 0.020004-0.030029 0.009995-0.070068 0.009995-0.1001 0.019989-1.8599 0.42-3.71 0.84-5.5801 1.27-0.01001 0-0.02002 0-0.029785 0.009995-0.030029 0.01001-0.050049 0.01001-0.080078 0.020004-0.92993 0.2-1.8401 0.42-2.76 0.64h-0.01001c-0.01001-0.009995-0.030029 0-0.040039 0.009995-0.8999 0.20001-1.79 0.41-2.6899 0.63h-0.01001c-0.90991 0.21001-1.8201 0.42-2.73 0.65001h-0.02002s-0.02002 0-0.030029 0.009995c-0.88989 0.2-1.78 0.42-2.6699 0.63-0.01001 0.009995-0.02002 0.009995-0.030029 0.009995s-0.01001 0-0.02002 0c-0.91992 0.22-1.8501 0.44-2.78 0.67h-0.02002c-1.03 0.25-2.05 0.51-3.0801 0.76 0 0-0.01001-0.009995-0.02002 0-0.76978 0.19-1.5398 0.38-2.3198 0.57001-86.03 21.24-177.4 53.59-267.97 102.8-61.25 33.28-95.85 65.74-136.57 98.89l-0.01001 0.01001c-2.1899 1.78-4.3999 3.57-6.6301 5.36-2.1799 1.74-4.3899 3.5-6.6199 5.26-0.01001 0-0.02002 0-0.02002 0.01001-2.1699 1.7-4.3601 3.4-6.5801 5.11-2.1499 1.66-4.3398 3.32-6.5598 4.98-2.1702 1.63-4.3701 3.26-6.6001 4.89-0.01001 0-0.01001 0.009979-0.02002 0.009979-2.1699 1.59-4.3699 3.18-6.6099 4.76-0.01001 0.01001-0.02002 0.019989-0.030029 0.019989-2.1501 1.54-4.3401 3.07-6.5601 4.61h-0.01001c-0.02002 0.009979-0.040039 0.029999-0.060059 0.039978-2.1399 1.48-4.3101 2.96-6.53 4.45-0.01001 0.01001-0.030029 0.019989-0.050049 0.029999-4.4299 2.97-9 5.96-13.75 8.94 0 0.01001 0 0.01001-0.01001 0.01001-2.21 1.4-4.46 2.8-6.75 4.2-0.01001 0-0.01001 0.01001-0.01001 0.01001-2.27 1.37-4.5599 2.76-6.91 4.16l-0.009888 0.01001c-2.27 1.33-4.5601 2.68-6.91 4.03h-0.01001c-0.01001 0.009979-0.01001 0.009979-0.02002 0.019989-2.3199 1.34-4.6801 2.69-7.09 4.03h-0.01001c-0.01001 0.01001-0.01001 0.01001-0.02002 0.019989-2.3199 1.29-4.6801 2.6-7.08 3.89-1.8401 1-3.7001 2-5.5801 3-0.52002 0.26999-1.0299 0.54999-1.5499 0.82001l-0.01001 0.009979c-2.4401 1.28-4.88 2.56-7.3301 3.82h-0.01001l-0.009888 0.01001c-330.91 170.66-753.4 113.19-981.54-4.66-164.79-85.14-210.03-152.6-337.73-227.07-50.9-29.68-101.32-53.7-152.49-71.56l-0.01001-0.010002c-2.86-0.99-5.73-1.97-8.6-2.93h-0.01001-0.01001c-2.8-0.95-5.6-1.87-8.41-2.77h-0.01001-0.01001c-2.76-0.9-5.52-1.76-8.29-2.61-0.01001 0-0.029999-0.010002-0.040009-0.010002-0.01001-0.009995-0.01001-0.009995-0.019989 0-2.7-0.84-5.41-1.66-8.12-2.45-2.67-0.79-5.35-1.56-8.04-2.31-2.63-0.74-5.27-1.47-7.92-2.17-0.019989-0.009995-0.040009-0.009995-0.059998-0.019997h-0.01001c-2.56-0.69-5.13-1.37-7.7-2.02-0.029999-0.009995-0.050018-0.009995-0.080017-0.019997h-0.019989c-2.5-0.64-5-1.26-7.51-1.87-0.009979 0-0.019989-0.009995-0.029999-0.009995-4.95-1.2-9.92-2.34-14.9-3.42-0.059998-0.019997-0.12-0.029999-0.17999-0.039993-2.56-0.57001-5.13-1.11-7.7-1.63h-0.019989c-0.029999-0.010002-0.059998-0.019997-0.089996-0.019997-2.46-0.51-4.94-1.01-7.41-1.48-0.019989-0.010002-0.049988-0.010002-0.080017-0.019997-2.47-0.47-4.95-0.93-7.43-1.38h-0.009979c-0.01001 0-0.01001 0-0.02002-0.009995-2.43-0.44-4.85-0.86-7.29-1.27-0.009979 0-0.029999-0.010002-0.039978-0.010002h-0.029999c-2.47-0.42-4.94-0.82-7.42-1.2-2.75-0.44-5.51-0.85-8.27-1.24h-0.02002c-2.21-0.33-4.42-0.63-6.63-0.92h-0.02002-0.009979c-55.68-7.39-113.27-7.58-174.14 0-77.18 9.68-150.09 30.38-217.52 56.6" stroke="#10C0C8"/>
		<path d="m2740.6 119.55c-54.12 1.53-114.2 6.26-177.58 16.92h-0.01001c-1.01 0.17-2.01 0.34-3.02 0.51h-0.01001l-0.01001 0.01001c-1 0.17-2.01 0.34-3.03 0.51999h-0.01001c-0.97998 0.17-1.98 0.35001-2.97 0.51001-0.01001 0.009995-0.02002 0.009995-0.030029 0.009995l-0.01001 0.009995c-0.98999 0.17-1.99 0.35001-2.99 0.53-0.98999 0.17001-1.98 0.35001-2.97 0.54001h-0.01001c-0.96997 0.17-1.9399 0.34999-2.9199 0.53 0 0-0.01001 0-0.02002 0.009995-0.01001 0-0.030029 0-0.040039 0.01001-0.92993 0.15999-1.8501 0.33-2.79 0.51h-0.01001c-0.93994 0.17999-1.8799 0.35001-2.8301 0.53999-0.02002 0-0.049805 0.01001-0.069824 0.01001s-0.040039 0-0.070068 0.020004c-0.94995 0.17-1.9099 0.34999-2.8701 0.53999-0.01001 0-0.02002 0-0.029785 0.009995-0.030029 0.01001-0.050049 0.01001-0.080078 0.020004-1.8901 0.35001-3.77 0.72-5.6699 1.1-0.02002 0-0.050049 0.009995-0.070068 0.009995-0.01001 0-0.030029 0.009995-0.050049 0.009995-0.87988 0.18001-1.77 0.35001-2.6699 0.53-0.02002 0.01001-0.040039 0.01001-0.060059 0.01001-0.94995 0.2-1.8999 0.37999-2.8401 0.58h-0.01001c-0.91992 0.17999-1.8298 0.37-2.75 0.56h-0.01001c-0.92993 0.2-1.8699 0.39-2.8098 0.59h-0.02002s-0.02002 0-0.030029 0.009995c-1.0701 0.22-2.1401 0.44-3.21 0.67001h-0.01001c-0.76001 0.15999-1.51 0.31999-2.28 0.48999h-0.01001c-88.37 18.89-181.56 50.07-272.79 100.39-63.26 34.9-96.75 68.73-136.69 103.67l-0.01001 0.01001c-2.1501 1.87-4.3101 3.75-6.5 5.63h-0.01001c-2.1201 1.84-4.27 3.67-6.45 5.5-2.1101 1.78-4.24 3.56-6.4102 5.34l-0.01001 0.009979c-2.1099 1.75-4.25 3.49-6.4299 5.24h-0.01001c-0.01001 0.009979-0.01001 0.009979-0.02002 0.009979-2.0999 1.71-4.24 3.41-6.4099 5.1-2.1201 1.66-4.27 3.31-6.46 4.98l-0.01001 0.01001c-2.1001 1.59-4.24 3.2-6.4202 4.81-0.01001 0.009979-0.02002 0.009979-0.030029 0.019989h-0.009766c-2.1201 1.57-4.27 3.13-6.4702 4.71-0.01001 0-0.01001 0.01001-0.02002 0.01001-0.009766 0.01001-0.019775 0.01001-0.029785 0.019989-2.2002 1.57-4.4402 3.16-6.7201 4.73 0 0.01001 0 0.01001-0.01001 0.01001-4.2 2.91-8.55 5.85-13.06 8.78-0.02002 0.019989-0.050049 0.039978-0.070068 0.049988-2.25 1.47-4.54 2.94-6.87 4.42 0 0-0.01001 0.009979-0.02002 0.009979-0.01001 0.01001-0.01001 0.01001-0.02002 0.01001-2.1799 1.39-4.4199 2.77-6.6799 4.15-0.01001 0.01001-0.02002 0.02002-0.030029 0.029999h-0.01001c-2.2999 1.42-4.63 2.83-7.01 4.24-2.28 1.36-4.6 2.72-6.96 4.08-2.3201 1.35-4.67 2.69-7.08 4.03l-0.01001 0.01001c-0.33008 0.19-0.67004 0.38-1.01 0.57001-2.05 1.15-4.11 2.29-6.17 3.42 0 0-0.01001 0-0.02002 0.01001-324.7 177.81-755.97 125.2-994.98-3.43-166.02-89.34-203.22-159.31-334.11-237.28-47.71-28.42-95.45-51.5-143.95-69.02-2.88-1.05-5.75-2.07-8.63-3.06-2.8-0.98-5.59-1.93-8.4-2.87-0.01001 0-0.029999-0.010002-0.040009-0.010002h-0.029999c-2.81-0.94-5.62-1.86-8.44-2.76h-0.019989c-2.74-0.88-5.48-1.74-8.22-2.57-2.69-0.83-5.37-1.63-8.07-2.42-0.009979 0-0.029999-0.010002-0.039978-0.010002-0.01001 0-0.02002-0.010002-0.029999 0-2.63-0.78-5.26-1.53-7.9-2.26-0.009979-0.009995-0.019989-0.009995-0.029999-0.009995-2.59-0.73-5.17-1.43-7.76-2.13-0.01001 0-0.029999-0.009995-0.040009-0.009995-0.029999 0-0.049988-0.010002-0.070007-0.010002-2.59-0.69-5.17-1.37-7.76-2.02-0.01001-0.009995-0.01001-0.009995-0.02002 0-0.029999-0.009995-0.049988-0.009995-0.079987-0.019997-2.4-0.62-4.82-1.22-7.23-1.8-0.059998-0.019997-0.12-0.029999-0.17999-0.039993-5.18-1.26-10.37-2.45-15.58-3.57h-0.009979c-0.029999-0.009995-0.050018-0.009995-0.080017-0.019997-2.44-0.53-4.88-1.05-7.33-1.54-0.01001-0.010002-0.019989-0.010002-0.040009-0.010002-2.48-0.52-4.97-1.01-7.47-1.49h-0.009979c-2.48-0.48-4.98-0.95-7.47-1.4-0.01001 0-0.029999-0.009995-0.040009-0.009995-2.47-0.44-4.94-0.87-7.42-1.29h-0.019989c-2.81-0.49-5.63-0.94-8.45-1.38-0.009979 0-0.019989-0.009995-0.029999-0.009995h-0.029999c-2.16-0.34-4.31-0.67001-6.48-0.97-0.01001-0.010002-0.029999-0.010002-0.040009-0.010002-59.11-8.61-120.2-9.34-184.49-1.85-69.76 8.19-136.48 25.05-199.16 46.73" stroke="#12C1C2"/>
		<path d="m2740.6 128.1c-55.17-0.91999-116.01 1.39-179.79 9.86h-0.009766c-1.04 0.13-2.0901 0.27-3.1301 0.42001h-0.01001l-0.01001 0.009995c-1.03 0.13-2.0701 0.27-3.1099 0.42-1.02 0.13-2.04 0.28-3.0701 0.43001-1.01 0.12999-2.02 0.28-3.03 0.42999h-0.01001c-1 0.14-2 0.28999-3 0.42999l-0.01001 0.01001h-0.030029c-0.97998 0.14-1.97 0.28999-2.96 0.45h-0.01001c-0.95996 0.14-1.9199 0.28999-2.8999 0.43001-0.01001 0.009995-0.030029 0.009995-0.040039 0.009995 0 0-0.01001 0-0.02002 0.009995-0.98999 0.14-1.98 0.3-2.98 0.46001-0.01001 0-0.030029 0-0.040039 0.009995-0.98999 0.15001-1.97 0.3-2.96 0.47h-0.030029c-0.01001-0.009995-0.030029 0-0.040039 0.009995-0.92993 0.13-1.8799 0.29001-2.8201 0.44-0.039795 0.01001-0.069824 0.01001-0.10986 0.020004-0.01001 0-0.030029 0.009995-0.050049 0.009995-1.8301 0.29001-3.6599 0.60001-5.5 0.91-0.050049 0.009995-0.11011 0.009995-0.15991 0.029999-0.040039 0.01001-0.090088 0.01001-0.13013 0.020004-0.91992 0.14-1.8499 0.31-2.77 0.47-0.8999 0.14999-1.79 0.3-2.7 0.47h-0.01001c-0.96997 0.16-1.9399 0.31999-2.9099 0.51h-0.02002c-0.02002 0-0.030029 0-0.040039 0.009995-1.1201 0.19-2.24 0.38-3.3601 0.60001h-0.029785c-0.01001 0-0.02002 0-0.030029 0.009995-0.73999 0.12001-1.49 0.26001-2.24 0.40001-90.73 16.54-185.77 46.54-277.69 97.98-65.29 36.53-97.71 71.72-136.91 108.43-2.0801 1.95-4.1699 3.9-6.29 5.87h-0.01001-0.01001c-2.0698 1.91-4.1499 3.81-6.28 5.73l-0.01001 0.01001h-0.01001c-2.0498 1.86-4.1399 3.73-6.26 5.59-2.0498 1.81-4.1399 3.63-6.2598 5.45-2.0601 1.77-4.1501 3.55-6.29 5.33 0 0-0.01001 0.01001-0.02002 0.01001-2.04 1.71-4.1301 3.43-6.25 5.15h-0.01001c-0.01001 0.009979-0.01001 0.009979-0.02002 0.009979-2.0601 1.68-4.1699 3.37-6.3101 5.05-2.0801 1.63-4.1899 3.27-6.35 4.92-0.01001 0-0.01001 0.01001-0.02002 0.01001-0.01001 0.01001-0.01001 0.01001-0.02002 0.019989-2.11 1.61-4.2699 3.23-6.46 4.85-0.01001 0-0.01001 0.01001-0.01001 0.01001-2.0599 1.52-4.16 3.04-6.2999 4.57-0.02002 0.019989-0.050049 0.039978-0.070068 0.049988-4.26 3.04-8.66 6.11-13.25 9.18-0.02002 0.02002-0.049927 0.040009-0.079956 0.059998-2.1901 1.48-4.41 2.96-6.6901 4.43 0 0.009979-0.01001 0.009979-0.01001 0.009979-2.23 1.45-4.49 2.91-6.8099 4.36 0 0 0 0.01001-0.01001 0.01001-2.24 1.42-4.52 2.84-6.84 4.26-2.26 1.39-4.5601 2.78-6.91 4.17l-0.01001 0.009979s-0.01001 0.01001-0.02002 0.01001c-1.15 0.69-2.3199 1.38-3.49 2.07-1.17 0.67999-2.34 1.37-3.52 2.03-0.02002 0.019989-0.030029 0.029999-0.039917 0.029999-318.49 184.77-758.51 137.54-1008.3-2.06-167.3-93.48-196.44-166-330.49-247.49-44.59-27.11-89.57-49.24-135.36-66.37-2.9-1.09-5.8-2.15-8.71-3.2-2.86-1.03-5.72-2.04-8.58-3.02-2.81-0.97-5.62-1.92-8.44-2.86h-0.01001c-2.77-0.92-5.55-1.82-8.32-2.7h-0.019989c-0.01001-0.009995-0.01001-0.009995-0.02002 0-2.7-0.87-5.4-1.71-8.11-2.53 0 0-0.01001-0.009995-0.019989 0-0.02002-0.009995-0.029999-0.009995-0.050018-0.009995-2.63-0.82-5.28-1.6-7.92-2.37h-0.01001-0.01001c-2.66-0.79-5.35-1.55-8.02-2.28-0.019989-0.010002-0.049988-0.010002-0.070007-0.020004h-0.009979c-2.58-0.73-5.16-1.43-7.75-2.11-0.02002-0.009995-0.040009-0.019997-0.060028-0.009995-2.54-0.68-5.08-1.34-7.62-1.98-0.009979-0.010002-0.009979-0.010002-0.019989 0-0.029999-0.010002-0.059998-0.019997-0.089996-0.019997-2.59-0.66-5.18-1.31-7.77-1.92h-0.009979c-0.040009-0.009995-0.070007-0.019997-0.11002-0.029999-4.88-1.18-9.77-2.3-14.68-3.35-0.01001-0.010002-0.019989-0.010002-0.029999-0.010002s-0.029999-0.009995-0.049988-0.009995c-2.54-0.56-5.08-1.09-7.62-1.61-0.029999-0.010002-0.059998-0.010002-0.089996-0.020004-2.49-0.51-4.99-1.01-7.5-1.49-0.009979 0-0.029999-0.010002-0.039978-0.010002-2.48-0.48-4.98-0.95-7.47-1.39-0.01001-0.009995-0.029999-0.009995-0.040009-0.009995-2.9-0.53001-5.81-1.03-8.71-1.52-0.01001 0-0.02002-0.010002-0.029999-0.010002 0 0-0.01001-0.009995-0.02002 0-2.09-0.36-4.19-0.7-6.29-1.03h-0.030029c-0.009979 0-0.019989-0.010002-0.029999-0.010002-62.59-9.9-127.28-11.19-195.01-3.84-62.62 6.84-123.16 20.39-180.81 38.04" stroke="#13C3BC"/>
		<path d="m2740.6 136.32c-56.2-3.27-117.8-3.28-182.01 3.11-1.0698 0.10001-2.1399 0.21001-3.21 0.32001-1.0601 0.11-2.1099 0.22-3.1699 0.33l-0.01001 0.009995h-0.01001c-1.04 0.10001-2.0801 0.21001-3.1201 0.33-1.0398 0.11-2.0698 0.22-3.1099 0.34h-0.01001c-1.03 0.11-2.04 0.23001-3.0601 0.35001h-0.01001c-0.01001 0-0.02002 0.009995-0.02002 0.009995-1.01 0.11-2.02 0.22-3.02 0.35001h-0.01001" stroke="#15C4B6"/>
		<path d="m2539.8 141.46v0.01001c-1.01 0.11-2.01 0.23999-3.01 0.36h-0.029785s-0.02002 0.009995-0.02002 0.009995c-1.01 0.11-2.01 0.24-3.01 0.36h-0.01001c-1.01 0.13-2.02 0.26-3.03 0.39h-0.01001c-0.97998 0.12-1.97 0.25-2.95 0.37-0.02002 0.01001-0.040039 0.01001-0.060059 0.01001-0.91992 0.12999-1.8501 0.25-2.77 0.37-0.050049 0.009995-0.11011 0.009995-0.15991 0.029999-0.040039 0.01001-0.090088 0.01001-0.13013 0.020004-1.8499 0.24-3.6899 0.49-5.54 0.76h-0.01001c-0.039795 0-0.089844 0.01001-0.13989 0.020004-0.90991 0.12-1.8201 0.24-2.73 0.39h-0.030029s-0.030029 0-0.050049 0.009995c-1.01 0.13-2.04 0.28-3.0601 0.44h-0.02002c-1.1899 0.17-2.3899 0.35001-3.5898 0.54001h-0.02002c-0.71997 0.099991-1.45 0.2-2.1699 0.31999h-0.01001c-93.08 14.19-189.93 43.02-282.52 95.54-67.3 38.17-98.66 74.67-137.12 113.14-2.03 2.04-4.0798 4.08-6.1599 6.12-2.02 1.98-4.0601 3.97-6.1301 5.97h-0.01001l-0.01001 0.01001c-1.99 1.93-4.01 3.85-6.0698 5.8l-0.01001 0.009979c-1.99 1.86-4.01 3.74-6.0701 5.63-2.02 1.84-4.0601 3.69-6.1499 5.54-2.01 1.8-4.0701 3.59-6.1602 5.39-2 1.73-4.0399 3.47-6.1199 5.22-0.01001 0-0.01001 0-0.02002 0.01001h-0.01001c-2.04 1.71-4.13 3.43-6.26 5.15h-0.01001c-0.01001 0.01001-0.02002 0.019989-0.030029 0.029999-2.0499 1.67-4.14 3.33-6.28 5.01l-0.009888 0.01001c-2.0601 1.61-4.17 3.24-6.3201 4.87 0 0-0.01001 0.009979-0.02002 0.009979-0.01001 0.01001-0.01001 0.01001-0.02002 0.01001-2.0699 1.58-4.1899 3.17-6.34 4.74-0.02002 0.02002-0.049927 0.040009-0.079956 0.059998-4.13 3.04-8.41 6.1-12.87 9.17-0.01001 0-0.02002 0.01001-0.030029 0.019989-0.02002 0.01001-0.040039 0.029999-0.060059 0.040009-2.22 1.54-4.48 3.08-6.7899 4.62-0.01001 0.01001-0.02002 0.01001-0.030029 0.02002-2.2 1.48-4.4399 2.95-6.72 4.43-2.24 1.46-4.53 2.93-6.85 4.4 0 0-0.01001 0-0.02002 0.01001l-0.01001 0.009979c-1.92 1.2-3.86 2.42-5.84 3.63-0.3501 0.22-0.69006 0.42999-1.05 0.63 0 0.01001 0 0.01001-0.01001 0.01001-312.28 191.53-760.96 150.13-1021.6-0.64002-168.63-97.57-189.68-172.66-326.87-257.71-41.55-25.76-83.77-46.92-126.83-63.61l-0.009979-0.010002c-2.92-1.13-5.83-2.24-8.76-3.32-2.86-1.07-5.74-2.12-8.61-3.15h-0.009979c-2.83-1.02-5.67-2.01-8.51-2.99h-0.01001c-2.77-0.95-5.53-1.89-8.31-2.8h-0.019989c-2.72-0.9-5.44-1.78-8.18-2.65h-0.01001-0.01001c-2.71-0.86-5.42-1.7-8.14-2.52h-0.02002c-2.67-0.81-5.34-1.6-8.02-2.38h-0.029999s-0.029999-0.010002-0.040009-0.010002c-2.55-0.75-5.09-1.46-7.64-2.17-0.01001-0.010002-0.029999-0.010002-0.040009-0.010002-2.63-0.73-5.26-1.44-7.9-2.14-0.019989-0.010002-0.049988-0.010002-0.080017-0.019997-2.56-0.68-5.13-1.34-7.7-1.98-0.01001-0.010002-0.019989-0.010002-0.040009-0.010002-2.41-0.60999-4.82-1.21-7.24-1.79-0.040009-0.010002-0.089996-0.020004-0.13-0.030006-0.01001 0-0.029999-0.009995-0.049988-0.009995-5.05-1.22-10.13-2.37-15.21-3.46-0.029999-0.010002-0.049988-0.010002-0.079987-0.020004-0.040009-0.019997-0.070007-0.019997-0.10001-0.019997-2.43-0.53-4.86-1.04-7.3-1.54-0.02002 0-0.040009-0.010002-0.059998-0.010002-0.02002-0.010002-0.040009-0.010002-0.059998-0.010002-2.51-0.52-5.02-1.02-7.54-1.51-0.02002 0-0.029999-0.010002-0.050018-0.010002-0.019989-0.010002-0.049988-0.010002-0.069977-0.010002-2.99-0.58-5.98-1.14-8.97-1.67h-0.01001c-0.01001 0-0.01001 0-0.019989-0.010002-1.99-0.36-3.97-0.71-5.96-1.03-0.009979-0.010002-0.029999-0.019997-0.039978-0.010002-66.16-11.29-134.55-13.16-205.76-6-55.72 5.65-110.09 16.38-162.46 30.48" stroke="#15C4B6"/>
		<path d="m2740.6 144.22c-57.2-5.51-119.54-7.72-184.2-3.33-1.0901 0.069992-2.1699 0.14-3.26 0.22h-0.01001l-0.01001 0.009995c-1.0798 0.070007-2.1499 0.15001-3.23 0.23-1.0701 0.080002-2.1399 0.16-3.21 0.24h-0.01001c-1.04 0.089996-2.0901 0.17-3.1299 0.25h-0.02002l-0.01001 0.009995c-1.05 0.080002-2.1101 0.17001-3.1702 0.26001-1.03 0.089996-2.0598 0.17-3.0999 0.27h-0.01001c-1.03 0.089996-2.0701 0.17999-3.1101 0.28h-0.01001c-1.02 0.089996-2.05 0.17999-3.0798 0.28 0 0-0.01001 0-0.02002 0.009995h-0.030029c-0.98999 0.089996-1.99 0.19-2.99 0.29001h-0.030029s-0.02002 0-0.030029 0.009995c-1.02 0.089996-2.04 0.19-3.0701 0.3h-0.01001c-0.98999 0.099991-1.98 0.2-2.98 0.31-0.90991 0.089996-1.8198 0.19-2.74 0.28999h-0.040039c-0.039795 0-0.089844 0.01001-0.13989 0.020004-2 0.21001-4 0.42999-6 0.64999-0.040039 0.01001-0.090088 0.01001-0.13013 0.020004-0.039795 0-0.069824 0.009995-0.10986 0.009995-0.84009 0.10001-1.6899 0.20001-2.53 0.31001-0.040039 0-0.080078 0-0.12012 0.009995-1.3599 0.14999-2.72 0.31-4.0698 0.48-0.02002 0-0.030029 0-0.050049 0.01001h-0.040039c-0.60986 0.080002-1.21 0.14-1.8101 0.23h-0.01001c-95.43 11.84-194.13 39.49-287.42 93.1-69.29 39.81-99.64 77.58-137.35 117.8-1.99 2.11-3.99 4.23-6.0198 6.36-1.9602 2.06-3.9502 4.12-5.9602 6.19h-0.01001c-1.9399 2-3.9099 4-5.9199 6.01-1.9399 1.94-3.9099 3.88-5.9199 5.85l-0.01001 0.009979h-0.01001c-1.95 1.9-3.9399 3.82-5.98 5.74h-0.01001l-0.01001 0.009979c-1.9401 1.84-3.9301 3.7-5.9601 5.56l-0.009888 0.01001h-0.01001c-1.9701 1.81-3.9801 3.62-6.03 5.43-1.99 1.77-4.02 3.55-6.1 5.33-2.01 1.72-4.05 3.45-6.14 5.19h-0.01001c-0.01001 0.009979-0.02002 0.019989-0.030029 0.029999-1.98 1.65-4 3.3-6.0599 4.96-0.02002 0.019989-0.040039 0.029999-0.060059 0.049988h-0.01001c-2.09 1.68-4.22 3.36-6.39 5.05 0 0.009979-0.01001 0.009979-0.01001 0.009979-2.0199 1.57-4.0699 3.14-6.1699 4.73-0.01001 0-0.02002 0.01001-0.030029 0.019989-0.02002 0.01001-0.040039 0.029999-0.060059 0.040009-4.21 3.18-8.59 6.38-13.15 9.61-0.040039 0.019989-0.080078 0.049988-0.13 0.089996-2.14 1.52-4.3301 3.04-6.5601 4.57-2.1899 1.51-4.4299 3.02-6.71 4.55-0.01001 0-0.01001 0.01001-0.02002 0.019989-2.21 1.46-4.48 2.94-6.77 4.43-0.44995 0.29001-0.89002 0.58002-1.34 0.87003-306.08 197.16-762.44 161.89-1033.4 0-170.02-101.61-182.94-179.28-323.25-267.93-38.58-24.37-78-44.55-118.31-60.74h-0.01001c-2.93-1.18-5.86-2.33-8.8-3.47h-0.01001c-2.88-1.11-5.76-2.2-8.64-3.27h-0.009979c-2.86-1.07-5.72-2.11-8.59-3.12h-0.01001c-2.79-1.01-5.58-1.98-8.38-2.93-2.75-0.95-5.5-1.87-8.26-2.77h-0.009979-0.01001c-2.7-0.89-5.41-1.77-8.12-2.62h-0.02002c-2.67-0.84-5.36-1.67-8.04-2.48-0.02002 0-0.029999-0.010002-0.050018-0.010002h-0.019989c-2.62-0.8-5.24-1.57-7.87-2.32-2.63-0.76-5.27-1.51-7.92-2.23h-0.009979c-0.02002-0.009995-0.050018-0.009995-0.070007-0.019997-2.56-0.71-5.12-1.41-7.7-2.08h-0.009979c-2.52-0.67-5.04-1.32-7.56-1.95-0.029999-0.010002-0.059998-0.010002-0.089996-0.020004-2.49-0.62-4.97-1.23-7.46-1.82-0.040009-0.009995-0.079987-0.019997-0.12-0.029999-0.040009-0.019997-0.070007-0.019997-0.10001-0.019997-5.08-1.23-10.16-2.38-15.26-3.48-0.069977-0.019997-0.12997-0.040001-0.19-0.040001-0.049988-0.009995-0.099976-0.019997-0.14999-0.029999-2.4-0.52-4.79-1.02-7.19-1.51h-0.009979c-0.02002-0.009995-0.029999-0.019997-0.050018-0.009995-3.05-0.63-6.1-1.22-9.16-1.8-0.009979 0-0.019989-0.010002-0.029999-0.010002h-0.009979c-1.88-0.36-3.76-0.72-5.64-1.05-0.019989-0.010002-0.040009-0.010002-0.059998-0.020004h-0.029999c-69.69-12.7-141.8-15.13-216.41-8.23-49.01 4.57-97.21 12.9-144.11 23.92" stroke="#17C6AF"/>
		<path d="m2740.6 151.86c-58.19-7.66-121.28-11.99-186.4-9.52-1.1101 0.040009-2.23 0.080002-3.3401 0.14h-0.01001c-1.0999 0.029999-2.2 0.080002-3.2998 0.14-1.0901 0.040009-2.1802 0.089996-3.27 0.15001-1.0701 0.049988-2.1401 0.099991-3.2202 0.17h-0.009766c-1.0701 0.039993-2.1401 0.099991-3.2102 0.15999-0.01001 0-0.01001 0.01001-0.01001 0.01001h-0.02002c-1.0398 0.050003-2.0698 0.11-3.1099 0.17h-0.01001c-0.01001 0-0.01001 0-0.02002 0.009995-1.05 0.050003-2.1001 0.12001-3.1599 0.18001-1.04 0.069992-2.0901 0.14-3.1301 0.20999-0.01001-0.009995-0.01001-0.009995-0.02002 0-1.03 0.060013-2.0698 0.13-3.0999 0.20001-0.01001 0.009995-0.02002 0.009995-0.030029 0.009995s-0.02002 0-0.030029 0c-1.03 0.069992-2.0701 0.14-3.1001 0.22h-0.01001c-0.96997 0.069992-1.9399 0.14-2.9199 0.22h-0.01001c-0.96997 0.069992-1.9399 0.14999-2.9099 0.23h-0.060059c-0.01001 0-0.030029 0-0.050049 0.009995-1.0601 0.080002-2.1199 0.16-3.1899 0.25-0.040039 0.01001-0.090088 0.01001-0.13013 0.020004-0.039795 0-0.069824 0.009995-0.10986 0.009995-1.99 0.16-3.99 0.33-5.99 0.52h-0.030029c-1.47 0.13-2.96 0.27-4.4399 0.42h-0.13013c-0.42993 0.040009-0.85986 0.080002-1.29 0.13h-0.02002c-97.75 9.49-198.28 35.96-292.25 90.64-71.29 41.47-100.66 80.47-137.65 122.44-1.9399 2.19-3.8899 4.39-5.8699 6.6h-0.01001c-1.8901 2.12-3.8201 4.25-5.78 6.39-1.8901 2.06-3.8101 4.13-5.76 6.21l-0.01001 0.009979h-0.01001c-1.8901 2.02-3.8201 4.04-5.79 6.08h-0.01001l-0.01001 0.009979c-1.89 1.96-3.8199 3.92-5.7899 5.89l-0.01001 0.01001c-1.91 1.92-3.8501 3.84-5.8501 5.78l-0.01001 0.009979h-0.009888c-1.92 1.87-3.88 3.74-5.89 5.63h-0.01001l-0.01001 0.01001c-1.9301 1.82-3.9 3.64-5.92 5.47 0 0.009979 0 0.009979-0.01001 0.009979-1.97 1.8-3.99 3.6-6.0599 5.42h-0.01001c-0.01001 0.01001-0.02002 0.019989-0.030029 0.019989-1.96 1.74-3.97 3.47-6.02 5.21-2.02 1.72-4.09 3.45-6.2 5.18 0 0 0 0.01001-0.01001 0.01001-2.03 1.67-4.11 3.35-6.23 5.04-0.01001 0.01001-0.02002 0.01001-0.030029 0.02002-2.0699 1.65-4.17 3.3-6.33 4.97-0.040039 0.019989-0.080078 0.049988-0.13 0.089996-4.0901 3.14-8.3301 6.32-12.75 9.52-0.030029 0.019989-0.050049 0.049988-0.080078 0.059998-2.11 1.52-4.25 3.06-6.4399 4.59-0.02002 0.02002-0.050049 0.040009-0.070068 0.050018-2.22 1.57-4.48 3.14-6.7799 4.71-1.2201 0.84-2.4601 1.68-3.7101 2.52-300 201.93-763.24 172.96-1044.1 0-171.46-105.6-176.24-185.85-319.63-278.13-35.68-22.96-72.34-42.14-109.88-57.77-2.94-1.23-5.87-2.43-8.82-3.6-2.89-1.16-5.79-2.3-8.69-3.41h-0.01001c-2.86-1.11-5.72-2.19-8.59-3.25h-0.009979c-2.83-1.05-5.66-2.07-8.5-3.07h-0.01001c-2.75-0.99-5.51-1.94-8.27-2.88-2.72-0.93-5.44-1.84-8.18-2.73h-0.019989c-2.69-0.89-5.37-1.74-8.08-2.59-0.01001 0-0.029999-0.010002-0.040009-0.010002s-0.02002-0.009995-0.029999 0c-2.64-0.84-5.28-1.65-7.93-2.44-0.01001 0-0.02002-0.010002-0.029999 0-0.01001 0-0.030029-0.010002-0.040009-0.010002-2.57-0.78-5.16-1.54-7.74-2.29-0.009979 0-0.029999-0.010002-0.039978-0.010002h-0.029999c-2.62-0.75-5.24-1.49-7.87-2.21-0.01001 0-0.029999-0.009995-0.040009-0.009995-2.54-0.7-5.09-1.38-7.64-2.05-0.009979 0-0.029999-0.010002-0.039978-0.010002-2.48-0.64999-4.96-1.29-7.44-1.91-0.02002 0-0.040009-0.010002-0.059998-0.010002-0.02002-0.010002-0.040009-0.010002-0.059998-0.010002-2.61-0.66-5.23-1.3-7.84-1.92-0.069977-0.019997-0.12997-0.040001-0.19-0.040001-0.049988-0.009995-0.099976-0.019997-0.14999-0.029999-4.87-1.18-9.75-2.28-14.64-3.33-0.059998-0.009995-0.12-0.029999-0.17999-0.040001h-0.02002c-3.48-0.76-6.97-1.48-10.47-2.18-0.009979-0.009995-0.019989-0.009995-0.029999-0.009995-1.48-0.29-2.95-0.59-4.43-0.86-0.01001-0.010002-0.029999-0.010002-0.040009-0.010002-73.24-14.17-149.15-17.17-227.14-10.57-42.48 3.62-84.5 9.93-125.75 18.3" stroke="#19C7A9"/>
		<path d="m2740.6 159.26c-59.15-9.75-122.99-16.1-188.61-15.46-1.1301 0-2.26 0.019989-3.4001 0.039993h-0.01001c-1.1199 0.009995-2.24 0.020004-3.3599 0.040009h-0.01001c-1.1101 0.019989-2.22 0.039993-3.3301 0.069992-1.0798 0.020004-2.1699 0.040009-3.26 0.070007h-0.01001c-1.0999 0.029999-2.2 0.049988-3.3 0.089996-1.0698 0.029999-2.1499 0.059998-3.23 0.099991h-0.01001c-1.0798 0.030014-2.1599 0.060013-3.24 0.10001-0.01001 0-0.01001 0-0.02002 0.009995h-0.009766c-1.0701 0.029999-2.1201 0.070007-3.1902 0.11h-0.02002c-1.0498 0.040009-2.1099 0.080002-3.1599 0.13h-0.02002c-1.04 0.039993-2.0801 0.089996-3.1199 0.14h-0.030029s-0.02002 0-0.030029 0.009995c-0.98999 0.040009-1.98 0.080002-2.97 0.13h-0.030029c-0.02002 0-0.030029 0-0.040039 0.009995-1.04 0.050003-2.0701 0.10001-3.1101 0.16h-0.02002l-2.8799 0.15001c-0.040039 0-0.080078 0-0.12012 0.009995-1.1099 0.059998-2.22 0.13-3.3398 0.2h-0.030029c-2.9399 0.18001-5.8899 0.37001-8.8301 0.59-0.030029-0.009995-0.059814 0-0.079834 0-0.040039-0.009995-0.080078 0-0.12012 0.01001h-0.02002-0.01001c-0.040039 0-0.079834 0-0.11987 0.009995-100.08 7.15-202.4 32.43-297.04 88.15-73.27 43.14-101.7 83.34-137.97 127.03-1.8801 2.26-3.78 4.53-5.71 6.82-1.8601 2.2-3.75 4.41-5.6702 6.63-1.8398 2.13-3.7 4.25-5.6 6.4l-0.01001 0.009979h-0.01001c-1.84 2.08-3.72 4.18-5.6399 6.28h-0.01001l-0.01001 0.01001c-1.8301 2.01-3.72 4.05-5.63 6.08l-0.01001 0.01001h-0.01001c-1.86 1.98-3.75 3.96-5.7 5.95-1.87 1.93-3.79 3.87-5.76 5.81 0 0 0 0.009979-0.01001 0.009979-1.9 1.89-3.8401 3.79-5.8201 5.69-1.9299 1.86-3.9 3.72-5.9199 5.58-1.9301 1.8-3.9 3.59-5.91 5.4-1.99 1.78-4.02 3.57-6.09 5.37-2 1.73-4.05 3.48-6.14 5.23-2.0601 1.73-4.15 3.46-6.3 5.2-2.02 1.65-4.08 3.3-6.1899 4.95-0.030029 0.019989-0.050049 0.049988-0.080078 0.059998-4.12 3.25-8.39 6.52-12.85 9.82-0.02002 0.01001-0.040039 0.029999-0.059937 0.040009-0.02002 0.019989-0.040039 0.029999-0.060059 0.049988-2.12 1.57-4.29 3.15-6.49 4.74-0.02002 0.01001-0.040039 0.029999-0.060059 0.050018-1.9399 1.39-3.8999 2.79-5.8999 4.19-294.11 206.57-764.15 184.14-1054.8 0-172.94-109.56-169.55-192.4-316.01-288.35-32.84-21.51-66.72-39.65-101.48-54.67-2.95-1.28-5.91-2.53-8.88-3.76h-0.01001c-2.9-1.21-5.8-2.4-8.72-3.56h-0.009979c-2.87-1.15-5.74-2.27-8.63-3.37h-0.01001c-2.8-1.08-5.6-2.14-8.41-3.17h-0.009979c-0.01001-0.009995-0.02002 0-0.02002 0-2.78-1.03-5.56-2.04-8.35-3.02-0.01001 0-0.01001-0.010002-0.02002 0h-0.009979c-2.75-0.98-5.49-1.93-8.25-2.86 0-0.010002-0.01001-0.010002-0.02002 0h-0.01001c-2.7-0.93-5.39-1.82-8.1-2.7-2.67-0.87-5.35-1.72-8.03-2.55-2.62-0.82-5.24-1.62-7.86-2.4-2.63-0.79-5.27-1.56-7.91-2.31h-0.019989c-2.57-0.74-5.13-1.46-7.71-2.16-0.01001-0.009995-0.029999-0.009995-0.040009-0.009995-2.52-0.7-5.06-1.37-7.59-2.04-0.02002 0-0.029999-0.010002-0.050018-0.010002-0.019989-0.010002-0.049988-0.010002-0.069977-0.010002-2.57-0.68-5.13-1.34-7.71-1.97h-0.009979c-0.02002-0.009995-0.029999-0.019997-0.050018-0.009995-2.46-0.62-4.92-1.22-7.39-1.81-0.059998-0.009995-0.12-0.029999-0.17999-0.040001 0-0.009995-0.01001-0.009995-0.02002 0-6.87-1.64-13.78-3.18-20.7-4.61-0.040009-0.010002-0.080017-0.020004-0.13-0.030006-0.61002-0.13-1.2-0.25-1.8-0.37-0.039978-0.010002-0.079987-0.020004-0.12-0.020004-0.019989-0.009995-0.040009-0.009995-0.059998-0.019997-76.7-15.66-156.39-19.18-237.65-12.95-36.08 2.78-71.95 7.42-107.4 13.55" stroke="#1AC9A3"/>
		<path d="m2740.6 166.45c-60.14-11.75-124.75-20.03-190.91-21.14-1.1599-0.020004-2.3301-0.039993-3.49-0.050003-1.1499-0.019989-2.3-0.029999-3.45-0.039993h-0.01001c-1.1301-0.01001-2.26-0.020004-3.4001-0.020004-1.1199-0.009995-2.24-0.020004-3.3599-0.009995h-0.01001c-1.1201-0.01001-2.24-0.01001-3.3601 0h-0.01001c-1.1099-0.01001-2.22 0-3.3298 0.009995-1.1101 0-2.22 0.009995-3.3301 0.029999-1.1101 0-2.22 0.020004-3.3201 0.040009h-0.01001c-1.0898 0.009995-2.1799 0.019989-3.28 0.049988 0 0-0.01001-0.009995-0.02002 0-1.0898 0.01001-2.1899 0.029999-3.2898 0.060013h-0.01001c-1.0601 0.019989-2.1201 0.039993-3.1802 0.069992h-0.029785c-0.01001 0-0.02002 0-0.030029 0.009995-1.1001 0.020004-2.2002 0.050003-3.3 0.090012-0.01001-0.01001-0.01001-0.01001-0.02002 0-1.1499 0.029999-2.3101 0.059998-3.46 0.099991-0.02002 0-0.030029 0-0.050049 0.01001h-0.050049c-1.21 0.029999-2.4299 0.080002-3.6399 0.12999h-0.13013c-1.4199 0.050003-2.8398 0.11-4.26 0.17-0.030029-0.009995-0.059814 0-0.079834 0-0.040039 0-0.080078 0-0.12012 0.01001h-0.01001s0-0.01001-0.01001 0h-0.01001c-0.040039 0-0.079834 0-0.11987 0.009995-103.42 4.47-208.74 28.47-305.13 85.73-75.17 44.87-102.71 86.2-138.29 131.56-1.8298 2.34-3.6799 4.69-5.5698 7.05-1.8101 2.27-3.65 4.55-5.5201 6.84h-0.009888c-1.78 2.2-3.6101 4.4-5.4601 6.62h-0.01001c-1.7899 2.14-3.62 4.29-5.49 6.45-1.7999 2.09-3.65 4.19-5.53 6.3-1.8099 2.04-3.6699 4.08-5.5599 6.13-1.84 1.99-3.71 3.99-5.63 6-1.84 1.93-3.72 3.87-5.65 5.82-0.01001 0-0.01001 0-0.01001 0.009979-1.89 1.91-3.8199 3.83-5.7999 5.77l-0.01001 0.009979c-1.91 1.86-3.86 3.73-5.85 5.6l-0.01001 0.01001c-1.9301 1.83-3.89 3.65-5.91 5.5l-0.01001 0.009979s-0.01001 0.01001-0.02002 0.01001c-1.97 1.8-3.98 3.61-6.0499 5.44 0 0-0.01001 0-0.02002 0.01001l-0.01001 0.009979c-2 1.77-4.04 3.54-6.13 5.33-0.01001 0-0.01001 0.01001-0.02002 0.019989-1.95 1.66-3.95 3.34-5.98 5.03-0.02002 0.02002-0.050049 0.040009-0.070068 0.050018-2.0699 1.72-4.1799 3.44-6.34 5.18-0.02002 0.01001-0.040039 0.029999-0.059937 0.040009-0.030029 0.019989-0.060059 0.049988-0.090088 0.069977-4.09 3.29-8.34 6.61-12.77 9.96-0.009888 0.009979-0.029907 0.019989-0.049927 0.039978-2.61 1.98-5.29 3.97-8.03 5.98-288.4 211.11-765.15 195.41-1065.5 0-174.46-113.51-163.09-198.63-312.39-298.57-30.19-20.04-61.41-37.11-93.48-51.46h-0.01001c-2.97-1.34-5.93-2.64-8.91-3.92-2.91-1.26-5.83-2.49-8.75-3.69h-0.009979c-2.89-1.2-5.79-2.37-8.69-3.53h-0.01001c-2.85-1.13-5.71-2.24-8.57-3.32-2.81-1.08-5.63-2.13-8.46-3.16h-0.01001c-2.76-1.02-5.52-2.01-8.29-2.98-2.76-0.96-5.52-1.91-8.29-2.84 0-0.010002-0.01001-0.010002-0.019989 0h-0.01001c-2.67-0.91-5.35-1.8-8.03-2.66h-0.02002c-2.67-0.87-5.33-1.71-8.01-2.54h-0.02002c-2.69-0.84-5.38-1.65-8.08-2.45-0.01001 0-0.029999-0.009995-0.040009-0.009995h-0.029999c-2.64-0.79-5.28-1.55-7.94-2.3-0.009979 0-0.029999-0.010002-0.039978-0.010002 0 0-0.01001-0.009995-0.02002 0-2.63-0.76-5.27-1.49-7.92-2.2h-0.01001c-0.019989-0.010002-0.049988-0.010002-0.070007-0.019997-2.61-0.72-5.22-1.41-7.85-2.08-0.019989-0.010002-0.039978-0.010002-0.059998-0.020004h-0.009979c-2.95-0.76-5.9-1.5-8.86-2.22-0.009979-0.009995-0.019989-0.009995-0.029999-0.009995-3.39-0.84-6.79-1.64-10.2-2.42-0.040009-0.010002-0.080017-0.020004-0.13-0.030006-1.19-0.27-2.39-0.55-3.59-0.8-0.01001 0-0.02002-0.010002-0.029999-0.010002-0.060028-0.019997-0.11002-0.029999-0.17001-0.040001-81.99-18.37-167.56-22.83-254.19-16.87-29.78 2.06-59.51 5.31-89.05 9.58" stroke="#1CCA9D"/>
		<path d="m2740.6 173.4c-61.04-13.7-126.34-23.88-192.98-26.73h-0.01001c-1.1699-0.050003-2.3499-0.10001-3.53-0.14h-0.01001c-1.1599-0.050003-2.3198-0.10001-3.48-0.13h-0.01001c-1.1399-0.050003-2.2898-0.089996-3.4399-0.12-1.1399-0.039993-2.27-0.070007-3.4099-0.10001-1.1301-0.029999-2.26-0.059998-3.3901-0.080002h-0.01001c-1.1099-0.029999-2.23-0.059998-3.3499-0.079987h-0.01001c-1.1201-0.020004-2.24-0.040009-3.3601-0.050003-1.1099-0.020004-2.21-0.040009-3.3198-0.050003h-0.01001c-1.1001-0.009995-2.2002-0.029999-3.29-0.029999-1.0901-0.009995-2.1802-0.020004-3.26-0.020004h-0.01001c-1.0601-0.009995-2.1301-0.009995-3.1899-0.009995-1.0801 0-2.1702 0-3.25 0.009995h-0.01001c-1.0601 0-2.1201 0.01001-3.1802 0.020004h-0.01001c-1.0898 0-2.1699 0.009995-3.25 0.029999h-0.02002c-0.98999 0.009995-1.97 0.020004-2.95 0.039993-0.030029-0.009995-0.059814 0-0.079834 0-0.040039-0.009995-0.080078 0-0.12012 0.01001h-0.01001c-0.01001-0.01001-0.02002 0-0.02002 0-106.89 1.64-215.29 24.28-313.34 83.31-77.23 46.5-103.89 88.99-138.78 136.1-1.7799 2.41-3.59 4.84-5.4199 7.27h-0.01001c-1.75 2.34-3.54 4.69-5.37 7.05-1.74 2.26-3.52 4.54-5.34 6.83-1.75 2.2-3.53 4.42-5.3501 6.65h-0.01001l-0.01001 0.01001c-1.75 2.15-3.5299 4.3-5.37 6.47-1.7699 2.1-3.58 4.21-5.4399 6.33h-0.01001l-0.01001 0.01001c-1.78 2.04-3.59 4.09-5.47 6.15-1.79 1.99-3.64 3.99-5.53 6l-0.01001 0.01001c-1.83 1.96-3.72 3.94-5.65 5.93h-0.01001l-0.009888 0.01001c-1.8501 1.91-3.7401 3.82-5.6901 5.77 0 0-0.01001 0-0.02002 0.01001-1.87 1.86-3.7899 3.74-5.75 5.62-0.02002 0.019989-0.030029 0.029999-0.039917 0.029999-1.9301 1.86-3.9 3.73-5.92 5.59 0 0.01001 0 0.01001-0.01001 0.01001-1.96 1.83-3.97 3.67-6.02 5.51-1.98 1.78-4 3.56-6.0599 5.36-2.01 1.76-4.0701 3.52-6.17 5.3-0.02002 0.01001-0.040039 0.029999-0.060059 0.050018-2.0399 1.72-4.12 3.45-6.25 5.19-0.009888 0.009979-0.029907 0.019989-0.049927 0.039978-5.21 4.27-10.69 8.6-16.45 12.99-282.87 215.6-766.25 206.8-1076.2 0-176.03-117.42-156.27-205.39-308.78-308.77-27.37-18.56-55.76-34.54-84.97-48.16-2.95-1.38-5.9-2.73-8.87-4.05h-0.01001c-2.9-1.32-5.81-2.59-8.72-3.84-2.89-1.25-5.79-2.47-8.7-3.66h-0.009979c-2.83-1.18-5.67-2.33-8.51-3.45-2.79-1.11-5.59-2.2-8.39-3.26h-0.01001c-2.76-1.06-5.52-2.09-8.3-3.09-2.72-1-5.45-1.98-8.18-2.93-2.67-0.94-5.34-1.86-8.03-2.76h-0.009979" stroke="#1ECC97"/>
		<path d="m400.25 91.59v0.010002s0-0.010002-0.01001 0c-2.64-0.9-5.3-1.77-7.96-2.63h-0.02002-0.009979c-2.65-0.86-5.31-1.7-7.97-2.51-0.01001-0.020004-0.029999-0.020004-0.040009-0.010002-2.59-0.82-5.18-1.6-7.77-2.36-0.01001-0.010002-0.02002-0.010002-0.030029 0-0.009979 0-0.029999-0.010002-0.039978-0.010002-2.52-0.77-5.03-1.49-7.55-2.2-0.009979-0.010002-0.029999-0.019997-0.039978-0.010002-2.52-0.71999-5.04-1.42-7.57-2.11-0.029999-0.009995-0.070007-0.019997-0.10001-0.029999h-0.029999c-2.53-0.69-5.06-1.37-7.59-2.02-0.01001-0.010002-0.029999-0.010002-0.040009-0.010002-2.55-0.67-5.1-1.32-7.66-1.95-0.039978-0.010002-0.079987-0.020004-0.12-0.020004-0.040009-0.009995-0.079987-0.019997-0.12-0.029999-0.51999-0.14-1.03-0.27-1.55-0.38-0.01001 0-0.02002-0.010002-0.029999-0.010002-0.060028-0.029999-0.11002-0.040001-0.17001-0.040001-110.11-27.01-227.3-28.55-343.24-14.88" stroke="#1ECC97"/>
	</g>
</svg>